<ttFont>
          <CharString index="0">
            316 callsubr
            -37 hvcurveto
            return
          </CharString>
          <CharString index="1">
            -37 -10 -9 -15 -15 10 -9 37 hvcurveto
            return
          </CharString>
          <CharString index="2">
            -21 -105 callgsubr
            return
          </CharString>
          <CharString index="3">
            rmoveto
            -106 callsubr
            return
          </CharString>
          <CharString index="4">
            rmoveto
            -6 -34 -8 -35 -7 -37 rrcurveto
            -129 -38 -210 -137 -141 hhcurveto
            102 63 97 106 114 vvcurveto
            37 -9 31 -19 21 vhcurveto
            return
          </CharString>
          <CharString index="5">
            -93 callgsubr
            33 31 7 11 29 hvcurveto
            return
          </CharString>
          <CharString index="6">
            -106 callsubr
            80 -102 callsubr
            return
          </CharString>
          <CharString index="7">
            -112 55 -96 94 108 callgsubr
            vhcurveto
            -74 callgsubr
            -27 -130 -34 -131 -21 -104 callgsubr
            -27 callsubr
          </CharString>
          <CharString index="8">
            -12 -10 -8 -10 -7 vvcurveto
            -12 14 -14 13 vhcurveto
            20 11 33 44 hhcurveto
            36 18 -25 -45 return
          </CharString>
          <CharString index="9">
            -2 callsubr
            vhcurveto
            -3 -81 -25 -40 -27 32 callgsubr
            39 52 callsubr
            20 86 30 134 4 40 rrcurveto
            117 -107 callgsubr
          </CharString>
          <CharString index="10">
            rlineto
            -106 callgsubr
            return
          </CharString>
          <CharString index="11">
            4 hlineto
            -16 -50 -14 -51 -15 -42 rrcurveto
            30 -37 -36 23 -38 hhcurveto
            -44 -19 -31 -36 -58 69 -64 45 24 26 24 48 26 hvcurveto
            37 -32 39 -36 42 -23 rrcurveto
            -15 28 25 -5 34 hhcurveto
            23 24 10 17 10 -19 0 -28 -68 -61 57 52 -58 hvcurveto
            12 28 12 33 12 38 8 25 7 26 8 25 rrcurveto
            88 11 76 39 66 vvcurveto
            50 -39 18 -34 -56 -37 -60 -76 -28 vhcurveto
            -7 -7 0 -7 hhcurveto
            -97 callgsubr
            168 -107 callgsubr
          </CharString>
          <CharString index="12">
            rmoveto
            38 93 47 110 54 118 20 -82 14 -92 11 -102 -57 -12 -67 -17 -60 -16 rrcurveto
            -69 -21 rmoveto
            -58 -18 -40 -17 -11 vvcurveto
            -21 20 -4 20 6 10 2 3 14 vhcurveto
            -40 -93 -31 -74 -5 vvcurveto
            -26 16 -22 16 13 36 93 146 59 vhcurveto
            29 7 36 11 46 12 106 28 rcurveline
            6 -68 5 -73 4 -77 rrcurveto
            -53 3 9 -26 21 hhcurveto
            17 7 43 63 40 -4 79 -9 88 hvcurveto
            55 16 35 12 11 vvcurveto
            16 -13 5 -16 -12 -23 -3 -6 -31 vhcurveto
            165 -18 -32 176 -41 hhcurveto
            -35 -12 -23 -37 -18 hvcurveto
            -20 -40 -54 -122 -50 -120 rrcurveto
            endchar
          </CharString>
          <CharString index="13">
            rmoveto
            -30 -78 -77 -24 -56 98 callsubr
            105 callgsubr
            46 26 -114 -48 19 hvcurveto
            -258 415 -85 callsubr
            46 78 21 30 82 hvcurveto
            -15 -68 -12 -53 80 callsubr
            82 94 22 vhcurveto
            return
          </CharString>
          <CharString index="14">
            rmoveto
            -37 -10 -9 -15 -15 10 -9 37 hvcurveto
            109 220 callgsubr
            -23 -12 -12 -20 -29 40 -24 41 -2 hvcurveto
            -69 47 66 -90 111 hhcurveto
            return
          </CharString>
          <CharString index="15">
            -19 -119 -16 -100 -19 -55 callgsubr
            31 18 156 140 25 vhcurveto
            53 86 71 47 41 hhcurveto
            23 6 -26 -31 -130 -35 -79 -69 -8 -8 -2 -7 -11 21 -27 19 76 54 133 124 69 -22 36 -62 -41 -72 -45 -43 -68 hvcurveto
            16 87 18 105 3 27 42 callsubr
          </CharString>
          <CharString index="16">
            vvcurveto
            -9 20 -16 8 return
          </CharString>
          <CharString index="17">
            -99 callgsubr
            118 -107 callsubr
            endchar
          </CharString>
          <CharString index="18">
            hlineto
            -1 -9 0 -12 -13 vvcurveto
            -50 -2 -65 -6 -62 vhcurveto
            6 -32 -29 2 -38 hhcurveto
            -77 -58 -29 -62 -77 61 -96 77 107 46 171 193 56 -1 31 -2 16 hvcurveto
            return
          </CharString>
          <CharString index="19">
            186 callsubr
            -67 -35 -92 -27 -93 -19 rrcurveto
            40 41 27 53 48 vvcurveto
            77 -46 48 -82 -66 -78 -56 -57 -15 9 -12 12 9 7 5 7 4 vhcurveto
            6 10 0 9 14 18 rrcurveto
            19 15 42 20 30 hhcurveto
            50 25 -27 -49 -60 -46 -56 -56 -34 hvcurveto
            7 -25 -27 4 -27 hhcurveto
            -35 -25 -10 -17 -17 25 -37 28 29 30 8 13 28 hvcurveto
            36 -17 22 -30 -34 vvcurveto
            -65 -53 -51 -95 -99 -49 34 82 12 -3 14 -14 -22 -10 -22 -26 -80 73 -66 121 124 83 70 98 37 -16 31 -27 24 vhcurveto
            81 12 94 22 76 28 -24 callsubr
            return
          </CharString>
          <CharString index="20">
            rcurveline
            -27 -130 -34 -131 -21 -22 callgsubr
          </CharString>
          <CharString index="21">
            9 callsubr
            -67 83 -39 53 hvcurveto
            -17 23 -17 27 -17 24 rrcurveto
            1 hlineto
            return
          </CharString>
          <CharString index="22">
            rmoveto
            -70 callgsubr
            -95 -110 -167 -76 -42 42 -34 39 return
          </CharString>
          <CharString index="23">
            35 -141 26 152 vvcurveto
            66 70 27 100 68 47 -8 -18 60 vhcurveto
            -26 -127 -33 -126 -105 callsubr
            120 -107 callgsubr
          </CharString>
          <CharString index="24">
            rmoveto
            -85 callgsubr
            return
          </CharString>
          <CharString index="25">
            10 callsubr
            -65 -38 -56 69 callgsubr
            -165 48 -65 callgsubr
            return
          </CharString>
          <CharString index="26">
            316 callgsubr
            80 76 9 -3 9 -4 10 vhcurveto
            -76 callsubr
          </CharString>
          <CharString index="27">
            -106 callsubr
            186 -89 callsubr
            return
          </CharString>
          <CharString index="28">
            hhcurveto
            -134 -152 -20 -84 -76 112 -124 74 72 33 82 80 32 -1 37 -7 25 hvcurveto
            25 hlineto
            return
          </CharString>
          <CharString index="29">
            -31 callgsubr
            -59 -4 -77 -9 -72 rrcurveto
            -113 -11 -95 -27 -60 vvcurveto
            -59 64 -92 63 71 37 98 114 19 vhcurveto
            1 23 23 0 23 return
          </CharString>
          <CharString index="30">
            hlineto
            -75 callgsubr
            return
          </CharString>
          <CharString index="31">
            10 10 -1 11 hhcurveto
            54 50 16 24 38 hvcurveto
            -4 -21 -69 callgsubr
          </CharString>
          <CharString index="32">
            rmoveto
            -70 -19 -45 -36 -50 -81 87 59 41 84 14 94 4 vhcurveto
            2 -19 6 -14 -57 vvcurveto
            -202 1 callsubr
            return
          </CharString>
          <CharString index="33">
            5 26 6 27 8 26 rrcurveto
            92 9 82 39 69 vvcurveto
            43 -22 29 -49 -63 -47 -65 -75 -30 vhcurveto
            -4 hlineto
            -97 callgsubr
            return
          </CharString>
          <CharString index="34">
            vvcurveto
            -9 20 -16 8 14 44 183 133 31 vhcurveto
            -47 callsubr
          </CharString>
          <CharString index="35">
            56 -45 184 -7 -61 vvcurveto
            -43 -47 -36 -77 -86 -38 38 41 107 callsubr
            -14 -6 206 callsubr
            138 -107 callgsubr
          </CharString>
          <CharString index="36">
            rmoveto
            -34 -11 24 42 94 78 158 76 44 47 -86 -104 13 hvcurveto
            -73 -53 -83 -55 -77 hhcurveto
            return
          </CharString>
          <CharString index="37">
            480 rmoveto
            -82 -50 -85 -78 -51 23 -46 42 -20 hvcurveto
            -70 -102 -147 -47 -103 hhcurveto
            -10 -5 4 9 67 104 97 63 43 hvcurveto
            14 10 12 9 12 vvcurveto
            7 -6 3 -11 vhcurveto
            254 callsubr
            -26 -30 -10 -41 hhcurveto
            -43 -21 12 21 55 135 142 73 hvcurveto
            33 5 -39 17 hhcurveto
            7 7 8 8 14 -8 19 -13 14 hvcurveto
            181 hlineto
            -9 -22 -6 -31 -23 vvcurveto
            -11 0 -11 2 -10 vhcurveto
            -31 -250 rmoveto
            -25 5 -31 18 63 vvcurveto
            59 32 58 54 35 12 -30 -35 -50 -30 -47 -47 -41 vhcurveto
            return
          </CharString>
          <CharString index="38">
            -77 callsubr
            4 -7 -7 3 -6 hhcurveto
            return
          </CharString>
          <CharString index="39">
            hhcurveto
            14 44 183 133 31 hvcurveto
            -103 callgsubr
            return
          </CharString>
          <CharString index="40">
            vhcurveto
            -103 callgsubr
            76 hlineto
            47 21 7 15 21 -31 5 -60 hvcurveto
            return
          </CharString>
          <CharString index="41">
            vvcurveto
            -127 97 -92 132 42 28 11 17 11 -13 5 -36 -116 -81 56 119 84 51 56 94 82 26 -38 -71 -20 3 -19 13 25 5 39 28 68 -40 66 -116 vhcurveto
            -13 hlineto
            -18 16 -9 18 21 vvcurveto
            39 37 16 -30 callgsubr
            95 callsubr
          </CharString>
          <CharString index="42">
            rlineto
            -27 -130 -34 -131 -21 -73 callsubr
          </CharString>
          <CharString index="43">
            rrcurveto
            -76 callgsubr
            return
          </CharString>
          <CharString index="44">
            hlineto
            -10 -56 -13 -59 -13 -61 rrcurveto
            -39 -41 -62 -27 -63 -40 -30 22 -28 hhcurveto
            -12 -8 -6 -34 callgsubr
            return
          </CharString>
          <CharString index="45">
            -6 -6 -3 -7 -5 vvcurveto
            -11 19 -18 11 vhcurveto
            13 18 37 62 hhcurveto
            51 24 -30 -54 return
          </CharString>
          <CharString index="46">
            93 199 704 rmoveto
            -12 -2 -5 -24 hvcurveto
            -144 -86 -195 -143 vvcurveto
            -97 58 -86 85 156 160 233 365 71 -39 25 -17 -11 -3 -3 -13 vhcurveto
            -30 7 -40 -60 vvcurveto
            -272 -151 -220 -95 -54 -37 53 88 vhcurveto
            101 87 234 94 vvcurveto
            35 -31 33 -15 vhcurveto
            return
          </CharString>
          <CharString index="47">
            22 -28 -28 14 -49 hhcurveto
            -104 -198 -70 -86 -57 66 -43 60 67 30 45 59 27 -5 32 -14 28 hvcurveto
            10 38 37 7 25 hhcurveto
            39 26 -8 -33 39 hvcurveto
            -7 7 8 -5 6 callgsubr
            return
          </CharString>
          <CharString index="48">
            -104 callsubr
            109 hlineto
            return
          </CharString>
          <CharString index="49">
            hlineto
            -16 -83 -20 -55 callsubr
            return
          </CharString>
          <CharString index="50">
            -21 callsubr
            64 -25 callsubr
            return
          </CharString>
          <CharString index="51">
            3 -22 8 -33 -51 vvcurveto
            -134 -85 -135 -94 -38 -16 44 67 131 44 88 16 45 vhcurveto
            -163 -26 callgsubr
            107 -18 callgsubr
            return
          </CharString>
          <CharString index="52">
            -90 -20 -96 rrcurveto
            -33 callsubr
            return
          </CharString>
          <CharString index="53">
            rmoveto
            40 143 16 84 35 vvcurveto
            8 -1 9 -3 7 vhcurveto
            11 32 44 15 51 hhcurveto
            68 54 -22 -50 -137 -264 -53 -37 -50 hvcurveto
            -4 -14 rmoveto
            -78 8 246 -221 65 hhcurveto
            16 4 4 11 20 -58 40 -55 47 hvcurveto
            -65 57 -95 87 26 26 297 50 180 vvcurveto
            98 -92 40 -110 -74 -108 -32 -27 -14 12 -17 12 -6 vhcurveto
            -13 -149 -113 -333 -67 vvcurveto
            -22 20 -21 13 9 37 145 123 35 vhcurveto
            return
          </CharString>
          <CharString index="54">
            140 callsubr
            33 -66 52 -77 45 -51 rrcurveto
            -29 -46 -51 -24 -52 hhcurveto
            -34 -11 27 39 hvcurveto
            return
          </CharString>
          <CharString index="55">
            rmoveto
            -10 -6 -6 -8 -23 53 -9 84 -44 hvcurveto
            -48 92 92 -64 19 hhcurveto
            6 3 4 7 37 -265 154 -68 hvcurveto
            return
          </CharString>
          <CharString index="56">
            hhcurveto
            -13 -5 4 9 45 75 78 57 39 hvcurveto
            21 14 24 18 13 vvcurveto
            11 -6 6 -13 vhcurveto
            -1 hlineto
            -8 callsubr
            108 113 89 86 45 -26 22 -45 return
          </CharString>
          <CharString index="57">
            hhcurveto
            -93 -44 59 53 -37 hvcurveto
            128 16 102 84 113 vvcurveto
            37 -10 33 -21 24 vhcurveto
            return
          </CharString>
          <CharString index="58">
            hhcurveto
            -12 -8 -10 -12 hvcurveto
            0 vlineto
            -91 callgsubr
            return
          </CharString>
          <CharString index="59">
            -106 callsubr
            336 hlineto
            -20 -90 -15 -83 -21 -96 return
          </CharString>
          <CharString index="60">
            21 91 30 138 4 31 -21 callgsubr
          </CharString>
          <CharString index="61">
            hlineto
            -11 -10 -6 -11 -6 vvcurveto
            -12 21 -14 12 10 8 9 11 10 vhcurveto
            12 11 20 9 27 hhcurveto
            51 22 -29 -62 -106 -79 -89 -117 hvcurveto
            -43 -3 41 -28 hhcurveto
            -7 -5 -8 -9 -2 hvcurveto
            -1 -2 0 -1 -2 vvcurveto
            0 vlineto
            -1 vlineto
            -4 1 -5 3 -6 vhcurveto
            13 -40 52 -85 33 -44 rrcurveto
            -66 49 69 -82 23 hhcurveto
            11 5 6 11 18 -64 65 -55 76 hvcurveto
            -18 24 -19 35 -19 31 rrcurveto
            7 hlineto
            return
          </CharString>
          <CharString index="62">
            168 callsubr
            4 -7 -7 3 -6 273 callsubr
            -14 53 -78 57 -74 hvcurveto
            -74 58 61 -71 33 callsubr
            return
          </CharString>
          <CharString index="63">
            160 callgsubr
            252 -42 -100 -15 callsubr
            return
          </CharString>
          <CharString index="64">
            -1 vlineto
            -26 50 -15 -27 vvcurveto
            -58 -91 -54 -99 -33 -19 18 41 77 38 92 89 31 vhcurveto
            11 4 11 2 6 vvcurveto
            10 -32 19 -17 return
          </CharString>
          <CharString index="65">
            -66 15 -49 43 77 64 38 40 64 vhcurveto
            -92 callsubr
          </CharString>
          <CharString index="66">
            66 -86 -12 74 -32 hhcurveto
            -12 -11 -11 -16 -55 131 -113 19 20 28 35 29 39 hvcurveto
            43 32 48 15 30 vvcurveto
            12 -9 8 -16 return
          </CharString>
          <CharString index="67">
            rmoveto
            31 20 -31 -18 -47 -91 -23 -96 -2 hvcurveto
            57 36 53 64 47 hhcurveto
            -326 151 callsubr
            353 hlineto
            -16 -33 -8 -61 -51 vvcurveto
            15 -20 -22 12 -17 hhcurveto
            -93 -229 -197 -104 -38 41 -39 57 -18 hvcurveto
            -20 callgsubr
            return
          </CharString>
          <CharString index="68">
            636 rmoveto
            -49 -33 0 -21 -22 51 -5 85 hvcurveto
            return
          </CharString>
          <CharString index="69">
            rmoveto
            -16 -7 -28 -27 -52 -5 -270 -96 -243 hvcurveto
            -74 159 -144 355 -12 49 rrcurveto
            32 -8 -27 25 -10 hhcurveto
            -12 -2 -5 -24 hvcurveto
            -116 -138 -427 -72 vvcurveto
            -22 22 -23 10 12 7 51 476 126 vhcurveto
            30 -86 148 -352 25 -49 rrcurveto
            -24 12 19 -16 15 hhcurveto
            83 83 455 178 24 -25 32 -16 hvcurveto
            return
          </CharString>
          <CharString index="70">
            -9 callsubr
            -68 -28 -122 -90 196 callsubr
            return
          </CharString>
          <CharString index="71">
            rmoveto
            -30 -40 5 9 -37 hvcurveto
            83 37 64 71 62 hhcurveto
            40 43 -56 -43 -39 -48 -30 -91 hvcurveto
            50 224 rmoveto
            -120 -126 -187 -142 -95 76 -61 90 273 callgsubr
            -6 6 -12 hvcurveto
            195 callsubr
            32 50 30 6 32 10 32 hvcurveto
            -11 44 45 -8 47 hhcurveto
            159 callsubr
            hvcurveto
            return
          </CharString>
          <CharString index="72">
            512 rmoveto
            -3 -15 rlineto
            -120 -29 -114 -133 -94 hhcurveto
            -25 -20 41 74 84 14 77 25 68 hvcurveto
            261 hlineto
            -5 -25 -5 -25 -5 -26 rrcurveto
            return
          </CharString>
          <CharString index="73">
            rmoveto
            48 9 57 14 53 vhcurveto
            47 -84 81 -110 46 -55 rrcurveto
            -23 -39 -48 -21 -53 hhcurveto
            -41 -16 69 66 hvcurveto
            -91 277 -11 callgsubr
            return
          </CharString>
          <CharString index="74">
            -27 -130 -34 13 callsubr
            return
          </CharString>
          <CharString index="75">
            -19 -42 -29 -27 -47 hvcurveto
            -49 -28 -19 -18 -26 vvcurveto
            -16 14 -7 11 32 52 63 36 70 vhcurveto
            -45 35 34 -64 33 hhcurveto
            14 9 6 11 18 -32 38 -35 42 hvcurveto
            return
          </CharString>
          <CharString index="76">
            hlineto
            -23 -32 -19 -53 -60 vvcurveto
            -8 vlineto
            12 -23 return
          </CharString>
          <CharString index="77">
            -102 callgsubr
            -157 hmoveto
            -99 callsubr
            -65 -31 -51 -37 -40 hvcurveto
            -43 -1 -84 -2 -76 238 callsubr
            22 -2 25 -6 24 vhcurveto
            -7 6 12 -4 25 hhcurveto
            -249 285 callsubr
            return
          </CharString>
          <CharString index="78">
            1 callgsubr
            -438 166 rmoveto
            81 callgsubr
            75 46 -50 -66 -10 -1 -11 -2 -10 hvcurveto
            -9 -29 -35 -6 -35 hhcurveto
            165 182 rmoveto
            -37 -10 -9 -15 -3 1 -3 1 -3 hvcurveto
            38 -28 -47 25 -64 -22 callsubr
            36 -9 33 -19 27 hvcurveto
            -6 7 12 -3 23 hhcurveto
            60 callsubr
          </CharString>
          <CharString index="79">
            21 92 30 136 4 32 rrcurveto
            return
          </CharString>
          <CharString index="80">
            -103 callgsubr
            122 -107 callgsubr
          </CharString>
          <CharString index="81">
            rmoveto
            -51 -37 72 44 41 36 17 57 34 30 -5 -4 22 hvcurveto
            -90 -14 -27 -75 -50 hhcurveto
            return
          </CharString>
          <CharString index="82">
            280 36 8 -67 callsubr
            return
          </CharString>
          <CharString index="83">
            -10 -44 rcurveline
            -29 -130 -33 -135 -21 -55 callgsubr
            33 35 183 133 30 vhcurveto
            -28 callsubr
            return
          </CharString>
          <CharString index="84">
            -8 -78 -24 -46 -28 32 callgsubr
            39 52 callsubr
            20 86 30 134 4 40 -21 callgsubr
          </CharString>
          <CharString index="85">
            hhcurveto
            -101 -50 -60 -67 -65 58 -68 107 28 29 4 7 29 hvcurveto
            23 callgsubr
            -3 27 callgsubr
            return
          </CharString>
          <CharString index="86">
            -248 -84 callgsubr
            17 return
          </CharString>
          <CharString index="87">
            -102 callgsubr
            -327 -178 rmoveto
            -2 hlineto
            -16 -65 -47 -75 hhcurveto
            -25 -8 6 22 17 5 21 10 21 hvcurveto
            -4 14 16 -2 16 87 callgsubr
            -112 -91 -71 -59 -43 hvcurveto
            -37 -55 -102 -72 -128 hhcurveto
            -18 -10 8 15 45 75 78 57 39 hvcurveto
            21 14 24 18 13 108 callsubr
            return
          </CharString>
          <CharString index="88">
            hhcurveto
            89 330 -28 callgsubr
            return
          </CharString>
          <CharString index="89">
            rmoveto
            -29 41 -114 -179 hhcurveto
            -85 -73 43 58 hvcurveto
            7 3 1 8 vvcurveto
            10 -21 12 -18 -11 -4 -10 -15 243 callgsubr
            endchar
          </CharString>
          <CharString index="90">
            -195 77 66 rmoveto
            -21 22 -23 12 12 35 148 126 34 vhcurveto
            46 169 28 133 37 vvcurveto
            35 -26 34 -17 -13 -2 -6 -23 vhcurveto
            -116 -131 -427 -66 vvcurveto
            return
          </CharString>
          <CharString index="91">
            rmoveto
            -67 -139 -87 -73 hvcurveto
            -91 188 -35 -80 vvcurveto
            -31 -26 -31 -92 vhcurveto
            -88 -31 59 -26 hhcurveto
            -8 -9 -8 -13 -33 81 -62 87 104 73 58 55 hvcurveto
            101 -190 57 51 vvcurveto
            50 105 53 34 vhcurveto
            35 16 -44 25 hhcurveto
            9 4 5 9 24 -37 66 -48 hvcurveto
            return
          </CharString>
          <CharString index="92">
            vvcurveto
            -34 -39 -24 -56 -11 vhcurveto
            91 -36 -53 82 -88 hhcurveto
            -58 -47 -36 -56 -89 101 -47 106 15 15 1 1 14 hvcurveto
            -78 33 33 -104 30 hhcurveto
            10 6 5 13 17 -36 85 -27 68 hvcurveto
            76 16 54 36 65 return
          </CharString>
          <CharString index="93">
            vvcurveto
            -68 62 -82 61 79 61 94 116 36 vhcurveto
            79 8 75 5 47 7 rrcurveto
            -27 -128 -33 -127 -105 callsubr
            96 callgsubr
          </CharString>
          <CharString index="94">
            rmoveto
            -33 -62 -69 -16 -67 hhcurveto
            -88 -48 48 45 -39 hvcurveto
            123 20 96 82 110 vvcurveto
            37 -10 33 -21 24 vhcurveto
            345 hlineto
            -11 -59 -13 -62 -14 -65 rrcurveto
            35 -30 -50 30 -64 hhcurveto
            -86 -48 -49 -60 -65 65 -55 85 hvcurveto
            112 89 rmoveto
            -1 vlineto
            -20 -5 -46 -27 -50 35 callsubr
            hvcurveto
            return
          </CharString>
          <CharString index="95">
            112 -242 154 46 vvcurveto
            29 37 33 74 30 vhcurveto
            90 37 74 -4 18 vvcurveto
            17 -24 21 -35 -66 -135 -55 -52 -43 vhcurveto
            -13 -16 -15 -37 -23 -91 233 -128 -94 vvcurveto
            -68 -79 -58 -117 vhcurveto
            -102 -49 95 -22 hhcurveto
            -9 -3 -6 -11 return
          </CharString>
          <CharString index="96">
            -71 -48 31 51 45 37 18 55 84 44 -56 -38 return
          </CharString>
          <CharString index="97">
            325 callgsubr
            -23 -5 -23 -5 -23 rrcurveto
            -142 -37 -113 -133 -91 hhcurveto
            -25 -20 41 74 84 14 77 25 68 hvcurveto
            return
          </CharString>
          <CharString index="98">
            -59 callsubr
            -22 return
          </CharString>
          <CharString index="99">
            -2 hlineto
            -16 -65 -47 -75 hhcurveto
            -25 -8 6 22 17 5 21 10 21 hvcurveto
            -4 14 16 -2 16 hhcurveto
            return
          </CharString>
          <CharString index="100">
            rmoveto
            17 9 -8 -17 -62 -86 -65 -79 -11 -11 2 2 -10 hvcurveto
            75 46 79 73 46 hhcurveto
            return
          </CharString>
          <CharString index="101">
            rmoveto
            -99 -56 -13 -18 -17 24 -23 15 hvcurveto
            35 39 11 42 hhcurveto
            79 37 -7 -17 hvcurveto
            -59 -320 -187 -73 vvcurveto
            -35 46 -47 58 75 209 28 37 13 -10 1 -21 vhcurveto
            -37 -106 -20 -108 hhcurveto
            -26 -11 10 14 hvcurveto
            50 306 162 104 vvcurveto
            22 -19 29 -21 13 vhcurveto
            11 -17 -52 11 -62 hhcurveto
            return
          </CharString>
          <CharString index="102">
            9 -4 6 -12 -33 -139 -55 -47 -81 vhcurveto
            3 14 2 15 16 -101 callgsubr
            return
          </CharString>
          <CharString index="103">
            vvcurveto
            -23 32 -26 25 129 134 51 87 94 vhcurveto
            -27 -129 -34 -130 -21 -73 callsubr
          </CharString>
          <CharString index="104">
            -104 callsubr
            306 306 callsubr
            -95 -110 -167 -76 -42 42 -34 39 return
          </CharString>
          <CharString index="105">
            -65 26 -51 64 73 87 46 62 59 return
          </CharString>
          <CharString index="106">
            rmoveto
            -20 -52 -14 -22 -16 vvcurveto
            -12 7 -10 11 21 14 29 55 33 vhcurveto
            21 35 18 27 13 vvcurveto
            22 -18 20 -21 -21 -8 -31 -58 -23 vhcurveto
            128 -16 rmoveto
            -25 -47 -9 -13 -16 vvcurveto
            -11 7 -8 10 24 17 33 40 29 vhcurveto
            30 42 19 18 19 vvcurveto
            21 -17 21 -20 -16 -15 -35 -64 -34 vhcurveto
            return
          </CharString>
          <CharString index="107">
            -69 47 66 -90 111 hhcurveto
            92 108 27 73 93 hvcurveto
            -20 -91 -19 -75 -16 -73 callsubr
          </CharString>
          <CharString index="108">
            400 -104 callsubr
            return
          </CharString>
          <CharString index="109">
            23 17 41 52 hhcurveto
            47 33 -33 -62 -99 -72 -66 -111 hvcurveto
            -43 -24 50 -28 hhcurveto
            -8 -7 -12 -11 -6 3 -8 6 -8 hvcurveto
            22 -33 60 -59 28 -39 rrcurveto
            -78 56 38 -59 291 callgsubr
            18 -36 55 -55 80 hvcurveto
            -11 16 -12 16 -13 16 rrcurveto
            129 3 94 78 130 vvcurveto
            return
          </CharString>
          <CharString index="110">
            636 rmoveto
            222 callsubr
            72 30 94 85 259 callsubr
            hvcurveto
            12 callgsubr
            return
          </CharString>
          <CharString index="111">
            rmoveto
            -55 -42 47 53 -28 hvcurveto
            81 85 79 84 50 hhcurveto
            24 14 -14 -27 -92 -51 -132 -76 hvcurveto
            -407 40 rmoveto
            65 72 143 67 43 36 -71 -41 26 vhcurveto
            -71 -75 -72 -66 -55 hhcurveto
            -30 -12 16 25 hvcurveto
            495 275 rmoveto
            -61 -78 -72 -75 -79 hvcurveto
            52 -19 -48 78 -70 hhcurveto
            -107 -86 -184 -86 -36 53 -43 39 65 73 55 64 71 hvcurveto
            -64 34 58 -51 63 hhcurveto
            134 47 171 94 63 -33 34 -56 hvcurveto
            return
          </CharString>
          <CharString index="112">
            -106 callsubr
            354 -37 callgsubr
            return
          </CharString>
          <CharString index="113">
            hlineto
            3 -19 6 -27 1 -61 rrcurveto
            4 -20 -25 3 -28 hhcurveto
            return
          </CharString>
          <CharString index="114">
            453 -104 callsubr
            return
          </CharString>
          <CharString index="115">
            hhcurveto
            -36 callgsubr
            hvcurveto
            -2 callgsubr
            return
          </CharString>
          <CharString index="116">
            12 4 7 10 16 return
          </CharString>
          <CharString index="117">
            -17 -87 -13 -78 -14 -93 rrcurveto
            -51 -84 return
          </CharString>
          <CharString index="118">
            22 callgsubr
            -377 353 rmoveto
            -37 -10 -9 -15 -15 10 -9 37 hvcurveto
            314 194 callsubr
            rrcurveto
            -139 -3 -191 -186 -104 vvcurveto
            return
          </CharString>
          <CharString index="119">
            rmoveto
            -17 -7 -26 -168 -39 hvcurveto
            -19 -81 -50 -156 -22 vvcurveto
            -18 11 -14 13 10 15 14 42 14 vhcurveto
            72 227 30 132 30 vvcurveto
            18 -19 22 -14 vhcurveto
            return
          </CharString>
          <CharString index="120">
            -131 141 callgsubr
            return
          </CharString>
          <CharString index="121">
            rmoveto
            -16 -83 -13 -74 -13 -86 rrcurveto
            -50 -84 -65 -34 -58 58 callgsubr
            120 30 71 hvcurveto
            -165 48 -9 callsubr
            -64 -28 -106 -90 196 callsubr
            67 70 32 41 70 vhcurveto
            -12 -78 -12 -72 -6 -48 rrcurveto
            35 -22 -37 37 43 callgsubr
            2 -3 3 -2 3 -2 rrcurveto
            -2 2 3 -1 3 hhcurveto
            33 17 167 143 27 hvcurveto
            50 85 63 28 45 hhcurveto
            36 13 -33 295 callgsubr
            51 -62 -50 -66 -30 -38 -67 vhcurveto
            16 85 16 96 3 26 rrcurveto
            327 -107 callgsubr
          </CharString>
          <CharString index="122">
            -63 callgsubr
            124 -99 callgsubr
            118 -107 callsubr
            return
          </CharString>
          <CharString index="123">
            rmoveto
            5 callsubr
            return
          </CharString>
          <CharString index="124">
            rmoveto
            -13 -3 -6 -23 hvcurveto
            -127 -132 -363 -90 vvcurveto
            -43 51 -36 62 127 181 63 40 9 -1 1 -10 vhcurveto
            -27 -126 -54 -161 hhcurveto
            -18 -15 13 20 18 7 33 40 135 hvcurveto
            47 162 33 137 45 vvcurveto
            34 -26 32 -16 vhcurveto
            return
          </CharString>
          <CharString index="125">
            rmoveto
            233 callsubr
            -71 -48 31 51 vhcurveto
            -388 275 -3 callgsubr
            41 -1 hvcurveto
            -66 52 76 -73 107 hhcurveto
            61 63 13 24 57 hvcurveto
            -127 -128 -161 -115 -22 vvcurveto
            -7 6 -5 8 72 304 294 106 56 vhcurveto
            0 vlineto
            6 11 4 12 14 293 callsubr
            -58 -63 -17 -75 hhcurveto
            -88 -48 48 45 -39 hvcurveto
            123 20 96 82 110 vvcurveto
            37 -10 33 -21 24 vhcurveto
            353 -107 callgsubr
          </CharString>
          <CharString index="126">
            rmoveto
            -176 -229 -312 -197 -88 84 -91 86 69 98 75 131 69 hvcurveto
            -42 -141 -46 -103 -42 vvcurveto
            -20 8 -9 13 30 95 308 54 27 -30 39 -32 -95 -57 -11 -17 -13 25 -21 24 20 34 6 17 51 vhcurveto
            -130 -85 -87 -86 -65 hhcurveto
            -50 -51 52 68 190 219 248 122 hvcurveto
            35 15 -19 14 hhcurveto
            7 3 4 11 19 -36 51 -40 hvcurveto
            return
          </CharString>
          <CharString index="127">
            343 211 rmoveto
            49 callsubr
            78 36 80 28 24 38 callsubr
            return
          </CharString>
          <CharString index="128">
            rmoveto
            -14 2 -9 -21 -6 hvcurveto
            -145 -44 -105 -256 -106 hhcurveto
            -27 -23 23 31 hvcurveto
            147 111 161 31 vvcurveto
            21 -16 17 -13 -40 -103 -238 -132 -55 44 -60 64 51 51 34 66 45 vhcurveto
            -164 -56 -41 -144 -60 -71 -38 85 -18 hhcurveto
            -7 -15 -18 -13 -50 84 -52 67 60 40 47 92 33 hvcurveto
            99 276 91 247 21 vvcurveto
            32 -23 26 -16 vhcurveto
            return
          </CharString>
          <CharString index="129">
            vvcurveto
            -155 140 -64 132 42 28 11 17 11 -13 5 -36 -123 -117 58 113 return
          </CharString>
          <CharString index="130">
            -249 58 -63 callgsubr
            125 -99 callgsubr
            322 callgsubr
            -129 hlineto
            222 callsubr
            19 15 6 11 13 hvcurveto
            19 31 42 11 32 79 33 -58 18 hhcurveto
            6 3 4 11 36 -68 55 -76 161 callsubr
            57 -77 24 -98 20 -48 rrcurveto
            return
          </CharString>
          <CharString index="131">
            33 callgsubr
            -114 -85 -35 -104 270 callgsubr
            hvcurveto
            147 callgsubr
            return
          </CharString>
          <CharString index="132">
            211 369 rmoveto
            -33 -16 37 35 101 73 99 43 27 24 -42 -65 -82 -74 -83 -44 hvcurveto
            442 373 rmoveto
            -24 -113 -87 -103 hhcurveto
            -55 -26 26 7 -17 hvcurveto
            5 -11 -11 3 -11 hhcurveto
            -80 -99 -112 -152 -61 47 -59 53 81 103 110 120 24 -4 23 -6 19 hvcurveto
            -6 19 20 -3 20 hhcurveto
            57 59 19 35 55 hvcurveto
            -282 -409 -146 -202 -22 vvcurveto
            -14 14 -22 8 20 71 114 210 143 vhcurveto
            95 140 156 191 49 vvcurveto
            20 -22 34 -11 vhcurveto
            -68 -669 rmoveto
            -34 -16 37 35 101 73 99 43 28 23 -42 -65 -82 -73 -83 -44 hvcurveto
            70 327 rmoveto
            -79 -99 -112 -152 -61 47 -59 52 82 102 110 120 93 -49 61 -56 hvcurveto
            return
          </CharString>
          <CharString index="133">
            rmoveto
            -30 -78 -77 -24 -56 98 callsubr
            105 callgsubr
            46 26 -114 -48 19 hvcurveto
            -258 415 -85 callsubr
            22 28 5 8 33 hvcurveto
            -17 -14 -16 -13 -13 -12 rrcurveto
            -47 -43 -71 -84 -15 237 callsubr
            17 76 86 35 35 vhcurveto
            41 41 62 43 41 24 rrcurveto
            -15 -66 -11 -52 201 callsubr
            338 -107 callgsubr
          </CharString>
          <CharString index="134">
            -67 callgsubr
            endchar
          </CharString>
          <CharString index="135">
            -104 callsubr
            308 16 callgsubr
            -17 7 -19 15 -12 hvcurveto
            56 -45 184 -7 -61 vvcurveto
            -43 -47 -36 -77 -86 -38 38 41 107 callsubr
            -14 -6 -11 -17 -42 37 -44 62 -22 hvcurveto
            -46 -57 -67 -104 -21 vvcurveto
            -35 callgsubr
            22 -72 78 -6 112 hvcurveto
            105 1 67 59 70 125 -255 -10 39 vvcurveto
            33 118 41 39 vhcurveto
            33 24 -17 17 hhcurveto
            18 9 11 25 79 10 28 5 23 hvcurveto
            138 -107 callgsubr
          </CharString>
          <CharString index="136">
            rmoveto
            33 25 14 29 60 35 -60 -70 32 vhcurveto
            -1 -7 -8 0 -7 hhcurveto
            -80 -79 27 57 hvcurveto
            return
          </CharString>
          <CharString index="137">
            -104 callsubr
            81 128 callgsubr
            return
          </CharString>
          <CharString index="138">
            rmoveto
            40 43 -56 -43 -39 -48 -30 -91 -30 -40 5 9 -37 hvcurveto
            83 37 64 71 62 hhcurveto
            -44 -215 rmoveto
            159 callsubr
            -120 -126 -187 -142 -95 76 -61 90 273 callgsubr
            -6 6 -12 hvcurveto
            195 callsubr
            32 50 30 6 32 10 32 hvcurveto
            -11 44 45 -8 47 hhcurveto
            endchar
          </CharString>
          <CharString index="139">
            1 callgsubr
            -273 320 callgsubr
            60 callsubr
          </CharString>
          <CharString index="140">
            17 -9 callgsubr
            return
          </CharString>
          <CharString index="141">
            rmoveto
            -55 -42 47 53 -28 hvcurveto
            81 85 79 84 50 hhcurveto
            24 14 -14 -27 -92 -51 -132 -76 hvcurveto
            -407 40 rmoveto
            65 72 143 67 43 36 -71 -41 26 vhcurveto
            -71 -75 -72 -66 -55 hhcurveto
            -30 -12 16 25 hvcurveto
            -10 486 -104 callsubr
            561 hlineto
            -23 -43 -23 -78 -3 -42 rrcurveto
            -7 hlineto
            -61 -78 -72 -75 -79 hvcurveto
            52 -19 -48 78 -70 hhcurveto
            -107 -86 -184 -86 -36 53 -43 39 65 73 55 64 71 hvcurveto
            -64 34 58 -51 63 hhcurveto
            134 47 171 94 44 -16 29 -28 15 hvcurveto
            8 21 7 30 9 24 11 31 19 44 6 22 rrcurveto
            105 -107 callgsubr
          </CharString>
          <CharString index="142">
            hhcurveto
            -11 callsubr
            return
          </CharString>
          <CharString index="143">
            rmoveto
            -12 callsubr
            -44 86 -91 115 137 108 78 108 hvcurveto
            return
          </CharString>
          <CharString index="144">
            385 243 callsubr
            273 hlineto
            -13 -68 -16 -73 -16 -77 -90 -47 -142 -46 -72 -2 rrcurveto
            -72 52 -93 40 55 212 callgsubr
            return
          </CharString>
          <CharString index="145">
            vvcurveto
            -5 callsubr
            return
          </CharString>
          <CharString index="146">
            -76 41 46 -74 291 callgsubr
            16 -43 61 -34 72 hvcurveto
            -13 27 -11 28 -12 25 rrcurveto
            -2 9 9 -1 9 hhcurveto
            39 37 9 16 33 hvcurveto
            124 1 189 11 119 35 rrcurveto
            -1 vlineto
            -10 -50 -12 -50 -10 -43 rrcurveto
            10 -26 -30 7 -34 hhcurveto
            -119 -168 -60 -86 -57 66 -43 60 67 30 45 59 26 -5 31 -13 27 hvcurveto
            7 29 29 3 26 hhcurveto
            30 24 -5 -9 24 hvcurveto
            -11 -48 -8 -36 -10 -104 callgsubr
            3 15 rlineto
            1 1 hlineto
            21 90 26 125 4 29 -21 callgsubr
          </CharString>
          <CharString index="147">
            rmoveto
            -18 -18 -13 -19 -28 42 18 4 -40 hvcurveto
            187 callsubr
            29 97 272 callgsubr
            vhcurveto
            return
          </CharString>
          <CharString index="148">
            rmoveto
            278 callsubr
            -20 43 -44 15 9 4 7 12 21 -31 56 -17 hvcurveto
            return
          </CharString>
          <CharString index="149">
            rrcurveto
            307 -107 callgsubr
          </CharString>
          <CharString index="150">
            vvcurveto
            39 -11 35 -23 24 vhcurveto
            return
          </CharString>
          <CharString index="151">
            -249 230 3 callsubr
            -132 -40 callgsubr
            124 -99 callgsubr
            118 -107 callsubr
            return
          </CharString>
          <CharString index="152">
            rmoveto
            -91 callgsubr
            11 -4 13 -7 13 vhcurveto
            -1 10 11 0 11 hhcurveto
            50 43 7 16 44 hvcurveto
            -79 -219 -220 -98 -28 vvcurveto
            -9 5 -4 10 92 250 241 162 16 -5 8 -7 vhcurveto
            -31 -46 -39 -118 -37 90 callsubr
            -199 175 callgsubr
            571 -107 callgsubr
          </CharString>
          <CharString index="153">
            79 34 -58 17 hhcurveto
            6 3 4 11 33 -64 58 -80 return
          </CharString>
          <CharString index="154">
            185 callsubr
            62 300 rmoveto
            67 callgsubr
            43 8 -65 -67 -11 0 -11 -1 -12 hvcurveto
            -6 -21 -21 -4 -30 hhcurveto
            273 176 rmoveto
            131 callsubr
            320 callsubr
            21 vhcurveto
            -5 -30 -6 -30 -9 -30 rrcurveto
            -123 -12 -114 -4 -77 vvcurveto
            -55 71 -70 56 70 50 82 98 31 vhcurveto
            79 8 75 5 48 7 return
          </CharString>
          <CharString index="155">
            8 8 9 8 28 -30 61 -19 -17 -18 -22 -19 -24 41 -41 27 hvcurveto
            return
          </CharString>
          <CharString index="156">
            1 hlineto
            28 57 37 31 68 hvcurveto
            return
          </CharString>
          <CharString index="157">
            vvcurveto
            -37 42 -29 40 38 58 19 27 13 -9 7 -12 vhcurveto
            -16 -14 -16 -28 hhcurveto
            -28 -15 8 15 return
          </CharString>
          <CharString index="158">
            -104 callsubr
            86 hlineto
            -22 return
          </CharString>
          <CharString index="159">
            183 133 31 vhcurveto
            return
          </CharString>
          <CharString index="160">
            149 callgsubr
            -35 -44 -53 -27 -52 323 callsubr
            -96 277 34 callgsubr
            27 -104 80 41 49 17 26 45 vhcurveto
            -1 -7 -1 -7 -6 vvcurveto
            return
          </CharString>
          <CharString index="161">
            126 callgsubr
            127 -107 callgsubr
          </CharString>
          <CharString index="162">
            6 callsubr
            -92 -67 -39 -59 -29 12 -25 22 -22 hvcurveto
            -75 -23 -52 -63 -77 vvcurveto
            -108 85 -62 132 42 28 11 17 11 -13 5 -36 -116 -69 43 83 72 62 48 80 82 26 -38 -71 -20 3 -19 13 25 5 39 28 68 -40 66 -116 vhcurveto
            -13 hlineto
            -18 16 -9 18 21 vvcurveto
            39 37 16 -30 callgsubr
            134 -107 callgsubr
          </CharString>
          <CharString index="163">
            -8 callsubr
            108 113 89 86 45 -26 22 -45 66 callgsubr
            -38 25 -22 43 return
          </CharString>
          <CharString index="164">
            136 -63 callgsubr
            215 hlineto
            -24 -19 -15 -27 -27 vvcurveto
            -18 6 -15 11 9 3 3 7 5 vhcurveto
            7 9 7 15 8 14 rrcurveto
            21 12 20 19 32 hhcurveto
            40 20 -35 -46 -59 -40 -50 -55 -33 hvcurveto
            7 -24 -27 4 -27 hhcurveto
            -35 -25 -10 -17 -17 25 -37 28 31 31 8 13 29 hvcurveto
            34 -17 21 -31 -38 vvcurveto
            -77 -73 -42 -98 -109 -75 44 83 vhcurveto
            45 24 12 26 vvcurveto
            12 -5 5 -12 -38 -27 -43 -50 -118 92 -68 147 139 91 75 96 return
          </CharString>
          <CharString index="165">
            -24 callgsubr
            -54 -3 -70 -8 -66 return
          </CharString>
          <CharString index="166">
            -19 -38 -17 -48 -13 -43 rrcurveto
            48 -23 -32 33 -43 hhcurveto
            -97 -57 -146 -59 -53 23 -33 49 47 57 21 37 45 hvcurveto
            -2 -13 -1 -15 -13 vvcurveto
            -23 4 -19 11 25 2 34 107 21 vhcurveto
            28 145 64 93 26 vvcurveto
            11 -5 9 -14 vhcurveto
            -24 -6 -16 -104 63 callsubr
            309 callgsubr
          </CharString>
          <CharString index="167">
            336 102 callsubr
            -95 -122 -184 -76 140 callgsubr
            hvcurveto
            -73 callgsubr
            307 -107 callsubr
            endchar
          </CharString>
          <CharString index="168">
            vvcurveto
            -59 64 -92 63 74 37 103 116 19 vhcurveto
            return
          </CharString>
          <CharString index="169">
            rmoveto
            31 -34 31 -11 -12 -1 -6 -19 vhcurveto
            -280 -120 -378 -41 vvcurveto
            -16 19 -25 13 11 15 45 74 20 vhcurveto
            61 226 39 207 151 vvcurveto
            endchar
          </CharString>
          <CharString index="170">
            hhcurveto
            -70 -32 15 44 66 101 111 64 48 14 -44 -4 24 hvcurveto
            2 hlineto
            1 0 1 hlineto
            15 1 4 10 16 12 -2 16 18 vvcurveto
            81 22 43 7 30 vhcurveto
            return
          </CharString>
          <CharString index="171">
            hhcurveto
            -114 -95 -40 -95 -121 114 -117 57 124 callsubr
            return
          </CharString>
          <CharString index="172">
            rmoveto
            161 callsubr
            -105 78 16 -146 28 hhcurveto
            11 8 6 10 19 -13 49 -19 53 hvcurveto
            234 callgsubr
            19 15 6 11 13 hvcurveto
            19 31 42 11 32 79 33 -58 18 hhcurveto
            6 3 4 11 36 -68 55 -76 hvcurveto
            endchar
          </CharString>
          <CharString index="173">
            -18 -81 -14 -75 -18 -84 rrcurveto
            45 -23 -46 51 -60 hhcurveto
            return
          </CharString>
          <CharString index="174">
            rmoveto
            177 callgsubr
            42 28 23 34 38 36 -35 -50 -34 -8 -31 -13 -28 vhcurveto
            -19 4 -24 6 -24 14 295 callsubr
            -11 -57 -13 -60 -13 -64 rrcurveto
            -110 -86 -148 -65 -136 hhcurveto
            128 80 94 122 121 vvcurveto
            85 -62 46 -62 -59 -50 -41 -68 -87 73 -59 71 -4 vhcurveto
            -67 -102 -127 -55 -26 vvcurveto
            -28 40 -33 29 118 130 49 83 94 vhcurveto
            return
          </CharString>
          <CharString index="175">
            108 -63 callgsubr
            return
          </CharString>
          <CharString index="176">
            437 -104 callsubr
            return
          </CharString>
          <CharString index="177">
            93 callsubr
            -38 -47 -22 -63 -7 hvcurveto
            51 19 25 39 39 hhcurveto
            return
          </CharString>
          <CharString index="178">
            -86 callsubr
            72 67 32 47 47 hvcurveto
            0 vlineto
            76 97 113 82 73 291 callsubr
            -118 -185 -83 290 callsubr
            108 134 59 93 87 vhcurveto
            -26 -123 -30 -117 124 callgsubr
          </CharString>
          <CharString index="179">
            rmoveto
            75 callsubr
            return
          </CharString>
          <CharString index="180">
            -121 114 -117 161 callgsubr
            return
          </CharString>
          <CharString index="181">
            -104 callsubr
            132 hlineto
            -10 -91 -95 -274 -106 vvcurveto
            -71 33 -39 99 105 112 28 39 14 -9 6 -15 vhcurveto
            -39 -33 -34 -123 hhcurveto
            -54 -15 16 47 100 93 275 8 90 hvcurveto
            189 hlineto
            16 -22 26 -33 -66 vvcurveto
            -79 -52 -61 -86 -22 -6 -8 -13 -11 13 -12 29 96 84 70 112 50 -13 43 -19 30 vhcurveto
            126 -107 callgsubr
          </CharString>
          <CharString index="182">
            114 callgsubr
            -76 -9 rrcurveto
            16 63 8 68 59 260 callsubr
            return
          </CharString>
          <CharString index="183">
            99 callgsubr
            38 -10 33 -19 24 vhcurveto
            1 83 90 3 66 hhcurveto
            return
          </CharString>
          <CharString index="184">
            -6 -30 -6 -31 -7 -32 -69 -162 -148 -107 -169 -9 rrcurveto
            return
          </CharString>
          <CharString index="185">
            -62 callsubr
            -103 -94 -56 -116 -12 hvcurveto
            24 -19 -20 18 -28 hhcurveto
            return
          </CharString>
          <CharString index="186">
            61 callgsubr
            22 vhcurveto
            -5 return
          </CharString>
          <CharString index="187">
            -12 -55 callgsubr
            22 23 return
          </CharString>
          <CharString index="188">
            127 155 77 rmoveto
            6 53 14 75 15 51 rrcurveto
            49 179 29 94 47 123 callgsubr
            18 630 rmoveto
            -12 -8 -5 -13 -17 19 -19 40 -11 hvcurveto
            -1 -5 0 -8 -10 -111 -116 -328 -83 150 callsubr
            vhcurveto
            return
          </CharString>
          <CharString index="189">
            79 8 75 5 48 7 -18 -87 -21 -86 47 callgsubr
            96 callgsubr
          </CharString>
          <CharString index="190">
            -104 callsubr
            74 hlineto
            -99 callsubr
            return
          </CharString>
          <CharString index="191">
            17 66 9 69 62 260 callsubr
            -60 -67 -95 -83 225 callgsubr
            return
          </CharString>
          <CharString index="192">
            -52 28 -42 79 23 22 3 4 return
          </CharString>
          <CharString index="193">
            hmoveto
            16 41 180 141 35 hvcurveto
            24 97 34 179 54 vvcurveto
            13 -23 22 -16 -9 -1 -4 -9 -46 -34 -193 -24 -109 vhcurveto
            -31 -140 -34 -135 -21 vvcurveto
            -12 8 -17 14 vhcurveto
            return
          </CharString>
          <CharString index="194">
            hhcurveto
            -34 -11 27 39 99 85 176 76 hvcurveto
            41 18 -82 28 hhcurveto
            10 5 7 16 33 -45 77 -47 return
          </CharString>
          <CharString index="195">
            vvcurveto
            -35 callgsubr
            23 return
          </CharString>
          <CharString index="196">
            -72 210 callsubr
            27 113 113 25 vhcurveto
            215 return
          </CharString>
          <CharString index="197">
            -24 11 169 callsubr
            return
          </CharString>
          <CharString index="198">
            138 callgsubr
            258 callgsubr
            264 150 16 callsubr
            -77 -65 -71 -84 -37 hvcurveto
            -38 -67 -130 -76 -151 hhcurveto
            142 81 94 138 114 vvcurveto
            85 -65 46 -62 return
          </CharString>
          <CharString index="199">
            -13 40 48 -6 46 hhcurveto
            128 124 51 60 46 -52 62 -49 -61 -81 -71 -96 -54 hvcurveto
            135 callgsubr
          </CharString>
          <CharString index="200">
            rmoveto
            16 11 -8 -15 return
          </CharString>
          <CharString index="201">
            rmoveto
            122 180 128 24 vvcurveto
            13 -17 20 -18 -24 -124 -142 -253 -172 vhcurveto
            69 216 55 241 151 vvcurveto
            33 -21 34 -16 -16 -4 -6 -21 vhcurveto
            -291 -128 -342 -57 vvcurveto
            -20 16 -28 13 19 25 29 146 113 vhcurveto
            -3 0 -4 -4 vvcurveto
            -91 111 -73 52 12 16 3 14 vhcurveto
            28 -141 28 105 vvcurveto
            endchar
          </CharString>
          <CharString index="202">
            124 -107 callgsubr
          </CharString>
          <CharString index="203">
            52 46 33 64 64 43 callsubr
            return
          </CharString>
          <CharString index="204">
            rmoveto
            -9 -2 -6 -19 -14 hvcurveto
            -342 -479 -130 -187 -31 vvcurveto
            -11 16 -22 6 15 19 28 296 199 vhcurveto
            93 138 174 191 51 vvcurveto
            21 -16 30 -9 vhcurveto
            return
          </CharString>
          <CharString index="205">
            hhcurveto
            -25 -10 9 23 return
          </CharString>
          <CharString index="206">
            125 callgsubr
            148 -107 callsubr
            endchar
          </CharString>
          <CharString index="207">
            rmoveto
            -8 5 -2 10 29 97 272 callgsubr
            -18 -18 -13 -19 -28 42 18 4 -40 vhcurveto
            -3 -45 -82 -33 -24 vvcurveto
            return
          </CharString>
          <CharString index="208">
            rmoveto
            6 6 -1 6 hhcurveto
            -7 -24 -5 -24 -3 -22 -5 -18 -10 -18 -13 -15 -28 32 -29 37 -23 37 rrcurveto
            11 32 37 5 35 hhcurveto
            -197 581 -104 callsubr
            397 -47 callgsubr
            -105 -150 -196 -91 -37 20 -29 33 -19 hvcurveto
            -65 -19 -55 -46 -69 vvcurveto
            return
          </CharString>
          <CharString index="209">
            hlineto
            66 callsubr
            return
          </CharString>
          <CharString index="210">
            238 -13 callsubr
            return
          </CharString>
          <CharString index="211">
            2 hlineto
            14 2 4 return
          </CharString>
          <CharString index="212">
            180 callgsubr
            68 92 rmoveto
            59 48 -2 35 hhcurveto
            44 17 3 11 36 -136 0 -89 -134 -152 -20 -84 -76 112 -124 74 72 33 82 80 32 -1 37 -7 25 hvcurveto
            -245 308 -104 callsubr
            return
          </CharString>
          <CharString index="213">
            rmoveto
            -43 29 -35 39 52 37 58 44 43 -29 35 -39 -52 -37 -58 -44 vhcurveto
            110 18 rmoveto
            -32 -19 -21 -18 -16 -11 17 21 32 20 22 17 16 11 -17 -22 vhcurveto
            endchar
          </CharString>
          <CharString index="214">
            -14 vhcurveto
            14 -5 -7 8 -15 hhcurveto
            return
          </CharString>
          <CharString index="215">
            vvcurveto
            11 -6 6 -13 vhcurveto
            return
          </CharString>
          <CharString index="216">
            rmoveto
            204 callsubr
            66 -86 -12 74 -32 hhcurveto
            -12 -11 -11 -16 -55 131 -113 19 hvcurveto
            return
          </CharString>
          <CharString index="217">
            vvcurveto
            140 callgsubr
            vhcurveto
            -73 callgsubr
            return
          </CharString>
          <CharString index="218">
            146 callsubr
            -119 -116 -188 -137 -65 26 -51 64 73 113 60 57 57 hvcurveto
            -23 callsubr
          </CharString>
          <CharString index="219">
            88 callsubr
            -76 82 -2 return
          </CharString>
          <CharString index="220">
            0 -59 -79 callsubr
            return
          </CharString>
          <CharString index="221">
            -95 rrcurveto
            -310 -65 176 callsubr
            -108 return
          </CharString>
          <CharString index="222">
            hhcurveto
            -95 -110 14 callgsubr
            return
          </CharString>
          <CharString index="223">
            -89 callgsubr
            79 54 -5 31 hhcurveto
            return
          </CharString>
          <CharString index="224">
            75 270 408 rmoveto
            -2 hlineto
            -54 -80 24 31 35 124 66 274 callsubr
            -11 -61 -14 -65 -15 -68 rrcurveto
            -98 -61 -140 -95 -138 hhcurveto
            -10 -5 4 8 25 33 44 49 37 hvcurveto
            16 13 69 41 18 108 callsubr
            return
          </CharString>
          <CharString index="225">
            -37 callgsubr
            -122 -90 -176 -126 -2 callsubr
            hvcurveto
            -3 -81 -25 -40 -27 32 callgsubr
            39 52 callsubr
            20 86 30 134 4 40 rrcurveto
            117 -107 callgsubr
          </CharString>
          <CharString index="226">
            588 88 callgsubr
            return
          </CharString>
          <CharString index="227">
            42 callgsubr
            62 return
          </CharString>
          <CharString index="228">
            80 -32 callgsubr
            return
          </CharString>
          <CharString index="229">
            hvcurveto
            -1 vlineto
            -8 6 14 -10 -56 callgsubr
            return
          </CharString>
          <CharString index="230">
            -5 rrcurveto
            96 callsubr
            return
          </CharString>
          <CharString index="231">
            197 callgsubr
            hvcurveto
            35 -141 26 152 vvcurveto
            66 70 27 100 return
          </CharString>
          <CharString index="232">
            87 callsubr
            -122 -97 -193 -132 -65 26 -51 64 return
          </CharString>
          <CharString index="233">
            199 89 callgsubr
            return
          </CharString>
          <CharString index="234">
            vvcurveto
            14 16 5 24 93 286 callsubr
            return
          </CharString>
          <CharString index="235">
            rrcurveto
            -78 -47 -111 -67 -17 vvcurveto
            -10 9 -7 10 return
          </CharString>
          <CharString index="236">
            476 -104 callsubr
            return
          </CharString>
          <CharString index="237">
            hhcurveto
            -2 0 hlineto
            -16 -17 1 -19 hhcurveto
            -169 -281 -23 -173 -119 120 -75 272 callsubr
            35 -147 26 108 vvcurveto
            return
          </CharString>
          <CharString index="238">
            114 callgsubr
            -77 -10 rrcurveto
            17 68 8 71 52 260 callsubr
            return
          </CharString>
          <CharString index="239">
            -54 289 502 -53 callgsubr
            return
          </CharString>
          <CharString index="240">
            79 callgsubr
            -32 19 -24 29 -19 hvcurveto
            -119 -23 -72 -88 250 callsubr
            101 78 78 107 12 13 -1 -2 14 vhcurveto
            return
          </CharString>
          <CharString index="241">
            -248 114 636 rmoveto
            -49 -33 0 -21 -22 51 -5 85 hvcurveto
            15 hlineto
            -16 -83 -20 198 callgsubr
            return
          </CharString>
          <CharString index="242">
            -10 6 -11 -31 hhcurveto
            -47 -16 50 23 -17 hvcurveto
            7 -5 -7 6 -10 hhcurveto
            -9 -9 -15 -13 -3 0 -4 1 -3 hvcurveto
            -34 -8 -54 -52 -42 hhcurveto
            -18 -24 7 9 -20 hvcurveto
            2 8 21 91 30 138 4 31 rlinecurve
            379 -107 callgsubr
          </CharString>
          <CharString index="243">
            642 -7 callsubr
            return
          </CharString>
          <CharString index="244">
            hlineto
            -10 -56 -13 -59 -13 -61 rrcurveto
            -39 -41 -62 -27 -63 -40 -30 22 -28 hhcurveto
            -12 -8 -6 -12 hvcurveto
            return
          </CharString>
          <CharString index="245">
            vvcurveto
            -27 38 -33 23 112 146 58 105 92 vhcurveto
            -3 -14 return
          </CharString>
          <CharString index="246">
            151 50 88 38 14 -18 15 -12 return
          </CharString>
          <CharString index="247">
            51 27 73 37 57 vhcurveto
            return
          </CharString>
          <CharString index="248">
            3 0 3 4 vvcurveto
            67 -32 101 -79 -125 -150 -240 -130 -57 52 -58 63 40 54 29 41 50 vhcurveto
            -147 -46 -15 -131 -73 -100 -11 92 -33 hhcurveto
            -9 -9 -20 -11 -47 62 -63 103 139 -8 218 208 94 hvcurveto
            26 36 17 37 30 vvcurveto
            return
          </CharString>
          <CharString index="249">
            51 callsubr
            -64 -20 -86 -77 vvcurveto
            -91 26 -84 83 30 30 7 11 29 vhcurveto
            -92 -96 -117 -138 -24 vvcurveto
            -8 4 -4 8 18 60 70 96 82 vhcurveto
            58 68 98 89 26 vvcurveto
            1 298 callsubr
            -5 5 -10 return
          </CharString>
          <CharString index="250">
            hlineto
            -99 callsubr
            hvcurveto
            return
          </CharString>
          <CharString index="251">
            -73 0 86 -25 hhcurveto
            -15 -17 -16 -26 -42 65 -53 54 64 75 54 34 13 -5 6 -14 hvcurveto
            return
          </CharString>
          <CharString index="252">
            20 139 258 rmoveto
            37 22 60 32 47 vhcurveto
            36 -50 50 -61 45 -46 rrcurveto
            -28 -49 -50 -14 -41 hhcurveto
            -34 -11 16 39 hvcurveto
            269 53 rmoveto
            -16 -17 -18 -15 -17 -13 -42 51 -54 69 -35 55 rrcurveto
            17 18 19 10 19 hhcurveto
            38 56 -76 -81 32 hvcurveto
            return
          </CharString>
          <CharString index="253">
            hlineto
            -1 -4 -25 -116 -14 -77 -19 -84 rlinecurve
            102 -19 -37 100 -69 hhcurveto
            return
          </CharString>
          <CharString index="254">
            vhcurveto
            148 -107 callgsubr
          </CharString>
          <CharString index="255">
            -23 callgsubr
            -105 78 16 -146 28 hhcurveto
            11 8 6 10 19 -13 49 -19 53 hvcurveto
            234 callgsubr
            72 30 94 85 return
          </CharString>
          <CharString index="256">
            -33 -19 18 41 77 38 92 89 31 vhcurveto
            11 4 11 2 6 vvcurveto
            10 -32 19 -17 -69 -87 -118 -119 -63 30 -52 70 return
          </CharString>
          <CharString index="257">
            vvcurveto
            -41 29 -41 26 147 301 209 132 188 -252 163 -173 return
          </CharString>
          <CharString index="258">
            410 -104 callsubr
            return
          </CharString>
          <CharString index="259">
            -104 callsubr
            59 hlineto
            return
          </CharString>
          <CharString index="260">
            -47 -80 113 callsubr
            return
          </CharString>
          <CharString index="261">
            -20 -86 -16 164 callgsubr
            return
          </CharString>
          <CharString index="262">
            hlineto
            -87 -51 25 34 72 145 118 65 42 19 -31 -4 24 hvcurveto
            2 318 callsubr
            1 1 0 1 hhcurveto
            14 3 5 15 18 vvcurveto
            92 11 29 2 30 vhcurveto
            154 -107 callgsubr
          </CharString>
          <CharString index="263">
            161 callgsubr
            vhcurveto
            return
          </CharString>
          <CharString index="264">
            126 callsubr
            -395 -271 rmoveto
            80 140 47 79 vhcurveto
            6 6 -1 6 hhcurveto
            -12 -41 -6 -41 -1 -32 rrcurveto
            -39 -41 -51 -20 -54 hhcurveto
            -43 -29 13 34 hvcurveto
            return
          </CharString>
          <CharString index="265">
            588 rmoveto
            181 callgsubr
            return
          </CharString>
          <CharString index="266">
            101 83 43 67 72 -70 89 -76 return
          </CharString>
          <CharString index="267">
            vvcurveto
            -68 62 -82 61 77 60 90 return
          </CharString>
          <CharString index="268">
            -19 -20 -2 -5 -18 hvcurveto
            8 28 4 32 31 vvcurveto
            206 callgsubr
            return
          </CharString>
          <CharString index="269">
            417 343 rmoveto
            179 callsubr
            return
          </CharString>
          <CharString index="270">
            28 6 71 86 17 -3 16 -6 13 hvcurveto
            return
          </CharString>
          <CharString index="271">
            130 289 372 rmoveto
            10 75 3 78 56 288 callsubr
            -152 -205 rmoveto
            -32 -53 38 39 37 66 18 88 15 hvcurveto
            -83 -13 -22 -64 -34 hhcurveto
            return
          </CharString>
          <CharString index="272">
            -32 24 122 callsubr
            return
          </CharString>
          <CharString index="273">
            -1 rrcurveto
            47 21 -22 -53 168 callsubr
            4 -7 -7 3 -6 273 callsubr
            return
          </CharString>
          <CharString index="274">
            rmoveto
            108 35 83 146 37 hhcurveto
            26 5 -95 -78 -25 -1 -28 -3 -28 hvcurveto
            return
          </CharString>
          <CharString index="275">
            -99 -91 -97 -121 -26 -17 22 12 -20 hvcurveto
            return
          </CharString>
          <CharString index="276">
            -30 hhcurveto
            -12 -8 -10 -12 hvcurveto
            return
          </CharString>
          <CharString index="277">
            84 callsubr
            113 37 vhcurveto
            return
          </CharString>
          <CharString index="278">
            86 68 callsubr
            411 hlineto
            -19 -41 -18 -60 -5 -39 rrcurveto
            -4 hlineto
            -64 -47 -31 -52 -29 hvcurveto
            43 -5 -32 42 -69 hhcurveto
            -116 -61 -104 -120 -111 60 -103 return
          </CharString>
          <CharString index="279">
            -246 176 callsubr
            -109 -50 18 vhcurveto
            -34 -77 -77 -25 -56 98 callsubr
            hvcurveto
            return
          </CharString>
          <CharString index="280">
            788 rmoveto
            32 52 63 36 70 hvcurveto
            261 callsubr
            -19 -42 -29 -27 -47 hvcurveto
            -49 -28 -19 -18 -26 vvcurveto
            -16 14 -7 11 vhcurveto
            return
          </CharString>
          <CharString index="281">
            vhcurveto
            6 29 9 39 12 38 rrcurveto
            87 12 74 38 66 vvcurveto
            43 -22 29 -49 return
          </CharString>
          <CharString index="282">
            rmoveto
            9 11 10 5 27 -35 319 callsubr
            return
          </CharString>
          <CharString index="283">
            rmoveto
            105 callgsubr
            45 26 return
          </CharString>
          <CharString index="284">
            -24 31 -26 23 return
          </CharString>
          <CharString index="285">
            726 rmoveto
            -32 callsubr
            31 -26 -9 15 -26 hhcurveto
            return
          </CharString>
          <CharString index="286">
            0 298 callsubr
            3 5 5 6 vvcurveto
            20 -25 10 -49 vhcurveto
            -146 268 callgsubr
            -33 22 hvcurveto
            63 56 -1 55 hhcurveto
            -64 -37 -51 -59 -59 vvcurveto
            -60 38 -36 77 return
          </CharString>
          <CharString index="287">
            71 160 29 callsubr
            return
          </CharString>
          <CharString index="288">
            hhcurveto
            -47 -71 -33 -39 -68 hvcurveto
            283 callgsubr
            return
          </CharString>
          <CharString index="289">
            75 callsubr
            -28 -29 -21 -30 -24 vhcurveto
            1 -5 -7 0 -7 hhcurveto
            return
          </CharString>
          <CharString index="290">
            34 -4 -21 23 -41 hhcurveto
            -84 -35 -69 -79 -72 39 -66 72 25 17 7 17 13 -14 5 -27 -37 -31 38 56 63 22 43 51 21 13 -12 -22 -42 -19 -34 25 hvcurveto
            44 -9 113 85 hhcurveto
            return
          </CharString>
          <CharString index="291">
            -20 vvcurveto
            -35 callgsubr
            return
          </CharString>
          <CharString index="292">
            rmoveto
            -36 -44 42 32 37 75 6 99 10 hvcurveto
            -72 -25 -35 -55 -34 hhcurveto
            return
          </CharString>
          <CharString index="293">
            -106 callsubr
            102 hlineto
            -12 -54 -10 -50 -11 -53 return
          </CharString>
          <CharString index="294">
            -3 324 callgsubr
            5 -2 10 return
          </CharString>
          <CharString index="295">
            -106 callsubr
            314 hlineto
            -27 -199 -88 -312 -44 vvcurveto
            -10 13 -11 12 20 92 347 229 29 vhcurveto
            233 callgsubr
            return
          </CharString>
          <CharString index="296">
            136 callgsubr
            -159 -204 -80 -29 vvcurveto
            -27 38 -33 23 return
          </CharString>
          <CharString index="297">
            vvcurveto
            192 callgsubr
            return
          </CharString>
          <CharString index="298">
            227 callsubr
            96 -107 callgsubr
          </CharString>
          <CharString index="299">
            -37 197 callsubr
            return
          </CharString>
          <CharString index="300">
            -269 rmoveto
            -45 -15 -50 -40 -50 -71 64 52 41 77 14 91 4 vhcurveto
            3 -15 5 -10 -55 vvcurveto
            return
          </CharString>
          <CharString index="301">
            hlineto
            -4 -21 -4 -27 -7 -22 -7 -22 -6 -16 -5 -12 return
          </CharString>
          <CharString index="302">
            -28 -48 -38 -84 hhcurveto
            -56 -43 return
          </CharString>
          <CharString index="303">
            vvcurveto
            -66 15 -49 43 return
          </CharString>
          <CharString index="304">
            90 callsubr
            0 vlineto
            -1 vlineto
            -26 50 -15 -27 vvcurveto
            -49 -106 -63 -94 -33 -19 18 41 77 38 92 89 31 vhcurveto
            11 4 11 2 6 vvcurveto
            10 -32 19 -17 return
          </CharString>
          <CharString index="305">
            rrcurveto
            101 callgsubr
            -142 48 34 callgsubr
            24 -84 83 return
          </CharString>
          <CharString index="306">
            vvcurveto
            -65 58 -68 107 28 29 4 7 29 vhcurveto
            -68 -36 -77 -47 -94 return
          </CharString>
          <CharString index="307">
            -15 -55 callgsubr
            return
          </CharString>
          <CharString index="308">
            80 callsubr
            82 94 22 vhcurveto
            137 55 131 68 24 vvcurveto
            12 -6 3 -11 -15 -106 -56 -50 -118 vhcurveto
            19 84 21 92 30 136 4 32 rlinecurve
            return
          </CharString>
          <CharString index="309">
            165 callsubr
            117 -107 callgsubr
          </CharString>
          <CharString index="310">
            rmoveto
            -25 -15 15 23 58 98 138 52 42 44 -64 -50 26 hvcurveto
            -68 -72 -105 -52 -45 hhcurveto
            return
          </CharString>
          <CharString index="311">
            20 28 35 29 39 hvcurveto
            43 32 48 15 30 vvcurveto
            12 -9 8 -16 229 callsubr
            vhcurveto
            return
          </CharString>
          <CharString index="312">
            502 12 callsubr
            return
          </CharString>
          <CharString index="313">
            -11 -17 -59 75 -64 112 105 68 60 70 hvcurveto
            125 -255 -10 39 vvcurveto
            33 118 41 39 vhcurveto
            33 24 -17 17 hhcurveto
            18 9 11 25 79 10 28 5 23 hvcurveto
            return
          </CharString>
          <CharString index="314">
            219 callsubr
            41 20 31 88 hvcurveto
            return
          </CharString>
          <CharString index="315">
            rmoveto
            292 callsubr
            -77 71 -64 61 12 4 5 6 hvcurveto
            27 -96 14 89 vvcurveto
            64 49 32 68 vhcurveto
            endchar
          </CharString>
          <CharString index="316">
            -31 callsubr
            -27 9 -16 hhcurveto
            return
          </CharString>
          <CharString index="317">
            200 callsubr
            26 return
          </CharString>
          <CharString index="318">
            -65 -54 -66 -85 -65 vvcurveto
            -35 28 -19 43 return
          </CharString>
          <CharString index="319">
            -249 -84 callgsubr
            return
          </CharString>
          <CharString index="320">
            128 callsubr
            11 92 53 57 93 vhcurveto
            56 35 57 36 38 27 rrcurveto
            310 callgsubr
            -100 -18 -91 callsubr
            return
          </CharString>
          <CharString index="321">
            -4 324 callgsubr
            6 -2 10 28 98 52 77 return
          </CharString>
          <CharString index="322">
            206 741 rmoveto
            54 -41 30 -40 -22 -21 -15 -21 vhcurveto
            -35 59 18 -55 -73 -101 -39 -27 vvcurveto
            -9 5 -3 13 32 116 82 93 vhcurveto
            endchar
          </CharString>
          <CharString index="323">
            196 634 -196 hlineto
            236 -185 rmoveto
            196 185 -196 hlineto
            return
          </CharString>
          <CharString index="324">
            328 rmoveto
            -28 callsubr
            return
          </CharString>
          <CharString index="325">
            hlineto
            -1 -6 334 callgsubr
            return
          </CharString>
          <CharString index="326">
            -23 -7 -21 -42 hhcurveto
            -56 -35 65 93 108 81 92 90 53 19 -54 -40 hvcurveto
            -53 -15 -14 -27 vvcurveto
            -11 6 -9 11 vhcurveto
            157 callgsubr
            22 return
          </CharString>
          <CharString index="327">
            8 callgsubr
            -148 -440 rmoveto
            -32 -44 58 39 41 68 18 85 8 hvcurveto
            -91 -15 -24 -73 -38 hhcurveto
            return
          </CharString>
          <CharString index="328">
            382 324 rmoveto
            13 -20 7 -32 -55 -220 -31 -29 -12 21 -19 15 21 37 9 15 77 vhcurveto
            136 27 20 4 16 vvcurveto
            endchar
          </CharString>
          <CharString index="329">
            -4 24 -11 41 -16 44 rrcurveto
            234 callgsubr
            return
          </CharString>
          <CharString index="330">
            hhcurveto
            140 92 111 181 114 vvcurveto
            12 -1 return
          </CharString>
          <CharString index="331">
            31 -26 -9 15 -26 hhcurveto
            return
          </CharString>
          <CharString index="332">
            521 206 rmoveto
            -60 -276 -218 -41 318 callgsubr
            64 70 65 88 hvcurveto
            69 51 95 55 18 vvcurveto
            9 -5 4 -10 vhcurveto
            return
          </CharString>
          <CharString index="333">
            5 hhcurveto
            21 42 183 133 31 hvcurveto
            -103 callgsubr
            116 -107 callgsubr
          </CharString>
          <CharString index="334">
            -1 -4 -97 callsubr
            return
          </CharString>
          <CharString index="335">
            -92 -48 24 43 74 122 152 76 return
          </CharString>
          <CharString index="336">
            -18 -53 -28 -78 -79 return
          </CharString>
          <CharString index="337">
            794 rmoveto
            288 callgsubr
            -47 -73 -5 -16 -14 26 -26 27 vhcurveto
            return
          </CharString>
          <CharString index="338">
            hlineto
            -12 -44 -10 -78 -25 -100 rrcurveto
            76 -29 -45 72 -49 hhcurveto
            -107 -77 -161 -90 -65 26 -35 64 65 65 17 44 57 hvcurveto
            -9 return
          </CharString>
          <CharString index="339">
            485 -104 callsubr
            return
          </CharString>
          <CharString index="340">
            45 37 18 55 84 44 -56 -38 -21 -48 -30 -53 return
          </CharString>
          <CharString index="341">
            230 callgsubr
            vvcurveto
            return
          </CharString>
          <CharString index="342">
            17 callgsubr
            -56 hmoveto
            return
          </CharString>
          <CharString index="343">
            73 callgsubr
            endchar
          </CharString>
          <CharString index="344">
            vvcurveto
            -8 4 -5 10 return
          </CharString>
          <CharString index="345">
            -8 331 callgsubr
            return
          </CharString>
          <CharString index="346">
            -14 vvcurveto
            -22 20 -19 13 15 38 146 117 30 vhcurveto
            60 233 25 170 32 vvcurveto
            33 -25 34 -17 vhcurveto
            return
          </CharString>
          <CharString index="347">
            588 248 callgsubr
            return
          </CharString>
          <CharString index="348">
            hlineto
            -7 -15 -3 -17 -17 199 callsubr
            -63 -25 55 -31 hhcurveto
            return
          </CharString>
          <CharString index="349">
            -90 -156 -158 -114 -41 26 -35 47 9 10 1 1 return
          </CharString>
          <CharString index="350">
            rmoveto
            163 callsubr
            return
          </CharString>
          <CharString index="351">
            vvcurveto
            67 -45 36 -58 -92 -67 -62 -82 return
          </CharString>
          <CharString index="352">
            vvcurveto
            43 -22 29 -49 -66 return
          </CharString>
          <CharString index="353">
            -42 callgsubr
            -72 -61 -62 -76 -38 hvcurveto
            19 -44 -79 13 -77 hhcurveto
            return
          </CharString>
          <CharString index="354">
            283 22 callgsubr
            return
          </CharString>
          <CharString index="355">
            319 136 callsubr
            return
          </CharString>
          <CharString index="356">
            122 -63 callgsubr
            return
          </CharString>
          <CharString index="357">
            -104 22 callsubr
            return
          </CharString>
          <CharString index="358">
            rmoveto
            3 -22 8 -33 -51 vvcurveto
            -134 -85 -115 -94 -38 -16 44 67 115 44 84 16 45 vhcurveto
            return
          </CharString>
          <CharString index="359">
            hlineto
            -24 -54 -30 -88 -93 vvcurveto
            -96 29 -72 71 146 96 163 186 20 -7 19 -10 15 vhcurveto
            return
          </CharString>
          <CharString index="360">
            235 callgsubr
            -38 25 -22 43 return
          </CharString>
          <CharString index="361">
            -1 hlineto
            -2 hlineto
            return
          </CharString>
          <CharString index="362">
            165 -26 callsubr
            return
          </CharString>
          <CharString index="363">
            584 rmoveto
            -25 -116 -14 -77 -19 -84 rrcurveto
            102 -19 -37 100 -69 hhcurveto
            -75 -74 -75 -90 -45 hvcurveto
            return
          </CharString>
          <CharString index="364">
            100 67 94 95 301 callsubr
            return
          </CharString>
          <CharString index="365">
            -21 -29 6 -15 hhcurveto
            -9 -5 -4 -8 -20 45 -18 35 return
          </CharString>
          <CharString index="366">
            54 -8 46 -25 -14 -10 -7 -16 return
          </CharString>
          <CharString index="367">
            vvcurveto
            65 -17 93 -88 return
          </CharString>
          <CharString index="368">
            -45 35 34 -64 33 hhcurveto
            14 9 6 11 18 -32 38 -35 42 hvcurveto
            224 callsubr
            return
          </CharString>
          <CharString index="369">
            rmoveto
            -62 -86 -65 -79 -11 -11 2 2 -10 vhcurveto
            75 46 79 73 46 hhcurveto
            17 9 -8 -17 hvcurveto
            return
          </CharString>
          <CharString index="370">
            -74 -15 -56 -30 -12 6 -20 hhcurveto
            -13 -4 -5 -9 -24 40 -16 40 73 91 21 36 76 hvcurveto
            return
          </CharString>
          <CharString index="371">
            8 -27 12 -24 hvcurveto
            endchar
          </CharString>
          <CharString index="372">
            rmoveto
            -30 -21 38 26 29 20 12 50 18 15 -2 -3 17 hvcurveto
            -55 -15 -24 -45 -30 hhcurveto
            return
          </CharString>
          <CharString index="373">
            115 -107 callsubr
            return
          </CharString>
          <CharString index="374">
            471 -104 callsubr
            return
          </CharString>
          <CharString index="375">
            304 callsubr
            77 -59 73 -1 vhcurveto
            return
          </CharString>
          <CharString index="376">
            rmoveto
            63 57 35 53 42 15 -25 -30 return
          </CharString>
          <CharString index="377">
            rmoveto
            -30 -14 42 23 29 21 27 29 return
          </CharString>
          <CharString index="378">
            4 -31 hhcurveto
            -13 -8 -2 -7 -11 26 return
          </CharString>
          <CharString index="379">
            161 callgsubr
            hvcurveto
            return
          </CharString>
          <CharString index="380">
            hhcurveto
            -12 -9 -6 -12 return
          </CharString>
          <CharString index="381">
            70 callgsubr
            163 hlineto
            return
          </CharString>
          <CharString index="382">
            286 callgsubr
            -526 -260 rmoveto
            -28 callsubr
            return
          </CharString>
          <CharString index="383">
            -42 callgsubr
            -75 -63 -67 -80 -37 hvcurveto
            return
          </CharString>
          <CharString index="384">
            -83 callsubr
            endchar
          </CharString>
          <CharString index="385">
            -12 -11 -14 -18 return
          </CharString>
          <CharString index="386">
            -164 -46 -36 -115 vhcurveto
            -1 10 -1 10 9 vvcurveto
            90 29 40 11 19 vhcurveto
            return
          </CharString>
          <CharString index="387">
            199 185 callgsubr
            return
          </CharString>
          <CharString index="388">
            160 185 callsubr
            return
          </CharString>
          <CharString index="389" raw="1">
            85230a0b   
          </CharString>
          <CharString index="390">
            11 27 119 123 98 return
          </CharString>
          <CharString index="391">
            156 callsubr
            35 return
          </CharString>
          <CharString index="392">
            -458 219 callgsubr
            return
          </CharString>
          <CharString index="393">
            57 -51 -5 23 vhcurveto
            return
          </CharString>
          <CharString index="394">
            hmoveto
            -85 callgsubr
            return
          </CharString>
          <CharString index="395">
            vvcurveto
            7 267 vlineto
            148 callgsubr
            -60 -42 -7 -93 -20 -83 -12 rrcurveto
            return
          </CharString>
          <CharString index="396">
            128 callgsubr
            -91 return
          </CharString>
          <CharString index="397">
            -32 vvcurveto
            177 callsubr
            return
          </CharString>
          <CharString index="398">
            hhcurveto
            36 16 -18 -39 hvcurveto
            return
          </CharString>
          <CharString index="399">
            46 callsubr
            -99 -65 -62 -82 return
          </CharString>
          <CharString index="400">
            vvcurveto
            52 -69 79 -103 -86 -48 -49 -60 -65 65 -55 85 vhcurveto
            4 hlineto
            -32 return
          </CharString>
          <CharString index="401">
            vvcurveto
            -88 132 -93 45 16 6 7 10 vhcurveto
            27 -145 47 92 vvcurveto
            return
          </CharString>
          <CharString index="402">
            rrcurveto
            263 150 152 callsubr
            return
          </CharString>
          <CharString index="403">
            -11 -52 80 callsubr
            return
          </CharString>
          <CharString index="404">
            -24 -42 hhcurveto
            -25 -11 13 27 hvcurveto
            77 153 144 23 vvcurveto
            13 return
          </CharString>
          <CharString index="405">
            vlineto
            0 vlineto
            9 return
          </CharString>
          <CharString index="406">
            260 callgsubr
            -50 53 -25 53 vhcurveto
            7 hlineto
            return
          </CharString>
          <CharString index="407">
            rrcurveto
            123 -107 callgsubr
          </CharString>
          <CharString index="408">
            120 vvcurveto
            37 -9 31 -19 21 vhcurveto
            return
          </CharString>
          <CharString index="409">
            284 callsubr
            -141 return
          </CharString>
          <CharString index="410" raw="1">
            f7980a6f 6e0b  
          </CharString>
          <CharString index="411">
            292 callgsubr
            -90 return
          </CharString>
          <CharString index="412">
            111 -63 callgsubr
            return
          </CharString>
          <CharString index="413">
            hlineto
            259 callgsubr
            return
          </CharString>
          <CharString index="414">
            -90 77 -59 73 -1 vhcurveto
            -66 -116 -136 -56 -27 vvcurveto
            return
          </CharString>
          <CharString index="415">
            322 callgsubr
            endchar
          </CharString>
          <CharString index="416">
            29 97 52 77 return
          </CharString>
          <CharString index="417">
            -104 callsubr
            345 hlineto
            return
          </CharString>
          <CharString index="418">
            rrcurveto
            136 -107 callsubr
            return
          </CharString>
          <CharString index="419">
            rmoveto
            -18 -11 -2 -4 -7 hvcurveto
            37 -25 -41 19 -40 hhcurveto
            return
          </CharString>
          <CharString index="420">
            rmoveto
            109 41 30 13 15 vvcurveto
            9 -5 4 -11 -14 return
          </CharString>
          <CharString index="421">
            8 5 11 11 vvcurveto
            75 -220 106 -69 1 vhcurveto
            -14 return
          </CharString>
          <CharString index="422">
            rmoveto
            -7 -5 0 -1 -5 hvcurveto
            1 -6 -5 0 -7 hhcurveto
            return
          </CharString>
          <CharString index="423">
            hlineto
            285 callgsubr
            return
          </CharString>
          <CharString index="424">
            vvcurveto
            -21 21 -22 13 return
          </CharString>
          <CharString index="425">
            hlineto
            157 callgsubr
            return
          </CharString>
          <CharString index="426">
            86 -22 -19 -22 -30 return
          </CharString>
          <CharString index="427">
            -60 -67 -95 -83 85 callsubr
            return
          </CharString>
          <CharString index="428">
            399 -104 callsubr
            return
          </CharString>
          <CharString index="429">
            vlineto
            285 callgsubr
            -37 hvcurveto
            endchar
          </CharString>
          <CharString index="430">
            hhcurveto
            -41 -16 79 66 hvcurveto
            return
          </CharString>
          <CharString index="431">
            -20 -94 -23 -95 -11 -53 return
          </CharString>
          <CharString index="432">
            39 -34 85 -70 return
          </CharString>
          <CharString index="433">
            rrcurveto
            6 19 3 21 22 vvcurveto
            68 -38 77 -75 return
          </CharString>
          <CharString index="434">
            25 26 -18 19 -26 -25 -19 -19 -26 -25 19 return
          </CharString>
          <CharString index="435">
            -109 -192 -146 -103 -52 46 -35 89 return
          </CharString>
          <CharString index="436">
            -13 -4 -6 -9 -20 73 -16 110 -41 hvcurveto
            return
          </CharString>
          <CharString index="437">
            -44 323 callgsubr
            return
          </CharString>
          <CharString index="438">
            hlineto
            -54 -60 -41 -76 -63 vvcurveto
            return
          </CharString>
          <CharString index="439">
            vvcurveto
            -22 32 -27 25 return
          </CharString>
          <CharString index="440">
            vhcurveto
            25 -38 -65 return
          </CharString>
          <CharString index="441">
            -48 66 -96 133 -46 86 1 3 rcurveline
            return
          </CharString>
          <CharString index="442" raw="1">
            77f80df7 5be80a0b  
          </CharString>
          <CharString index="443">
            -33 -5 -34 2 -15 vvcurveto
            -14 29 -16 23 return
          </CharString>
        <CharString name=".notdef">
          244 180 hmoveto
          390 701 -390 hlineto
          54 -50 rmoveto
          282 -601 -282 hlineto
          endchar
        </CharString>
        <CharString name="A">
          90 215 324 -95 callsubr
        </CharString>
        <CharString name="AE">
          288 407 364 rmoveto
          -85 -11 -85 -12 -52 -11 62 144 55 132 13 14 11 12 54 5 83 2 rrcurveto
          -83 -27 -99 -29 -93 vhcurveto
          -239 -82 rmoveto
          21 50 13 14 121 hvcurveto
          31 4 rlineto
          -28 -90 -26 -80 -52 240 callgsubr
          31 28 87 29 98 hvcurveto
          166 19 82 11 15 vvcurveto
          14 -9 10 -25 -33 -79 -7 -10 -87 vhcurveto
          27 93 24 95 61 vvcurveto
          7 0 6 -1 6 vhcurveto
          52 hlineto
          155 46 11 15 15 -26 7 -239 -127 -106 -8 -48 -23 hvcurveto
          -20 -43 -52 -124 -47 -115 rrcurveto
          -63 -158 -61 -122 -20 vvcurveto
          -22 8 -16 19 21 47 129 141 60 vhcurveto
          endchar
        </CharString>
        <CharString name="Aacute">
          90 392 780 131 callgsubr
          -177 -456 -95 callsubr
        </CharString>
        <CharString name="Abreve">
          90 412 788 rmoveto
          64 75 54 34 13 -5 6 -14 hvcurveto
          -29 -17 -56 -63 -73 0 86 -25 hhcurveto
          -15 -17 -16 -26 -42 65 -53 54 hvcurveto
          -197 -464 -95 callsubr
        </CharString>
        <CharString name="Acircumflex">
          90 254 173 callsubr
          -39 -464 -95 callsubr
        </CharString>
        <CharString name="Adieresis">
          90 488 799 rmoveto
          48 callsubr
          -136 hmoveto
          48 callsubr
          -137 -475 -95 callsubr
        </CharString>
        <CharString name="Agrave">
          90 343 831 -29 callgsubr
          -128 -507 -95 callsubr
        </CharString>
        <CharString name="Amacron">
          90 267 230 callsubr
          -52 -470 -95 callsubr
        </CharString>
        <CharString name="Aogonek">
          90 215 324 rmoveto
          38 93 47 110 54 118 20 -82 14 -92 11 -102 -57 -12 -67 -17 -60 -16 rrcurveto
          -69 -21 rmoveto
          -58 -18 -40 -17 -11 vvcurveto
          -21 20 -4 20 6 10 2 3 14 vhcurveto
          -40 -93 -31 -74 -5 vvcurveto
          -26 16 -22 16 13 36 93 146 59 vhcurveto
          29 7 36 11 46 12 106 28 rcurveline
          6 -68 5 -73 4 -77 2 -32 4 -22 7 -13 rrcurveto
          -45 -14 -76 -85 -54 50 callsubr
          hvcurveto
          55 99 31 44 vvcurveto
          5 -1 3 -2 3 vhcurveto
          9 15 4 36 48 vvcurveto
          40 -4 79 -9 88 vhcurveto
          55 16 35 12 11 vvcurveto
          16 -13 5 -16 -12 -23 -3 -6 -31 vhcurveto
          165 -18 -32 176 -41 hhcurveto
          -35 -12 -23 -37 -18 hvcurveto
          -20 -40 -54 -122 -50 -120 rrcurveto
          endchar
        </CharString>
        <CharString name="Aring">
          90 411 899 207 callgsubr
          -181 -440 -95 callsubr
        </CharString>
        <CharString name="Atilde">
          90 275 783 rmoveto
          24 11 51 24 49 hvcurveto
          41 callgsubr
          -12 7 -9 15 hvcurveto
          -60 -459 -95 callsubr
        </CharString>
        <CharString name="B">
          138 137 76 rmoveto
          11 13 16 40 23 80 14 51 15 53 14 51 rrcurveto
          -13 5 21 -14 20 hhcurveto
          107 131 -33 -50 -92 -185 -86 -183 hvcurveto
          205 569 rmoveto
          83 73 -35 -54 -77 -110 -36 -80 -26 hvcurveto
          -35 -11 -33 -9 -14 -13 rrcurveto
          26 99 19 85 24 vvcurveto
          13 -12 21 -13 12 vhcurveto
          3 27 29 4 40 hhcurveto
          9 -267 rmoveto
          -7 -9 0 -8 hhcurveto
          166 31 69 65 85 vvcurveto
          85 -90 59 -193 -77 -62 -16 -15 -13 21 -26 23 vhcurveto
          10 9 1 10 hhcurveto
          -1 -2 0 -4 -3 -181 -117 -273 -44 vvcurveto
          -20 7 -20 9 -9 vhcurveto
          8 -65 -21 39 -16 hhcurveto
          -5 -6 -5 -14 -38 58 -46 100 220 195 111 117 65 -86 63 -134 hvcurveto
          endchar
        </CharString>
        <CharString name="C">
          83 487 702 rmoveto
          -186 -220 -307 -188 -104 95 -78 95 54 callgsubr
          hvcurveto
          endchar
        </CharString>
        <CharString name="CR">
          -96 endchar
        </CharString>
        <CharString name="Cacute">
          209 487 702 rmoveto
          -186 -220 -307 -188 -104 95 -78 95 54 callgsubr
          hvcurveto
          25 97 -61 callgsubr
          endchar
        </CharString>
        <CharString name="Ccaron">
          220 487 702 rmoveto
          -186 -220 -307 -188 -104 95 -78 95 54 callgsubr
          hvcurveto
          35 123 rmoveto
          -41 callsubr
          229 callsubr
          vhcurveto
          endchar
        </CharString>
        <CharString name="Ccedilla">
          83 240 -36 rmoveto
          14 24 9 22 4 15 rrcurveto
          4 hlineto
          54 callgsubr
          -186 -220 -307 -188 -84 63 -68 74 -22 hvcurveto
          -14 -40 -23 -35 -18 30 callgsubr
          endchar
        </CharString>
        <CharString name="D">
          81 callsubr
          endchar
        </CharString>
        <CharString name="Dcaron">
          81 callsubr
          440 174 rmoveto
          229 callsubr
          hvcurveto
          -41 callsubr
          vhcurveto
          endchar
        </CharString>
        <CharString name="Dcroat">
          97 201 278 rmoveto
          73 8 54 5 17 vvcurveto
          18 -26 11 -36 -4 -21 -2 -3 -25 vhcurveto
          36 131 21 73 40 123 callgsubr
          6 53 14 75 15 51 rrcurveto
          -55 68 rmoveto
          -83 -9 -54 -7 -23 vvcurveto
          -14 15 -10 26 6 25 3 7 62 vhcurveto
          -20 -76 -17 -67 -31 150 callsubr
          -12 -8 -5 -13 -17 19 -19 40 -11 vhcurveto
          -1 -5 0 -8 -10 vvcurveto
          -59 -33 -122 -31 -113 vhcurveto
          endchar
        </CharString>
        <CharString name="E">
          98 268 631 -87 callgsubr
        </CharString>
        <CharString name="Eacute">
          98 444 780 131 callgsubr
          -176 -149 -87 callgsubr
        </CharString>
        <CharString name="Ecaron">
          98 432 770 109 callsubr
          -164 -139 -87 callgsubr
        </CharString>
        <CharString name="Ecircumflex">
          98 306 173 callsubr
          -38 -157 -87 callgsubr
        </CharString>
        <CharString name="Edieresis">
          98 540 799 rmoveto
          48 callsubr
          -136 hmoveto
          48 callsubr
          -136 -168 -87 callgsubr
        </CharString>
        <CharString name="Edotaccent">
          98 468 790 107 callgsubr
          -200 -159 -87 callgsubr
        </CharString>
        <CharString name="Egrave">
          98 395 831 -29 callgsubr
          -127 -200 -87 callgsubr
        </CharString>
        <CharString name="Emacron">
          98 319 230 callsubr
          -51 -163 -87 callgsubr
        </CharString>
        <CharString name="Eogonek">
          98 497 125 rmoveto
          -1 hlineto
          -1 hlineto
          -4 -5 -1 -1 -4 hvcurveto
          -11 -46 -117 -40 -141 hhcurveto
          -18 -15 11 21 33 32 98 31 106 hvcurveto
          -1 3 4 0 3 hhcurveto
          134 134 12 40 7 -13 2 -24 hvcurveto
          -67 -31 -10 -97 -13 -9 1 -9 hhcurveto
          24 86 21 86 57 vvcurveto
          10 vlineto
          29 3 42 8 55 4 rrcurveto
          141 11 77 2 23 vvcurveto
          14 -67 5 -125 -114 -54 -11 -11 -23 vhcurveto
          -5 -2 -4 -3 -4 -5 -1 -1 0 -1 -1 -1 rrcurveto
          -3 -6 -2 -8 -11 -181 -126 -254 -115 vvcurveto
          -43 51 -36 61 61 75 14 18 61 vhcurveto
          -18 -25 -12 -27 -22 50 callsubr
          hvcurveto
          55 99 31 44 vvcurveto
          12 -8 5 -10 1 vhcurveto
          endchar
        </CharString>
        <CharString name="Eth">
          97 203 279 rmoveto
          36 5 35 6 21 7 rrcurveto
          14 4 8 5 5 vvcurveto
          15 -30 7 -20 -10 -18 -1 -2 -22 vhcurveto
          31 112 18 65 37 123 callgsubr
          6 53 14 75 15 51 rrcurveto
          -17 451 rmoveto
          -12 -8 -5 -13 -17 19 -19 40 -11 hvcurveto
          -1 -5 0 -8 -10 vvcurveto
          -54 -27 -105 -29 -104 vhcurveto
          -38 -5 -39 -6 -27 -8 rrcurveto
          -22 -6 -14 -8 -9 vvcurveto
          -17 52 0 6 8 27 2 4 33 vhcurveto
          -25 -90 -21 -80 -36 150 callsubr
          vhcurveto
          endchar
        </CharString>
        <CharString name="Euro">
          4 99 190 rmoveto
          -94 79 -79 99 102 139 90 34 8 -4 8 -9 vhcurveto
          -31 -73 -77 -121 hhcurveto
          -74 -44 51 64 hvcurveto
          4 0 5 4 vvcurveto
          27 4 rlineto
          217 29 38 6 17 vvcurveto
          13 -24 8 -34 -28 -98 -9 -12 -88 vhcurveto
          9 35 15 35 20 34 18 1 rcurveline
          208 15 42 3 16 vvcurveto
          14 -23 13 -57 -17 -65 -1 -4 -68 vhcurveto
          89 68 91 67 56 29 16 -20 17 hhcurveto
          7 6 7 12 25 -39 39 -33 -103 -117 -104 -121 -75 hvcurveto
          -63 -6 -52 -9 -13 vvcurveto
          -13 18 -21 15 13 16 1 3 21 vhcurveto
          -17 -36 -14 -37 -7 -34 rrcurveto
          -51 -9 -36 -10 -9 vvcurveto
          -11 19 -21 15 12 14 2 3 19 vhcurveto
          endchar
        </CharString>
        <CharString name="F">
          6 197 334 rmoveto
          163 104 32 22 6 -13 3 -24 -35 -42 -7 -2 -84 hvcurveto
          -1 -19 -20 0 -23 hhcurveto
          23 94 19 92 46 vvcurveto
          4 0 5 -1 5 vhcurveto
          29 1 43 5 56 6 rrcurveto
          124 13 91 1 21 vvcurveto
          14 -83 7 -105 -141 -52 -15 -18 -10 vhcurveto
          -4 -6 -4 -9 -12 vvcurveto
          -5 -159 -120 -373 -40 vvcurveto
          -20 23 -32 12 10 14 53 59 15 vhcurveto
          10 42 22 79 21 84 rrcurveto
          endchar
        </CharString>
        <CharString name="G">
          112 464 704 19 callsubr
          endchar
        </CharString>
        <CharString name="Gbreve">
          112 464 704 19 callsubr
          190 191 rmoveto
          -29 -17 -56 -63 144 callsubr
          endchar
        </CharString>
        <CharString name="H">
          174 129 298 rmoveto
          -29 -108 -25 -94 -31 vvcurveto
          -23 22 -23 8 17 32 144 124 35 vhcurveto
          6 21 36 7 43 10 50 8 rlinecurve
          72 12 61 7 47 6 rrcurveto
          -35 -131 -35 -127 -35 vvcurveto
          -21 19 -25 10 19 30 144 124 35 vhcurveto
          8 28 7 27 7 25 rrcurveto
          36 6 19 7 11 vvcurveto
          12 -10 6 -33 2 vhcurveto
          29 113 18 85 28 vvcurveto
          36 -26 34 -16 -12 -3 -6 -23 -50 -25 -107 -29 -110 vhcurveto
          -72 -5 -135 -19 -99 -19 rrcurveto
          36 134 21 104 31 vvcurveto
          36 -25 34 -15 -11 -4 -5 -24 -59 -35 -136 -35 -131 vhcurveto
          -32 -8 -21 -8 -7 vvcurveto
          -18 19 -13 13 vhcurveto
          endchar
        </CharString>
        <CharString name="I">
          -17 callsubr
          endchar
        </CharString>
        <CharString name="Iacute">
          -17 callsubr
          178 733 -61 callgsubr
          endchar
        </CharString>
        <CharString name="Icircumflex">
          -17 callsubr
          210 873 rmoveto
          -32 callsubr
          31 -26 -9 15 -26 hhcurveto
          endchar
        </CharString>
        <CharString name="Idieresis">
          -17 callsubr
          124 839 rmoveto
          -12 callgsubr
          136 hmoveto
          -12 callgsubr
          endchar
        </CharString>
        <CharString name="Idotaccent">
          -17 callsubr
          221 724 107 callgsubr
          endchar
        </CharString>
        <CharString name="Igrave">
          -17 callsubr
          148 765 -29 callgsubr
          endchar
        </CharString>
        <CharString name="Imacron">
          -17 callsubr
          358 769 50 callgsubr
          endchar
        </CharString>
        <CharString name="Iogonek">
          -195 119 33 rmoveto
          16 38 29 120 28 105 rrcurveto
          46 169 28 133 37 vvcurveto
          35 -26 34 -17 -13 -2 -6 -23 vhcurveto
          -116 -131 -427 -66 vvcurveto
          -4 1 -3 1 -4 vhcurveto
          -46 -20 -68 -79 -51 50 callsubr
          51 86 31 12 39 hvcurveto
          endchar
        </CharString>
        <CharString name="J">
          -48 5 143 rmoveto
          -37 99 -93 84 90 20 57 296 87 vhcurveto
          55 187 48 97 34 vvcurveto
          23 -26 8 -21 -51 -233 -59 -37 -10 10 -6 20 37 94 41 16 114 vhcurveto
          -33 -49 -35 -94 -27 -96 rrcurveto
          -253 -70 -31 -99 -55 -78 -64 92 -19 hhcurveto
          -9 -6 -6 -12 hvcurveto
          endchar
        </CharString>
        <CharString name="K">
          79 590 679 86 callgsubr
        </CharString>
        <CharString name="L">
          40 221 706 17 callsubr
          endchar
        </CharString>
        <CharString name="Lacute">
          40 221 706 17 callsubr
          70 93 -61 callgsubr
          endchar
        </CharString>
        <CharString name="Lcaron">
          40 328 516 100 callsubr
          -107 190 17 callsubr
          endchar
        </CharString>
        <CharString name="Lslash">
          -10 215 374 313 callsubr
          -49 -11 -16 -55 vhcurveto
          26 101 17 78 32 vvcurveto
          34 -26 32 -16 -13 -3 -6 -23 -57 -27 -105 -29 -107 vhcurveto
          -67 -21 -59 -24 -12 vvcurveto
          -15 30 -13 19 8 24 8 10 26 vhcurveto
          -30 -106 -27 -97 -41 vvcurveto
          -43 51 -36 62 127 181 63 40 9 -1 1 -10 vhcurveto
          -27 -126 -54 -161 hhcurveto
          -18 -15 13 20 18 7 33 40 135 hvcurveto
          7 25 7 25 7 24 rrcurveto
          endchar
        </CharString>
        <CharString name="M">
          300 220 704 rmoveto
          -14 -2 -6 -23 hvcurveto
          -117 -136 -419 -71 vvcurveto
          -21 19 -24 11 10 36 142 123 36 vhcurveto
          22 75 25 101 13 78 38 -110 53 -116 22 -38 rrcurveto
          -21 13 19 -14 17 hhcurveto
          32 71 85 291 234 hvcurveto
          -62 -166 -73 -312 -63 vvcurveto
          -34 17 -21 13 11 30 165 132 37 vhcurveto
          47 166 38 126 40 vvcurveto
          23 -29 26 -17 -36 -108 -160 -240 -200 vhcurveto
          -66 139 -64 151 -8 52 rrcurveto
          32 -5 -32 29 -12 hhcurveto
          endchar
        </CharString>
        <CharString name="N">
          196 615 708 -38 callsubr
          endchar
        </CharString>
        <CharString name="NULL">
          endchar
        </CharString>
        <CharString name="Nacute">
          196 615 708 -38 callsubr
          -197 91 -61 callgsubr
          endchar
        </CharString>
        <CharString name="Ncaron">
          196 615 708 -38 callsubr
          -187 117 rmoveto
          -41 callsubr
          229 callsubr
          vhcurveto
          endchar
        </CharString>
        <CharString name="Ntilde">
          196 615 708 -38 callsubr
          -317 96 rmoveto
          -12 7 -9 15 24 11 51 24 49 vhcurveto
          41 callgsubr
          hvcurveto
          endchar
        </CharString>
        <CharString name="O">
          -57 callgsubr
          endchar
        </CharString>
        <CharString name="OE">
          429 227 75 rmoveto
          -49 -52 52 88 204 190 229 88 52 63 -67 -124 -151 -181 -231 -111 hvcurveto
          340 265 rmoveto
          134 134 12 40 7 -13 2 -24 hvcurveto
          -67 -31 -10 -97 hhcurveto
          -12 -9 0 1 -7 hvcurveto
          2 10 2 10 1 9 rrcurveto
          21 76 16 74 50 vvcurveto
          10 vlineto
          29 3 42 8 55 4 rrcurveto
          141 11 77 2 23 vvcurveto
          14 -67 5 -125 -114 -54 -11 -11 -23 vhcurveto
          -5 -2 -4 -3 -4 -5 -1 -1 0 -1 -1 -1 rrcurveto
          -3 -6 -2 -8 -11 vvcurveto
          -15 -1 -16 -1 -16 vhcurveto
          66 -32 -55 48 -67 hhcurveto
          -141 -195 -254 -248 -79 64 -108 88 76 79 49 70 64 hvcurveto
          -3 -18 -2 -15 -14 240 callgsubr
          30 27 85 28 95 hvcurveto
          4 9 3 9 3 8 rrcurveto
          endchar
        </CharString>
        <CharString name="Oacute">
          -57 callgsubr
          -56 342 -61 callgsubr
          endchar
        </CharString>
        <CharString name="Ocircumflex">
          -57 callgsubr
          -24 482 rmoveto
          -32 callsubr
          31 -26 -9 15 -26 hhcurveto
          endchar
        </CharString>
        <CharString name="Odieresis">
          -57 callgsubr
          -110 448 rmoveto
          -12 callgsubr
          136 hmoveto
          -12 callgsubr
          endchar
        </CharString>
        <CharString name="Ograve">
          -57 callgsubr
          -86 374 -29 callgsubr
          endchar
        </CharString>
        <CharString name="Ohungarumlaut">
          -57 callgsubr
          -77 434 -1 callsubr
          endchar
        </CharString>
        <CharString name="Omacron">
          -57 callgsubr
          124 378 50 callgsubr
          endchar
        </CharString>
        <CharString name="Oslash">
          104 519 457 rmoveto
          -151 -181 -231 -111 -26 -27 15 27 -20 vhcurveto
          65 83 107 139 180 208 rrcurveto
          8 -26 5 -30 -34 vvcurveto
          -393 -242 rmoveto
          204 190 229 88 25 27 -15 -30 22 vhcurveto
          -58 -67 -73 -93 -71 -87 -51 -62 -52 -63 -43 -54 rrcurveto
          -3 12 -1 12 14 vvcurveto
          438 398 rmoveto
          33 37 10 21 14 vvcurveto
          11 -7 7 -10 -13 -25 -20 -34 -32 vhcurveto
          36 -31 -41 23 -46 hhcurveto
          -141 -195 -254 -248 -27 7 -30 13 -27 hvcurveto
          -29 -40 -19 -28 -12 vvcurveto
          -15 10 -10 16 9 15 17 37 30 vhcurveto
          -31 26 35 -21 39 hhcurveto
          178 188 264 186 46 -11 46 -20 39 hvcurveto
          endchar
        </CharString>
        <CharString name="Otilde">
          -57 callgsubr
          -176 347 rmoveto
          -12 7 -9 15 24 11 51 24 49 vhcurveto
          41 callgsubr
          hvcurveto
          endchar
        </CharString>
        <CharString name="P">
          33 189 324 rmoveto
          42 150 17 87 36 vvcurveto
          10 -2 10 -3 9 vhcurveto
          11 29 39 15 43 hhcurveto
          77 59 -48 -68 -88 -117 -85 -184 -39 hvcurveto
          360 219 rmoveto
          102 -90 63 321 callgsubr
          -10 -145 -125 -349 -68 317 callsubr
          9 41 136 119 35 vhcurveto
          219 43 157 83 148 vvcurveto
          endchar
        </CharString>
        <CharString name="Q">
          125 230 76 rmoveto
          -54 -49 51 89 134 75 148 83 83 hvcurveto
          -11 -27 -6 -33 -36 vvcurveto
          -101 32 -140 40 -120 vhcurveto
          -30 -38 -38 -18 -34 hhcurveto
          176 570 rmoveto
          54 63 -66 -119 -96 -63 -120 -77 -81 hvcurveto
          -30 96 -26 114 127 vvcurveto
          56 7 44 16 29 vhcurveto
          10 19 19 6 18 hhcurveto
          181 -177 rmoveto
          119 -82 116 -103 -144 -188 -241 -257 -105 66 -78 88 47 46 16 27 43 vhcurveto
          -107 40 43 -80 24 hhcurveto
          8 11 3 10 26 -40 74 -40 108 hvcurveto
          105 90 76 154 125 vvcurveto
          endchar
        </CharString>
        <CharString name="R">
          69 181 335 -54 callsubr
          endchar
        </CharString>
        <CharString name="Racute">
          69 181 335 -54 callsubr
          361 663 24 callgsubr
        </CharString>
        <CharString name="Rcaron">
          69 181 335 -54 callsubr
          379 643 rmoveto
          229 callsubr
          hvcurveto
          -41 callsubr
          vhcurveto
          endchar
        </CharString>
        <CharString name="S">
          31 callgsubr
          endchar
        </CharString>
        <CharString name="Sacute">
          31 callgsubr
          -74 588 -61 callgsubr
          endchar
        </CharString>
        <CharString name="Scaron">
          31 callgsubr
          -64 614 rmoveto
          -41 callsubr
          229 callsubr
          vhcurveto
          endchar
        </CharString>
        <CharString name="T">
          24 390 701 44 callgsubr
        </CharString>
        <CharString name="Tcaron">
          24 348 707 109 callsubr
          42 -6 44 callgsubr
        </CharString>
        <CharString name="Thorn">
          -20 166 257 rmoveto
          17 61 13 58 11 50 rrcurveto
          13 28 25 7 24 hhcurveto
          50 51 -35 -56 -59 -98 -62 -100 -9 -9 0 1 -9 hvcurveto
          126 274 rmoveto
          -17 -25 -5 -8 -25 hvcurveto
          7 39 3 29 14 vvcurveto
          36 -27 30 -16 -15 -3 -8 -22 vhcurveto
          -167 -111 -322 -65 vvcurveto
          -21 18 -22 14 12 20 76 88 24 vhcurveto
          -2 14 14 -1 13 hhcurveto
          128 130 75 106 86 -87 64 -71 hvcurveto
          endchar
        </CharString>
        <CharString name="U">
          -61 callsubr
          endchar
        </CharString>
        <CharString name="Uacute">
          -61 callsubr
          163 95 -61 callgsubr
          endchar
        </CharString>
        <CharString name="Ucircumflex">
          -61 callsubr
          195 235 rmoveto
          -32 callsubr
          31 -26 -9 15 -26 hhcurveto
          endchar
        </CharString>
        <CharString name="Udieresis">
          -61 callsubr
          109 201 rmoveto
          -12 callgsubr
          136 hmoveto
          -12 callgsubr
          endchar
        </CharString>
        <CharString name="Ugrave">
          -61 callsubr
          133 127 -29 callgsubr
          endchar
        </CharString>
        <CharString name="Uhungarumlaut">
          -61 callsubr
          142 187 -1 callsubr
          endchar
        </CharString>
        <CharString name="Umacron">
          -61 callsubr
          343 131 50 callgsubr
          endchar
        </CharString>
        <CharString name="Uogonek">
          93 285 16 rmoveto
          141 37 132 223 332 vvcurveto
          71 -39 25 -17 -11 -3 -3 -13 vhcurveto
          -30 7 -40 -60 vvcurveto
          -272 -151 -220 -95 -54 -37 53 88 vhcurveto
          101 87 234 94 vvcurveto
          35 -31 33 -15 -12 -2 -5 -24 vhcurveto
          -144 -86 -195 -143 vvcurveto
          -81 41 -74 63 -22 vhcurveto
          -34 -33 -32 -48 -35 50 callsubr
          46 68 29 24 34 hvcurveto
          endchar
        </CharString>
        <CharString name="Uring">
          -61 callsubr
          118 138 106 callsubr
        </CharString>
        <CharString name="V">
          26 563 704 rmoveto
          -44 -220 -430 -169 -59 hvcurveto
          -65 216 -15 258 -19 64 rrcurveto
          35 -11 -22 26 -19 hhcurveto
          -8 -3 -8 -16 -69 77 -447 37 -88 hvcurveto
          -33 14 14 -31 17 hhcurveto
          27 40 121 233 118 hvcurveto
          102 204 67 71 41 vvcurveto
          11 -16 11 -12 vhcurveto
          endchar
        </CharString>
        <CharString name="W">
          274 515 704 rmoveto
          -30 -14 -5 -16 -15 32 -34 36 88 43 -139 -103 -153 -71 -153 -89 hvcurveto
          -78 24 318 -62 hhcurveto
          -39 -138 -175 -130 -83 hvcurveto
          18 204 59 296 50 vvcurveto
          26 -34 29 -17 -12 -8 -8 -27 vhcurveto
          -160 -60 -323 -87 vvcurveto
          -43 20 -34 18 20 30 26 124 93 vhcurveto
          37 49 38 55 45 57 rrcurveto
          -171 13 25 -138 91 hhcurveto
          117 103 176 183 174 -71 147 -144 hvcurveto
          endchar
        </CharString>
        <CharString name="X">
          139 320 390 rmoveto
          -58 95 -47 98 78 vvcurveto
          24 -31 19 -28 -8 -4 -4 -14 -82 61 -137 75 -129 vhcurveto
          -96 -122 -85 -99 -36 -37 rrcurveto
          -16 -17 -8 -4 -12 vvcurveto
          -10 17 -14 10 39 44 62 203 161 vhcurveto
          -144 88 97 -121 31 hhcurveto
          5 8 6 15 38 -99 122 -88 136 hvcurveto
          2 3 123 156 78 104 33 26 rlinecurve
          25 19 18 11 10 vvcurveto
          11 -25 24 -11 -29 -44 -48 -211 -160 vhcurveto
          endchar
        </CharString>
        <CharString name="Y">
          37 callgsubr
          endchar
        </CharString>
        <CharString name="Yacute">
          37 callgsubr
          139 322 -61 callgsubr
          endchar
        </CharString>
        <CharString name="Ydieresis">
          37 callgsubr
          85 428 rmoveto
          -12 callgsubr
          136 hmoveto
          -12 callgsubr
          endchar
        </CharString>
        <CharString name="Z">
          -17 callgsubr
          endchar
        </CharString>
        <CharString name="Zacute">
          -17 callgsubr
          -78 124 -61 callgsubr
          endchar
        </CharString>
        <CharString name="Zcaron">
          -17 callgsubr
          -68 150 rmoveto
          -41 callsubr
          229 callsubr
          vhcurveto
          endchar
        </CharString>
        <CharString name="Zdotaccent">
          -17 callgsubr
          -35 115 107 callgsubr
          endchar
        </CharString>
        <CharString name="a">
          -59 314 308 rmoveto
          -131 -37 -82 -101 -69 hhcurveto
          -29 -35 21 31 100 144 215 79 33 13 -48 -41 -10 0 -8 1 -7 hvcurveto
          -10 -3 -6 -8 -2 -10 rrcurveto
          70 70 rmoveto
          325 callsubr
          -119 -161 -243 -130 -57 69 -55 62 62 69 64 69 39 vhcurveto
          -76 2 -57 25 20 -5 55 62 11 vhcurveto
          14 77 3 50 30 vvcurveto
          10 -3 9 -6 7 vhcurveto
          11 15 11 24 22 vvcurveto
          endchar
        </CharString>
        <CharString name="aacute">
          -59 314 308 -72 callgsubr
          202 236 24 callgsubr
        </CharString>
        <CharString name="abreve">
          -59 314 308 -72 callgsubr
          219 180 rmoveto
          -29 -17 -56 -63 144 callsubr
          endchar
        </CharString>
        <CharString name="acircumflex">
          -59 314 308 -72 callgsubr
          153 178 rmoveto
          224 callsubr
          -32 callsubr
          endchar
        </CharString>
        <CharString name="acute">
          -313 10 682 -61 callgsubr
          endchar
        </CharString>
        <CharString name="adieresis">
          -59 319 586 rmoveto
          48 callsubr
          -5 -278 -72 callgsubr
          142 190 rmoveto
          -12 callgsubr
          endchar
        </CharString>
        <CharString name="ae">
          223 29 132 rmoveto
          -64 64 -51 54 71 47 59 80 51 vhcurveto
          -86 7 74 -53 84 hhcurveto
          273 callgsubr
          -7 6 -11 hvcurveto
          195 callsubr
          32 50 29 5 33 11 32 hvcurveto
          -11 45 44 -8 329 callgsubr
          -53 -41 -50 -40 hvcurveto
          48 -13 -39 43 -57 hhcurveto
          -134 -136 -240 -130 hvcurveto
          538 314 rmoveto
          40 43 -56 -43 -39 -48 -30 -91 -30 -39 5 9 -38 hvcurveto
          83 37 63 71 63 hhcurveto
          -205 -105 rmoveto
          -9 -14 -6 -15 -5 -13 rrcurveto
          -140 -62 -59 -83 -79 hhcurveto
          -23 -31 21 31 100 119 215 97 42 15 -37 -65 1 hvcurveto
          endchar
        </CharString>
        <CharString name="agrave">
          -59 314 308 -72 callgsubr
          59 167 rmoveto
          39 -37 -15 24 -15 hhcurveto
          -21 -16 -25 -17 -19 28 -17 47 -36 hvcurveto
          -24 32 27 -27 15 hhcurveto
          10 10 10 9 17 -13 10 -52 56 hvcurveto
          endchar
        </CharString>
        <CharString name="amacron">
          -59 314 308 -72 callgsubr
          21 143 callgsubr
        </CharString>
        <CharString name="ampersand">
          154 83 107 rmoveto
          31 74 58 84 68 vhcurveto
          19 -39 25 -37 27 -33 rrcurveto
          -47 -73 -71 -37 -45 hhcurveto
          -23 -17 15 21 hvcurveto
          165 356 rmoveto
          74 48 68 62 44 17 -26 -32 -56 -72 -69 -82 -69 vhcurveto
          -11 37 -6 37 36 vvcurveto
          293 -383 rmoveto
          -51 -50 24 37 -43 hvcurveto
          118 79 105 91 19 vvcurveto
          14 -6 7 -16 -17 -110 -90 -78 -115 vhcurveto
          -29 34 -24 40 -19 43 rrcurveto
          99 81 98 91 75 vvcurveto
          45 -20 65 -93 -108 -73 -93 -95 -49 11 -53 20 -52 vhcurveto
          -98 -79 -98 -74 -47 vvcurveto
          -55 55 -45 43 56 88 43 54 88 vhcurveto
          -52 56 65 -34 66 hhcurveto
          60 22 16 19 15 -17 4 -63 hvcurveto
          endchar
        </CharString>
        <CharString name="aogonek">
          -59 126 76 rmoveto
          -29 -35 21 31 100 144 215 79 33 13 -48 -41 -10 0 -8 1 -7 hvcurveto
          -10 -3 -6 -8 -2 -10 rrcurveto
          -131 -37 -82 -101 -69 hhcurveto
          212 -51 rmoveto
          9 18 -1 44 8 47 rrcurveto
          14 77 3 50 30 vvcurveto
          10 -3 9 -6 7 vhcurveto
          11 15 11 24 22 vvcurveto
          325 callsubr
          -119 -161 -243 -130 -57 69 -55 62 62 69 64 69 39 vhcurveto
          -42 1 -37 4 -24 vhcurveto
          -45 -12 -77 -87 -54 50 callsubr
          53 91 30 7 41 hvcurveto
          endchar
        </CharString>
        <CharString name="apostrophemod">
          -259 215 callsubr
        </CharString>
        <CharString name="approxequal">
          85 58 180 93 callgsubr
          50 208 93 callgsubr
          endchar
        </CharString>
        <CharString name="aring">
          -59 314 308 -72 callgsubr
          88 92 rmoveto
          -16 -11 17 21 32 20 22 17 16 11 -17 -22 -32 -19 -21 -18 hvcurveto
          16 137 rmoveto
          -52 -37 -58 -44 -43 29 -35 39 52 37 58 44 43 -29 35 -39 hvcurveto
          endchar
        </CharString>
        <CharString name="asciicircum">
          -84 308 690 rmoveto
          -30 75 -2 22 -15 21 rrcurveto
          13 -9 -29 4 -11 hhcurveto
          -37 -98 -168 -62 -11 6 -9 11 21 16 42 51 28 hvcurveto
          16 30 21 31 28 29 rrcurveto
          -65 26 58 -127 31 hhcurveto
          8 4 4 11 12 -20 42 -23 55 hvcurveto
          endchar
        </CharString>
        <CharString name="asciitilde">
          92 84 274 93 callgsubr
          endchar
        </CharString>
        <CharString name="asterisk">
          -158 370 726 rmoveto
          11 -15 9 -11 -12 -38 -37 -29 -44 vhcurveto
          10 30 9 34 9 vvcurveto
          15 -21 18 -9 -8 -4 -3 -11 -12 0 -45 -2 -32 vhcurveto
          -18 8 -32 41 -6 7 rrcurveto
          11 -9 -20 3 -15 hhcurveto
          -9 -1 -5 -6 -17 67 -50 31 -11 hvcurveto
          -51 -31 -56 -16 -10 vvcurveto
          -10 10 -11 11 10 61 36 21 22 vhcurveto
          -7 -36 -20 -43 -10 vvcurveto
          -6 9 -12 9 13 16 78 29 4 vhcurveto
          -28 32 37 -28 13 hhcurveto
          8 12 9 8 12 -54 20 -34 27 hvcurveto
          41 17 71 37 9 vvcurveto
          endchar
        </CharString>
        <CharString name="at">
          398 567 327 rmoveto
          -134 -33 -88 -102 -70 hhcurveto
          -29 -38 23 34 102 146 218 80 35 14 -52 -42 -13 0 -10 1 -6 hvcurveto
          -10 -2 -6 -7 -2 -9 rrcurveto
          10 383 rmoveto
          -325 -211 -348 -250 -147 103 -130 175 110 161 49 46 5 -3 3 -5 hvcurveto
          -25 -74 -52 -163 hhcurveto
          -130 -90 95 133 232 200 312 279 170 55 -127 -136 -147 -116 -131 -67 -30 -16 30 25 hvcurveto
          56 43 62 21 vvcurveto
          11 -4 9 -7 6 vhcurveto
          11 12 13 26 23 vvcurveto
          38 -33 81 -68 -118 -159 -240 -128 -54 67 -53 61 45 54 33 63 50 vhcurveto
          -45 7 36 -25 35 hhcurveto
          122 134 167 166 168 -97 141 -190 hvcurveto
          endchar
        </CharString>
        <CharString name="atilde">
          -59 314 308 -72 callgsubr
          226 180 rmoveto
          -29 -5 -61 -2 -40 hvcurveto
          2 -37 -5 74 -61 hhcurveto
          -49 -60 -62 -42 -12 7 -9 15 24 11 51 24 49 hvcurveto
          -52 37 31 -27 36 hhcurveto
          54 39 54 38 15 -6 9 -11 hvcurveto
          endchar
        </CharString>
        <CharString name="b">
          -4 223 72 rmoveto
          -35 -43 23 57 -32 hvcurveto
          148 66 115 145 83 hhcurveto
          34 13 -35 -52 -144 -110 -142 -91 hvcurveto
          160 435 rmoveto
          -81 -81 -79 -117 -73 hvcurveto
          52 217 6 150 37 vvcurveto
          33 -25 34 -16 -15 -3 -9 -21 vhcurveto
          -334 -123 -293 -65 317 callsubr
          7 13 34 48 14 vhcurveto
          -54 38 43 -31 59 hhcurveto
          123 132 193 151 80 -39 69 -65 hvcurveto
          endchar
        </CharString>
        <CharString name="backslash">
          94 510 -39 rmoveto
          37 -82 198 -242 538 vhcurveto
          22 -10 -1 7 -10 hhcurveto
          -10 -26 -35 -21 -53 122 -210 65 -156 hvcurveto
          -329 137 14 -34 13 hhcurveto
          9 21 25 11 hvcurveto
          endchar
        </CharString>
        <CharString name="bar">
          -186 87 -119 rmoveto
          15 65 299 116 30 hvcurveto
          39 155 58 252 33 vvcurveto
          33 -26 34 -17 -15 -2 -8 -22 vhcurveto
          -104 -182 -683 -61 vvcurveto
          -21 22 -23 13 vhcurveto
          endchar
        </CharString>
        <CharString name="braceleft">
          -107 364 853 rmoveto
          -87 -88 -72 -99 hvcurveto
          -97 45 -76 -51 vvcurveto
          -35 -26 -25 -41 vhcurveto
          -38 -29 34 -17 hhcurveto
          -6 -5 -9 -9 -16 12 -14 17 -11 hvcurveto
          6 -11 11 -17 -17 -99 -69 -57 -100 vvcurveto
          -84 62 -72 90 43 41 14 22 12 -10 4 -36 -87 -39 33 71 vhcurveto
          108 56 49 68 vvcurveto
          21 -3 18 -6 15 vhcurveto
          -1 8 8 -1 7 hhcurveto
          66 40 47 45 hvcurveto
          59 -45 53 110 vvcurveto
          76 60 52 66 69 3 -41 -59 -14 2 -10 9 18 18 33 36 67 -47 50 -78 vhcurveto
          endchar
        </CharString>
        <CharString name="braceright">
          -16 422 314 rmoveto
          0 vlineto
          15 6 9 12 10 vvcurveto
          9 -11 0 -22 4 vhcurveto
          -13 2 -13 4 -12 5 rrcurveto
          -24 11 -20 19 30 67 174 91 125 vvcurveto
          74 -80 70 -74 -72 -89 -58 -46 -10 23 -22 11 vhcurveto
          23 23 81 72 hhcurveto
          53 48 -39 -56 hvcurveto
          -104 -170 -84 -89 vvcurveto
          -46 33 -39 42 -19 vhcurveto
          -81 -82 66 -271 -122 -89 10 50 -36 hhcurveto
          -8 -6 -8 -14 -35 66 -46 70 195 -121 345 51 128 hvcurveto
          endchar
        </CharString>
        <CharString name="bracketleft">
          -58 278 759 rmoveto
          -2 -4 -1 -6 -7 -120 -194 -524 -83 vvcurveto
          -44 49 -27 56 42 101 23 34 8 -4 4 -11 vhcurveto
          -25 -68 -11 -50 hhcurveto
          -16 -10 9 16 17 9 34 59 189 hvcurveto
          48 152 74 248 42 vvcurveto
          7 -1 6 -2 7 vhcurveto
          13 1 15 3 24 2 rrcurveto
          116 12 24 2 17 vvcurveto
          24 -56 3 -40 -60 -88 -7 -25 -2 vhcurveto
          endchar
        </CharString>
        <CharString name="bracketright">
          -95 362 713 rmoveto
          19 -22 15 -63 -57 -94 -10 -28 -10 11 -5 18 -3 vhcurveto
          -3 20 28 -1 28 hhcurveto
          34 21 -1 -2 15 hvcurveto
          -1 -5 -1 -5 -6 vvcurveto
          -78 -120 -524 -15 -55 vhcurveto
          -17 -4 -8 -9 -17 -49 -61 14 -28 hhcurveto
          -11 -5 -3 -9 -30 92 -30 59 60 24 23 46 12 hvcurveto
          29 116 105 469 121 vvcurveto
          6 vlineto
          endchar
        </CharString>
        <CharString name="breve">
          -228 140 626 rmoveto
          144 callsubr
          -29 -17 -56 -63 hhcurveto
          endchar
        </CharString>
        <CharString name="brokenbar">
          -184 53 -75 rmoveto
          -21 22 -23 13 22 58 266 40 33 -26 34 -16 -15 -3 -8 -22 vhcurveto
          -104 -55 -134 -61 vvcurveto
          127 548 rmoveto
          -20 22 -23 13 23 57 266 40 33 -25 34 -17 -15 -3 -8 -22 vhcurveto
          -104 -55 -134 -62 vvcurveto
          endchar
        </CharString>
        <CharString name="bullet">
          -269 161 239 rmoveto
          11 14 13 5 34 -44 106 -26 -24 -27 -36 -27 -34 59 -61 37 hvcurveto
          endchar
        </CharString>
        <CharString name="c">
          -84 35 160 rmoveto
          -84 72 -59 82 67 113 63 27 11 -3 5 -11 vhcurveto
          63 callgsubr
          hvcurveto
          endchar
        </CharString>
        <CharString name="cacute">
          -84 298 586 -61 callgsubr
          -263 -426 rmoveto
          -84 72 -59 82 67 113 63 27 11 -3 5 -11 vhcurveto
          63 callgsubr
          hvcurveto
          endchar
        </CharString>
        <CharString name="caron">
          -158 163 104 callgsubr
          endchar
        </CharString>
        <CharString name="ccaron">
          -84 308 104 callgsubr
          -273 -452 rmoveto
          -84 72 -59 82 67 113 63 27 11 -3 5 -11 vhcurveto
          63 callgsubr
          hvcurveto
          endchar
        </CharString>
        <CharString name="ccedilla">
          -84 159 -36 rmoveto
          11 20 9 19 5 14 rrcurveto
          5 hlineto
          67 113 63 27 11 -3 5 -11 hvcurveto
          63 callgsubr
          -65 43 -49 56 -20 hvcurveto
          -14 -37 -20 -32 -17 30 callgsubr
          endchar
        </CharString>
        <CharString name="cedilla">
          -281 118 -72 rmoveto
          19 33 11 29 14 vvcurveto
          15 -6 8 -16 -10 -12 -4 -17 -5 vhcurveto
          -14 -44 -26 -39 -19 30 callgsubr
          endchar
        </CharString>
        <CharString name="cent">
          -58 121 161 rmoveto
          84 80 137 80 47 vhcurveto
          -31 -110 -33 -140 -22 -99 rrcurveto
          -46 5 -28 33 43 vvcurveto
          233 351 rmoveto
          7 27 8 15 14 vvcurveto
          18 -10 19 -13 -9 -16 -42 -62 -19 vhcurveto
          -117 -28 -124 -185 -125 vvcurveto
          -73 53 -54 68 -13 vhcurveto
          -8 -37 -5 -25 -6 vvcurveto
          -10 16 -18 7 5 13 37 57 16 vhcurveto
          69 6 101 57 25 vvcurveto
          11 -4 5 -10 -27 -31 -35 -9 -81 vhcurveto
          31 116 39 155 24 94 rrcurveto
          -2 36 22 -44 25 hhcurveto
          7 5 5 9 23 -26 55 -54 11 hvcurveto
          endchar
        </CharString>
        <CharString name="circumflex">
          -182 186 178 callsubr
          endchar
        </CharString>
        <CharString name="colon">
          -260 112 -6 rmoveto
          9 9 9 6 29 -33 91 -24 -18 -20 -31 -22 -28 48 -54 29 hvcurveto
          93 369 rmoveto
          9 10 9 7 28 -33 92 -25 -18 -20 -32 -21 -28 48 -55 29 hvcurveto
          endchar
        </CharString>
        <CharString name="comma">
          -296 146 callgsubr
          endchar
        </CharString>
        <CharString name="copyright">
          202 514 507 rmoveto
          19 -26 26 -21 -103 -122 -168 -103 -55 56 -51 54 63 84 58 24 6 -3 9 -10 vhcurveto
          -21 -42 -46 -70 hhcurveto
          -30 -29 23 30 104 119 120 52 hvcurveto
          16 9 -9 13 hhcurveto
          5 6 3 10 hvcurveto
          -190 -405 rmoveto
          -103 -76 66 121 209 184 119 143 96 78 -84 -119 -201 -127 -111 -195 hvcurveto
          380 302 rmoveto
          145 -97 111 -160 -180 -177 -168 -183 -139 85 -110 163 206 160 146 198 vhcurveto
          endchar
        </CharString>
        <CharString name="currency">
          94 293 173 rmoveto
          -47 -44 49 60 66 46 89 73 49 42 -50 -62 -66 -47 -86 -72 hvcurveto
          150 248 rmoveto
          29 30 42 40 12 vvcurveto
          12 -19 15 -15 -15 -26 -24 -43 -34 vhcurveto
          15 -22 -26 9 -29 hhcurveto
          -33 -30 -11 -17 -25 hvcurveto
          -6 17 -4 14 -1 10 rrcurveto
          20 -3 -33 10 -20 hhcurveto
          -12 -2 -5 -12 -13 18 -34 23 -45 hvcurveto
          -33 -40 -18 -53 -47 vvcurveto
          -36 10 -33 18 -26 vhcurveto
          -40 -41 -26 -24 -8 vvcurveto
          -13 19 -17 15 10 27 27 38 33 vhcurveto
          -14 20 25 -8 27 hhcurveto
          27 25 7 13 22 hvcurveto
          -39 30 28 -24 15 hhcurveto
          8 10 6 8 11 -21 27 -29 43 hvcurveto
          40 42 24 61 52 vvcurveto
          33 -8 30 -15 25 vhcurveto
          endchar
        </CharString>
        <CharString name="d">
          -28 355 132 callgsubr
          65 71 54 63 53 hvcurveto
          -8 -36 -6 -26 239 callsubr
          endchar
        </CharString>
        <CharString name="dagger">
          -176 402 433 rmoveto
          183 callgsubr
          -35 -200 -54 -258 -35 317 callsubr
          15 29 144 149 29 vhcurveto
          308 callgsubr
          endchar
        </CharString>
        <CharString name="daggerdbl">
          -176 150 154 rmoveto
          308 callgsubr
          183 callgsubr
          -13 -79 -17 -89 -16 -80 rrcurveto
          -88 -7 -82 -11 -14 vvcurveto
          -12 19 -22 14 26 31 5 5 69 vhcurveto
          -18 -96 -14 -75 -18 317 callsubr
          13 24 110 128 25 vhcurveto
          170 14 28 6 15 vvcurveto
          14 -27 10 -30 -26 -50 -2 -3 -54 vhcurveto
          endchar
        </CharString>
        <CharString name="danda">
          -249 124 86 callsubr
          endchar
        </CharString>
        <CharString name="dcaron">
          201 385 132 callgsubr
          67 70 56 64 53 hvcurveto
          -9 -37 -6 -28 239 callsubr
          149 -15 40 callsubr
          endchar
        </CharString>
        <CharString name="dcroat">
          2 385 279 rmoveto
          -115 -42 -120 -93 -56 hhcurveto
          -28 -32 23 32 128 119 189 94 46 23 -70 -80 hvcurveto
          142 308 rmoveto
          123 9 30 4 16 vvcurveto
          17 -46 3 -111 vhcurveto
          5 33 2 22 10 vvcurveto
          33 -25 34 -17 -15 -2 -9 -21 vhcurveto
          -2 -33 -4 -34 -4 -35 rrcurveto
          -47 -73 -5 -16 -14 26 -26 27 14 18 2 3 26 hvcurveto
          -11 -65 -14 -66 -15 -63 rrcurveto
          61 -14 -31 41 -55 hhcurveto
          -144 -125 -246 -124 -53 47 -62 64 65 71 54 63 53 hvcurveto
          -8 -36 -6 -26 -14 vvcurveto
          -22 20 -19 13 15 38 146 117 30 vhcurveto
          34 131 22 111 14 78 rrcurveto
          endchar
        </CharString>
        <CharString name="degree">
          -211 74 543 rmoveto
          -61 38 -48 58 92 68 102 80 62 -37 47 -59 -92 -68 -103 -79 vhcurveto
          196 64 rmoveto
          -50 -33 -73 -54 -30 -20 27 36 50 34 75 54 29 20 -28 -37 vhcurveto
          endchar
        </CharString>
        <CharString name="dieresis">
          -266 45 834 rmoveto
          -12 callgsubr
          136 hmoveto
          -12 callgsubr
          endchar
        </CharString>
        <CharString name="divide">
          94 577 350 rmoveto
          12 -17 6 -25 vhcurveto
          -99 -72 -19 -186 -53 -38 330 callgsubr
          232 240 29 34 hvcurveto
          -291 -295 175 callsubr
          -21 -28 48 -49 30 hvcurveto
          76 393 175 callsubr
          -21 -27 48 -50 30 hvcurveto
          endchar
        </CharString>
        <CharString name="dollar">
          -3 270 375 rmoveto
          -46 34 -37 30 27 vvcurveto
          35 65 37 75 22 vhcurveto
          -15 -48 -19 -61 -23 -76 rrcurveto
          121 -194 rmoveto
          -53 -67 -42 -88 -10 vhcurveto
          17 55 21 70 26 84 rrcurveto
          50 -35 41 -34 -35 vvcurveto
          33 495 rmoveto
          6 18 2 15 11 vvcurveto
          16 -5 9 -12 -21 -10 -12 -108 -36 vhcurveto
          -70 -17 -78 -32 -44 -40 rrcurveto
          -15 -12 -12 -40 -27 vvcurveto
          -50 60 -45 63 -44 vhcurveto
          -21 -66 -33 -97 -22 -79 rrcurveto
          13 -73 -47 84 -20 hhcurveto
          -11 -6 -7 -14 -34 56 -76 88 -20 hvcurveto
          -6 -24 -3 -21 -14 vvcurveto
          -15 5 -10 10 13 15 27 52 19 vhcurveto
          121 4 118 67 94 vvcurveto
          58 -70 53 -68 49 vhcurveto
          21 69 24 78 28 85 rrcurveto
          3 20 20 2 18 17 15 -8 13 hhcurveto
          6 5 2 8 19 -18 39 -37 -12 -12 -1 -1 -14 hvcurveto
          endchar
        </CharString>
        <CharString name="dotaccent">
          -397 81 673 107 callgsubr
          endchar
        </CharString>
        <CharString name="dotlessi">
          -246 164 205 callsubr
          endchar
        </CharString>
        <CharString name="dottedcircle">
          154 183 472 rmoveto
          26 18 19 26 25 -18 19 -26 -26 -18 -19 -25 -26 18 -19 26 hvcurveto
          -80 -109 rmoveto
          24 20 19 25 25 -20 19 -24 -26 -20 -19 -25 -25 20 -19 26 hvcurveto
          -15 -125 rmoveto
          26 18 18 327 callsubr
          -18 25 hvcurveto
          52 -117 rmoveto
          25 19 18 26 25 -19 19 -25 -26 -18 -19 -25 -26 18 -18 26 hvcurveto
          102 -77 rmoveto
          25 19 20 26 24 -19 20 -25 -26 -19 -20 -24 -26 19 -20 26 hvcurveto
          126 -14 rmoveto
          26 19 18 26 26 -19 18 -26 301 callgsubr
          121 53 rmoveto
          25 20 18 26 25 -20 19 -25 -25 -19 -19 -25 -26 19 -18 25 hvcurveto
          74 98 rmoveto
          24 19 19 25 26 -19 19 -24 -26 -19 -19 -26 -25 19 -19 26 hvcurveto
          9 134 rmoveto
          25 19 18 26 26 -19 18 -25 301 callgsubr
          -50 118 rmoveto
          26 18 19 327 callsubr
          -19 25 hvcurveto
          -94 68 rmoveto
          25 18 20 24 26 -18 19 -25 -26 -19 -19 -26 -24 19 -20 26 hvcurveto
          -127 15 rmoveto
          26 18 18 26 26 -18 18 -26 301 callgsubr
          endchar
        </CharString>
        <CharString name="doubledanda">
          86 154 86 callsubr
          236 86 callsubr
          endchar
        </CharString>
        <CharString name="dvA">
          220 568 636 rmoveto
          -88 callsubr
          117 -107 callgsubr
        </CharString>
        <CharString name="dvA.init">
          359 -48 callgsubr
          117 -107 callgsubr
        </CharString>
        <CharString name="dvAA">
          500 568 636 rmoveto
          -88 callsubr
          207 -90 callsubr
        </CharString>
        <CharString name="dvAA.init">
          620 -48 callgsubr
          188 -90 callsubr
        </CharString>
        <CharString name="dvAI">
          34 451 173 callgsubr
          -356 -40 callgsubr
          132 hlineto
          -10 -91 -95 -274 -106 vvcurveto
          -71 33 -39 99 105 112 28 39 14 -9 6 -15 vhcurveto
          -39 -33 -34 -123 hhcurveto
          -54 -15 16 47 100 93 275 8 90 hvcurveto
          189 hlineto
          16 -22 26 -33 -66 vvcurveto
          -79 -52 -61 -86 -22 -6 -8 -13 -11 13 -12 29 96 84 70 112 50 -13 43 -19 30 vhcurveto
          126 -107 callgsubr
        </CharString>
        <CharString name="dvAU">
          503 982 3 callsubr
          -375 hlineto
          -88 callsubr
          210 -90 callsubr
        </CharString>
        <CharString name="dvAU.init">
          620 1109 3 callsubr
          -363 hlineto
          -92 callgsubr
          188 -90 callsubr
        </CharString>
        <CharString name="dvAbbreviationsign">
          -239 55 288 106 callsubr
        </CharString>
        <CharString name="dvAcandra">
          220 568 636 rmoveto
          -88 callsubr
          117 -107 callsubr
          56 219 -18 callsubr
        </CharString>
        <CharString name="dvAcandra.init">
          359 -48 callgsubr
          117 -107 callsubr
          58 219 -18 callsubr
        </CharString>
        <CharString name="dvAnusvara">
          -18 814 41 callsubr
          endchar
        </CharString>
        <CharString name="dvAnusvara.amI">
          -18 814 41 callsubr
          endchar
        </CharString>
        <CharString name="dvAvagraha">
          -7 492 240 rmoveto
          112 -293 44 57 vvcurveto
          24 34 33 101 22 vhcurveto
          95 21 70 -6 18 vvcurveto
          17 -24 21 -35 -66 -171 -39 -47 -32 vhcurveto
          -12 -17 -16 -36 -23 -91 284 -19 -94 vvcurveto
          -56 -102 -73 -111 vhcurveto
          -74 -61 99 -22 hhcurveto
          -9 -3 -6 -11 -46 88 -89 93 114 152 88 97 hvcurveto
          endchar
        </CharString>
        <CharString name="dvB">
          -151 95 183 rmoveto
          -53 callsubr
          339 93 rmoveto
          -15 -42 -42 -41 -55 hvcurveto
          -80 callgsubr
          113 197 144 47 13 -3 4 -10 hvcurveto
          -345 360 -104 callsubr
          387 -107 callgsubr
        </CharString>
        <CharString name="dvBA">
          20 326 198 -49 callgsubr
          -6 7 callsubr
          377 111 callsubr
        </CharString>
        <CharString name="dvBH">
          -60 137 130 48 callgsubr
          340 -138 rmoveto
          12 -8 8 -18 -38 -94 -2 -9 -83 vhcurveto
          170 callsubr
          132 13 122 0 23 vvcurveto
          endchar
        </CharString>
        <CharString name="dvBHA">
          140 137 91 callgsubr
          222 callgsubr
          vhcurveto
          -5 -30 -7 -31 -8 -29 rrcurveto
          -127 -13 -131 -8 -77 -14 callsubr
        </CharString>
        <CharString name="dvBH_LA">
          651 137 130 48 callgsubr
          331 176 callgsubr
          142 callgsubr
          -85 -76 -49 -79 -38 vhcurveto
          -45 -1 -79 -3 -72 -7 rrcurveto
          170 callsubr
          74 7 71 3 48 6 rrcurveto
          -7 -25 -4 -28 -29 vvcurveto
          -100 callsubr
        </CharString>
        <CharString name="dvBH_NA">
          140 233 -37 -13 callgsubr
          -69 197 47 callsubr
          -19 -92 -23 -92 -11 -52 -43 callgsubr
          96 callgsubr
        </CharString>
        <CharString name="dvBH_R">
          -60 225 callsubr
          -384 -76 219 callgsubr
          29 89 13 103 9 25 callgsubr
          314 -118 rmoveto
          -38 -94 -2 -9 -83 hvcurveto
          84 callsubr
          111 36 vhcurveto
          127 9 128 6 23 vvcurveto
          12 -8 8 -18 vhcurveto
          endchar
        </CharString>
        <CharString name="dvBH_RA">
          140 164 160 47 callsubr
          -18 -87 -21 -86 47 callgsubr
          266 callsubr
          endchar
        </CharString>
        <CharString name="dvBH_R_YA">
          421 856 -30 callsubr
          29 89 13 103 9 25 callgsubr
          160 176 rmoveto
          217 callgsubr
          222 callgsubr
          hvcurveto
          290 callgsubr
          rrcurveto
          -130 -14 -126 -3 -75 160 callsubr
          111 36 vhcurveto
          61 4 60 4 47 5 rrcurveto
          -44 -35 -39 -23 -14 vvcurveto
          -24 30 -25 23 -1 vhcurveto
          -102 -62 -162 -135 -31 vvcurveto
          318 callgsubr
          64 70 65 88 vhcurveto
          61 45 82 49 18 23 97 23 107 62 70 80 -7 -32 -87 callsubr
        </CharString>
        <CharString name="dvBH_VA">
          432 584 -52 callgsubr
          -447 8 48 callgsubr
          313 176 16 callsubr
          -76 -63 -68 -81 -37 hvcurveto
          -44 -1 -83 -2 -75 -8 rrcurveto
          170 callsubr
          77 7 74 4 48 6 rrcurveto
          -13 -39 -7 -39 -36 vvcurveto
          -98 callsubr
        </CharString>
        <CharString name="dvBH_YA">
          421 856 -38 callgsubr
          89 330 rmoveto
          67 callgsubr
          43 8 -65 -67 -11 0 -12 -1 -11 hvcurveto
          -6 -21 -21 -4 -30 hhcurveto
          160 176 rmoveto
          217 callgsubr
          222 callgsubr
          hvcurveto
          290 callgsubr
          rrcurveto
          -130 -14 -126 -3 -75 160 callsubr
          113 37 vhcurveto
          63 6 61 3 46 5 rrcurveto
          -45 -37 -41 -23 -15 190 callsubr
          119 -107 callsubr
          endchar
        </CharString>
        <CharString name="dvB_BA">
          362 668 198 -49 callgsubr
          -342 hmoveto
          -53 callsubr
          -6 7 callsubr
          719 146 callsubr
          -100 -97 -132 -123 -29 hvcurveto
          -20 -16 -26 -23 -30 -22 -80 callgsubr
          74 111 62 56 67 hvcurveto
          -2 vlineto
          -65 26 -51 64 73 113 60 57 57 vhcurveto
          -23 callsubr
        </CharString>
        <CharString name="dvB_BHA">
          533 119 callgsubr
          441 285 callsubr
          37 91 10 104 11 hvcurveto
          -90 -33 -47 -67 -42 hhcurveto
          -435 53 rmoveto
          -53 callsubr
          524 277 -28 callgsubr
          273 176 72 callsubr
          222 callgsubr
          vhcurveto
          -5 -30 -7 -31 -8 -29 -101 -10 -104 -7 -38 -42 -20 -12 -36 -34 -45 -33 -80 callgsubr
          83 129 78 60 62 hvcurveto
          -61 13 54 -62 53 hhcurveto
          79 61 94 116 36 hvcurveto
          79 8 75 5 47 7 rrcurveto
          -27 -128 -33 -127 -105 callsubr
          96 callgsubr
        </CharString>
        <CharString name="dvB_BH_RA">
          525 549 281 callsubr
          -454 23 rmoveto
          140 callsubr
          33 -65 51 -76 44 -51 rrcurveto
          -31 -48 -52 -24 -47 hhcurveto
          -34 -11 27 39 hvcurveto
          516 277 rmoveto
          67 callgsubr
          43 8 -65 -67 -11 0 -11 -1 -12 hvcurveto
          -6 -21 -21 -4 -30 hhcurveto
          273 176 rmoveto
          131 callsubr
          -28 -29 -20 -31 -24 vhcurveto
          1 -4 -5 0 -6 hhcurveto
          -446 -40 callgsubr
          433 61 callgsubr
          21 vhcurveto
          -5 -30 -6 -30 -9 -30 -82 -8 -78 -4 -43 -25 -22 -11 -51 -46 -60 -43 -42 265 callgsubr
          70 rrcurveto
          29 26 28 19 25 hhcurveto
          21 16 -24 -23 13 hvcurveto
          -23 13 11 -23 11 hhcurveto
          12 3 13 16 40 -44 75 -46 -122 -113 -193 -132 -65 26 -51 64 79 134 84 64 73 hvcurveto
          -50 15 60 -53 49 hhcurveto
          70 50 82 98 31 hvcurveto
          82 callsubr
        </CharString>
        <CharString name="dvB_DA">
          319 723 126 callsubr
          -628 -16 rmoveto
          -53 callsubr
          -6 7 callsubr
          657 -47 callgsubr
          -75 -97 -99 -90 -50 hvcurveto
          -21 -15 -33 -30 -39 -29 -80 callgsubr
          72 106 59 54 68 hvcurveto
          -1 -4 0 -4 -4 -62 callgsubr
        </CharString>
        <CharString name="dvB_DA_mU">
          326 723 127 callgsubr
          -628 -16 rmoveto
          -53 callsubr
          -6 7 callsubr
          657 -47 callgsubr
          -75 -97 -99 -90 -50 hvcurveto
          -21 -15 -33 -30 -39 -29 -80 callgsubr
          72 106 59 54 68 hvcurveto
          -1 -4 0 -4 -4 vvcurveto
          205 callgsubr
          vhcurveto
          -96 callgsubr
        </CharString>
        <CharString name="dvB_DA_mUU">
          326 723 199 -39 callgsubr
          -373 363 rmoveto
          -53 callsubr
          -6 7 callsubr
          657 -47 callgsubr
          -75 -97 -99 -90 -50 hvcurveto
          -21 -15 -33 -30 -39 -29 -80 callgsubr
          72 106 59 54 68 hvcurveto
          -1 -4 0 -4 -4 vvcurveto
          205 callgsubr
          vhcurveto
          -96 callsubr
        </CharString>
        <CharString name="dvB_DHA">
          438 119 callgsubr
          6 -405 rmoveto
          -53 callsubr
          339 93 rmoveto
          -15 -42 -42 -41 -55 hvcurveto
          -80 callgsubr
          113 197 144 47 13 -3 4 -10 hvcurveto
          237 366 -7 callsubr
          188 -6 151 callgsubr
          -14 -74 -17 -79 -18 -84 rrcurveto
          -96 -72 -144 -82 -111 -51 callsubr
          -98 -158 -174 -123 195 callgsubr
          15 hvcurveto
          -48 -47 -42 -57 -37 vvcurveto
          -38 25 -22 43 100 127 53 76 82 vhcurveto
          -23 -106 -24 -94 -17 -73 callsubr
        </CharString>
        <CharString name="dvB_DH_VA">
          733 119 callgsubr
          6 -405 rmoveto
          -53 callsubr
          339 93 rmoveto
          -15 -42 -42 -41 -55 hvcurveto
          -80 callgsubr
          113 197 144 47 13 -3 4 -10 hvcurveto
          451 -154 -71 callsubr
          -214 520 -7 callsubr
          169 -6 16 callsubr
          -83 -68 -81 -91 -35 hvcurveto
          -51 -59 -114 -95 -131 hhcurveto
          -13 -5 4 9 45 75 78 57 39 hvcurveto
          21 14 24 18 13 vvcurveto
          11 -6 6 -13 vhcurveto
          -1 hlineto
          56 callsubr
          105 109 55 56 71 vhcurveto
          -3 -16 -1 -16 -15 vvcurveto
          -98 callsubr
        </CharString>
        <CharString name="dvB_JA">
          551 201 callgsubr
          889 -63 callsubr
          -63 -77 -97 -107 -14 vhcurveto
          -21 -16 -31 -28 179 callgsubr
          84 129 79 60 62 hvcurveto
          -51 7 31 -39 60 hhcurveto
          140 110 80 76 9 -3 9 -4 10 hvcurveto
          -76 callsubr
        </CharString>
        <CharString name="dvB_JHA">
          617 756 37 callsubr
          -313 23 rmoveto
          140 callsubr
          34 -67 53 -78 45 -51 rrcurveto
          -27 -46 -52 -24 -53 hhcurveto
          -34 -11 27 39 hvcurveto
          -6 7 callsubr
          652 218 callsubr
          -22 -1 -52 -1 -44 333 callsubr
          21 -53 160 callgsubr
          252 -42 -100 vvcurveto
          -34 -39 -24 -56 -11 vhcurveto
          91 -36 -53 82 -88 hhcurveto
          -24 -21 -6 -11 -18 hvcurveto
          -16 -8 -27 -20 -33 -22 -42 57 -55 92 -34 72 rrcurveto
          29 26 28 19 25 hhcurveto
          21 16 -24 -23 13 hvcurveto
          -23 13 11 -23 11 hhcurveto
          12 3 13 16 40 -44 75 -46 -122 -113 -193 -132 -65 26 -51 64 62 96 45 44 63 hvcurveto
          -84 5 99 -45 103 hhcurveto
          26 callgsubr
        </CharString>
        <CharString name="dvB_J_YA">
          857 1292 -102 callgsubr
          -958 -405 rmoveto
          -53 callsubr
          -6 7 callsubr
          807 111 callgsubr
          -54 -64 -71 -88 -26 vhcurveto
          -21 -13 -35 -32 -42 -32 -80 callgsubr
          82 126 76 59 63 hvcurveto
          -11 vlineto
          264 callgsubr
          33 41 7 11 37 hvcurveto
          -37 -29 -31 -19 -13 190 callsubr
          119 -107 callsubr
          endchar
        </CharString>
        <CharString name="dvB_JxA">
          551 434 -32 callgsubr
          -339 137 rmoveto
          -53 callsubr
          -6 7 callsubr
          889 -63 callsubr
          -63 -77 -97 -107 -14 vhcurveto
          -21 -16 -31 -28 179 callgsubr
          84 129 79 60 62 hvcurveto
          -51 7 31 -39 60 hhcurveto
          140 110 80 76 9 -3 9 -4 10 hvcurveto
          -76 callsubr
        </CharString>
        <CharString name="dvB_LA">
          566 201 callgsubr
          921 hlineto
          -54 callgsubr
          -110 -94 -82 -123 -19 vhcurveto
          -21 -15 -31 -29 179 callgsubr
          82 128 77 59 62 hvcurveto
          -105 5 54 -87 90 hhcurveto
          108 callgsubr
          hvcurveto
          -74 callgsubr
          -27 -130 -34 -131 -21 -104 callgsubr
          -27 callsubr
        </CharString>
        <CharString name="dvB_L_YA">
          873 1308 -102 callgsubr
          -974 -405 rmoveto
          -53 callsubr
          -6 7 callsubr
          823 hlineto
          257 callgsubr
          -39 -41 hvcurveto
          -51 -12 -113 -32 -68 -29 326 callsubr
          -110 -97 -77 -127 -19 vhcurveto
          -21 -16 -32 -29 179 callgsubr
          83 128 77 60 62 hvcurveto
          -105 5 56 -88 84 hhcurveto
          46 43 25 23 12 -5 10 -18 hvcurveto
          207 callsubr
          18 6 17 6 16 5 rrcurveto
          -33 -25 -26 -17 -12 190 callsubr
          119 -107 callsubr
          endchar
        </CharString>
        <CharString name="dvB_NA">
          145 callsubr
          -281 -348 -13 callgsubr
          -98 129 callgsubr
          437 231 callgsubr
          -14 -65 -14 -58 -8 -38 -43 callgsubr
          117 -107 callgsubr
        </CharString>
        <CharString name="dvB_R">
          -151 148 167 rmoveto
          -31 -13 20 30 40 23 58 32 49 hvcurveto
          29 -60 39 -58 39 -47 rrcurveto
          -19 -34 -39 -13 -45 hhcurveto
          286 159 rmoveto
          -26 -43 -60 -46 -65 hvcurveto
          -37 56 -39 66 -31 67 rrcurveto
          29 26 28 20 25 hhcurveto
          21 16 -24 -23 13 hvcurveto
          -23 13 11 -23 11 hhcurveto
          12 3 13 16 40 -44 75 -46 -113 -116 -179 -116 -60 28 -36 61 15 18 2 5 19 hvcurveto
          -81 -74 -77 -83 -21 237 callsubr
          26 89 105 86 101 vhcurveto
          93 79 88 79 26 vvcurveto
          13 -3 4 -10 vhcurveto
          -345 310 -104 callsubr
          414 -107 callgsubr
        </CharString>
        <CharString name="dvB_RA">
          145 callsubr
          -319 325 -104 callsubr
          377 231 callgsubr
          92 callgsubr
        </CharString>
        <CharString name="dvB_SA">
          619 95 183 rmoveto
          -53 callsubr
          339 93 rmoveto
          -15 -42 -42 -41 -55 hvcurveto
          -80 callgsubr
          113 197 144 47 13 -3 4 -10 hvcurveto
          632 312 -16 callgsubr
          -270 48 rmoveto
          -10 -8 -1 -1 -6 hvcurveto
          1 -6 -8 1 -10 hhcurveto
          -387 -40 callgsubr
          387 hlineto
          10 8 1 1 6 hvcurveto
          -1 6 8 -1 10 hhcurveto
          80 -102 callsubr
          123 125 11 37 99 hvcurveto
          -27 -129 -33 -127 -105 callsubr
          118 -107 callsubr
          endchar
        </CharString>
        <CharString name="dvB_SHA">
          577 119 callgsubr
          6 -405 rmoveto
          -53 callsubr
          339 93 rmoveto
          -15 -42 -42 -41 -55 hvcurveto
          -80 callgsubr
          113 197 144 47 13 -3 4 -10 hvcurveto
          283 178 -94 callgsubr
          508 298 rmoveto
          -37 -10 -9 -15 -15 10 -9 37 hvcurveto
          59 -90 callsubr
        </CharString>
        <CharString name="dvB_TA">
          414 201 callgsubr
          770 102 callgsubr
          -111 -93 -38 -90 -5 hvcurveto
          -20 -16 -28 -24 -32 -24 -80 callgsubr
          82 125 75 60 64 hvcurveto
          -103 23 93 -88 49 hhcurveto
          17 7 9 10 hvcurveto
          -84 callsubr
        </CharString>
        <CharString name="dvB_VA">
          337 489 -52 callgsubr
          -394 61 rmoveto
          -53 callsubr
          -6 7 callsubr
          709 -37 callgsubr
          -101 -79 -120 -112 -24 hvcurveto
          -21 -17 -28 -24 -33 -25 -80 callgsubr
          77 116 67 57 66 hvcurveto
          -3 vlineto
          -98 callsubr
        </CharString>
        <CharString name="dvB_YA">
          397 832 -102 callgsubr
          -498 -405 rmoveto
          -53 callsubr
          -6 7 callsubr
          347 256 callgsubr
          -94 -71 -60 -44 hvcurveto
          -5 -4 -7 -5 -9 -7 -4 -3 -4 -3 -3 -3 -18 -15 -22 -18 -24 -18 -80 callgsubr
          76 113 64 57 66 hvcurveto
          -8 11 12 -6 11 8 callsubr
          119 -107 callsubr
          endchar
        </CharString>
        <CharString name="dvC">
          -19 162 callsubr
          161 120 96 29 12 -7 4 -9 vhcurveto
          -34 -74 -91 -149 246 callgsubr
          57 78 73 97 29 hvcurveto
          -301 295 -104 callsubr
          522 -107 callgsubr
        </CharString>
        <CharString name="dvCA">
          180 305 callsubr
          511 hlineto
          -10 -51 -11 -54 -12 -56 rrcurveto
          -159 -53 -129 -76 -99 -51 callgsubr
          60 56 0 -1 52 hvcurveto
          -61 -38 -48 -58 -55 vvcurveto
          -61 38 -39 82 333 callgsubr
          vhcurveto
          310 callgsubr
          -98 -18 -22 callgsubr
        </CharString>
        <CharString name="dvCH">
          150 744 588 rmoveto
          36 305 callgsubr
          -37 hvcurveto
          -670 -40 callgsubr
          197 hlineto
          -92 -46 -95 -111 -64 vvcurveto
          -50 53 -25 60 vhcurveto
          211 callsubr
          189 311 132 189 -8 callgsubr
          155 -173 rmoveto
          35 12 -30 -35 -52 -32 -46 -49 -40 hvcurveto
          -24 7 -28 19 60 vvcurveto
          59 32 58 54 vhcurveto
          endchar
        </CharString>
        <CharString name="dvCHA">
          150 552 -70 callsubr
          -450 406 -104 callsubr
          197 299 callsubr
          165 callgsubr
        </CharString>
        <CharString name="dvCH_R">
          150 454 298 56 callgsubr
          vhcurveto
          14 hlineto
          -45 -58 -55 -88 -19 112 callsubr
          118 hvcurveto
          178 38 206 116 154 vvcurveto
          -8 callgsubr
          359 hlineto
          36 305 callgsubr
          -37 hvcurveto
          endchar
        </CharString>
        <CharString name="dvCH_RA">
          140 552 -70 callsubr
          -450 406 -104 callsubr
          197 299 callsubr
          211 callsubr
          vhcurveto
          13 hlineto
          -45 -58 -55 -88 -19 88 callsubr
          -77 83 -1 118 hvcurveto
          182 41 216 125 159 vvcurveto
          54 callsubr
        </CharString>
        <CharString name="dvCH_R_YA">
          708 1143 -102 callgsubr
          -450 -290 56 callgsubr
          vhcurveto
          13 hlineto
          -45 -58 -55 -88 -19 112 callsubr
          118 hvcurveto
          179 38 206 116 154 vvcurveto
          -8 callgsubr
          362 143 callsubr
          -166 -200 -75 -32 190 callsubr
          119 -107 callsubr
          endchar
        </CharString>
        <CharString name="dvCH_YA">
          739 1174 -102 callgsubr
          -481 -290 56 callgsubr
          189 311 132 189 -8 callgsubr
          393 143 callsubr
          -166 -200 -75 -32 190 callsubr
          119 -107 callsubr
          endchar
        </CharString>
        <CharString name="dvC_CA">
          529 305 callsubr
          860 hlineto
          -10 -51 -11 -54 -12 -56 rrcurveto
          -159 -53 -129 -76 -99 -51 callgsubr
          60 56 0 -1 52 hvcurveto
          -61 -38 -48 -58 -55 vvcurveto
          -9 1 -9 2 -8 vhcurveto
          -24 -42 -71 -56 -116 hhcurveto
          -46 -25 13 33 57 78 73 97 29 hvcurveto
          5 2 rlineto
          179 callsubr
          118 95 51 39 43 vhcurveto
          -22 20 32 -12 46 hhcurveto
          333 callgsubr
          hvcurveto
          310 callgsubr
          -98 -18 -22 callgsubr
        </CharString>
        <CharString name="dvC_CHA">
          579 981 -70 callsubr
          -841 406 -104 callsubr
          588 299 callsubr
          -8 -6 -7 -7 -8 -8 rrcurveto
          -42 -55 -102 -93 -137 hhcurveto
          -46 -25 13 33 57 78 73 97 29 hvcurveto
          5 2 rlineto
          179 callsubr
          73 73 25 33 61 vhcurveto
          -8 -20 -5 -18 -18 85 callgsubr
        </CharString>
        <CharString name="dvC_CH_VA">
          546 952 398 rmoveto
          22 11 -18 -32 -68 -64 -65 -88 -49 hvcurveto
          127 29 35 105 55 hhcurveto
          -247 -629 rmoveto
          -18 -55 -53 -13 -42 hhcurveto
          -57 -62 3 33 38 87 70 56 52 47 -50 -57 29 hvcurveto
          -596 861 -104 callsubr
          555 hlineto
          -90 -44 -94 -104 -64 vvcurveto
          -50 61 -22 53 vhcurveto
          8 hlineto
          -30 -22 -31 -29 -25 -31 rrcurveto
          -19 -39 -73 -67 -128 hhcurveto
          -46 -25 13 33 57 78 73 97 29 hvcurveto
          5 2 rlineto
          179 callsubr
          80 69 23 28 50 vhcurveto
          -4 -15 -3 -14 -15 vvcurveto
          -31 22 -28 48 75 82 18 30 76 vhcurveto
          -11 -63 -12 -69 -12 -62 -11 -52 rlinecurve
          54 -34 -49 43 -52 hhcurveto
          -86 -112 -90 -68 -61 70 -25 87 53 52 11 16 47 hvcurveto
          -4 -24 -3 -16 -10 vvcurveto
          -12 3 -8 10 15 14 12 24 5 vhcurveto
          22 105 25 134 24 116 14 69 rcurveline
          121 59 93 89 91 vvcurveto
          59 -23 43 -54 -102 -47 -148 -161 -32 vhcurveto
          -34 -78 -88 -21 -77 hhcurveto
          -10 -5 4 8 57 63 71 59 46 hvcurveto
          20 16 60 35 19 108 callsubr
          254 callsubr
          -26 -30 -10 -41 hhcurveto
          -43 -27 9 21 55 132 133 73 hvcurveto
          33 5 -39 17 hhcurveto
          7 7 8 8 14 -8 19 -13 14 hvcurveto
          375 -107 callgsubr
        </CharString>
        <CharString name="dvC_MA">
          630 791 -79 callgsubr
          -543 232 callsubr
          641 58 callsubr
          -73 -12 -66 -15 -38 -26 rrcurveto
          -17 -39 -73 -70 -131 hhcurveto
          -46 -25 13 33 57 78 73 97 29 hvcurveto
          5 2 rlineto
          179 callsubr
          92 78 31 32 50 vhcurveto
          -57 12 57 -73 56 hhcurveto
          74 37 103 116 19 hvcurveto
          -90 callgsubr
        </CharString>
        <CharString name="dvC_NA">
          180 283 -37 -13 callgsubr
          -172 129 callgsubr
          511 hlineto
          -7 -37 -8 -37 -8 -39 rrcurveto
          -184 -51 -152 -69 -88 hhcurveto
          -46 -25 13 33 57 78 73 97 29 hvcurveto
          5 2 rlineto
          179 callsubr
          77 108 37 95 78 vhcurveto
          -19 -89 -21 -88 -11 -50 -43 callgsubr
          119 -107 callgsubr
        </CharString>
        <CharString name="dvC_R">
          -29 162 callsubr
          27 19 3 9 26 vhcurveto
          -73 -57 -78 -72 -21 vvcurveto
          318 callgsubr
          54 55 67 88 vhcurveto
          94 71 88 58 27 vvcurveto
          10 -6 4 -9 vhcurveto
          -34 -74 -91 -149 246 callgsubr
          59 81 71 95 30 hvcurveto
          -302 294 -104 callsubr
          530 -107 callgsubr
        </CharString>
        <CharString name="dvC_RA">
          180 305 callsubr
          511 hlineto
          -7 -37 -8 -37 -8 -39 rrcurveto
          -184 -51 -152 -69 -88 hhcurveto
          -46 -25 13 33 57 78 73 97 29 hvcurveto
          5 2 rlineto
          179 callsubr
          77 108 37 95 78 vhcurveto
          -18 -82 -19 -81 -11 -52 rrcurveto
          33 -26 -39 33 -38 -82 callgsubr
          -44 -32 24 hvcurveto
          1 -1 rlineto
          -8 5 14 -10 6 hhcurveto
          1 2 1 3 1 hvcurveto
          2 3 18 33 37 158 28 118 rlinecurve
          -103 callgsubr
          119 -107 callgsubr
        </CharString>
        <CharString name="dvC_YA">
          582 1017 -102 callgsubr
          -667 -26 callgsubr
          510 hlineto
          -99 callsubr
          -127 -116 -73 -55 -42 hvcurveto
          -31 -49 -102 -80 -127 hhcurveto
          -46 -25 17 29 49 78 72 97 29 hvcurveto
          5 2 rlineto
          0 298 callsubr
          3 5 5 6 vvcurveto
          20 -25 10 -49 vhcurveto
          -146 268 callgsubr
          -33 22 hvcurveto
          62 57 -1 54 hhcurveto
          -63 -37 -51 -56 -53 vvcurveto
          -52 38 -44 77 110 103 53 45 60 vhcurveto
          -11 11 15 -7 12 8 callsubr
          119 -107 callsubr
          endchar
        </CharString>
        <CharString name="dvCandrabindu">
          902 vmoveto
          -10 -11 -15 -13 -17 43 -47 15 6 5 3 12 21 -31 56 -17 hvcurveto
          -196 -37 95 callgsubr
        </CharString>
        <CharString name="dvD">
          -20 12 -236 -52 callsubr
          365 435 89 callgsubr
          -309 69 callsubr
          332 -47 callgsubr
          -105 -150 -196 -91 -74 79 -38 104 -3 hvcurveto
          -83 callgsubr
        </CharString>
        <CharString name="dvDA">
          -20 377 126 callsubr
          -309 69 callsubr
          332 -47 callgsubr
          -105 -150 -196 -91 -74 79 -38 104 -3 hvcurveto
          -83 callgsubr
        </CharString>
        <CharString name="dvDA_mU">
          -20 377 127 callgsubr
          -382 69 callsubr
          405 166 callgsubr
          -96 callgsubr
        </CharString>
        <CharString name="dvDA_mUU">
          -20 377 199 -39 callgsubr
          -125 816 -104 callsubr
          403 166 callgsubr
          -96 callsubr
        </CharString>
        <CharString name="dvDA_mvR">
          -27 377 199 93 callsubr
          -42 -58 -22 -73 -6 hvcurveto
          51 21 33 42 50 hhcurveto
          -342 69 callsubr
          365 -47 callgsubr
          -105 -150 -196 -91 -72 75 -38 99 -5 hvcurveto
          -7 -30 -3 -31 -27 vvcurveto
          -9 vlineto
          -79 -9 -133 -81 -83 vvcurveto
          -59 59 -37 242 callgsubr
          -65 -38 19 31 59 127 71 55 hvcurveto
          157 callgsubr
          25 -7 79 61 16 hvcurveto
          100 5 94 38 78 vvcurveto
          38 -29 31 -43 -73 -50 -64 -76 -28 vhcurveto
          -87 1 -46 24 42 vvcurveto
          74 122 152 76 49 20 -30 -2 25 vhcurveto
          1 0 1 hlineto
          104 callsubr
          14 17 vvcurveto
          120 29 42 12 27 vhcurveto
          142 -107 callgsubr
        </CharString>
        <CharString name="dvDD">
          -25 40 12 -52 callsubr
          44 624 -104 callsubr
          308 16 callgsubr
          -17 7 -19 15 -12 hvcurveto
          -72 callsubr
        </CharString>
        <CharString name="dvDDA">
          -25 84 -63 callgsubr
          308 16 callgsubr
          -17 7 -19 15 -12 hvcurveto
          -72 callsubr
        </CharString>
        <CharString name="dvDDH">
          60 50 12 -52 callsubr
          405 214 -40 callsubr
          10 8 14 11 1 hvcurveto
          1 4 0 4 5 vvcurveto
          122 16 26 2 41 vhcurveto
          148 -107 callsubr
          endchar
        </CharString>
        <CharString name="dvDDHA">
          60 404 226 -40 callsubr
          10 8 14 11 1 hvcurveto
          1 4 0 4 5 vvcurveto
          122 16 26 2 41 vhcurveto
          148 -107 callsubr
          endchar
        </CharString>
        <CharString name="dvDDH_DDHA">
          33 304 217 rmoveto
          46 22 19 53 36 17 -13 -18 -31 -59 -22 -67 -8 vhcurveto
          -1 9 -1 9 9 vvcurveto
          -82 -413 rmoveto
          28 33 16 28 43 23 -23 -21 -29 -32 -23 -54 -11 vhcurveto
          -31 21 -10 20 22 vvcurveto
          -164 832 208 callgsubr
          -12 34 41 -6 41 hhcurveto
          16 hlineto
          9 -37 14 -42 16 -32 rrcurveto
          4 -19 -21 3 -23 hhcurveto
          -100 -157 -102 -108 -97 98 -36 102 122 84 55 61 46 -43 40 -70 -69 -40 -33 -46 -27 18 -26 24 -22 hvcurveto
          -1 -7 -8 0 -8 hhcurveto
          -95 -54 29 59 71 110 91 97 hvcurveto
          61 21 -16 25 hhcurveto
          8 8 2 11 hvcurveto
          1 vlineto
          1 vlineto
          21 -38 63 -20 71 vhcurveto
          101 14 64 49 49 vvcurveto
          42 -34 36 -67 -86 -35 -46 -73 -6 1 -8 1 -9 vhcurveto
          -9 155 callsubr
        </CharString>
        <CharString name="dvDDH_R">
          60 -23 -136 -52 callsubr
          478 362 rmoveto
          31 20 -31 -18 -47 -91 -23 -96 -2 hvcurveto
          57 36 53 64 47 hhcurveto
          -326 151 callsubr
          353 hlineto
          -16 -33 -8 -61 -51 vvcurveto
          15 -20 -22 12 -17 hhcurveto
          -93 -229 -197 -104 -38 41 -39 57 -18 hvcurveto
          17 -6 19 -4 20 -3 rrcurveto
          -45 -58 -60 -94 184 callsubr
          22 -71 78 -7 111 hvcurveto
          121 5 112 112 callgsubr
        </CharString>
        <CharString name="dvDDH_RA">
          60 455 280 callgsubr
          -326 151 callsubr
          353 hlineto
          -16 -33 -8 -61 -51 vvcurveto
          15 -20 -22 12 -17 hhcurveto
          -93 -229 -197 -104 -38 41 -39 57 -18 hvcurveto
          17 -5 18 -5 19 -3 rrcurveto
          -45 -58 -60 -94 184 callsubr
          22 -71 78 -7 111 hvcurveto
          122 5 113 112 callgsubr
        </CharString>
        <CharString name="dvDDH_VA">
          38 307 204 rmoveto
          59 9 21 19 47 hhcurveto
          36 17 -13 -18 -32 -62 -22 -70 -8 hvcurveto
          -201 -399 rmoveto
          -48 4 -21 18 3 37 9 77 108 28 79 -4 -4 -48 -4 -48 -2 -44 -39 -20 -37 -4 -44 4 rrcurveto
          -41 846 208 callgsubr
          32 -11 39 -6 39 -1 -5 -41 -6 -52 -5 -54 -5 1 -5 0 -5 1 -82 8 -137 -42 -13 -107 -6 -58 34 -39 69 -6 51 -4 43 4 41 17 rrcurveto
          -67 -1 5 -48 15 hhcurveto
          9 4 4 20 3 hvcurveto
          2 15 24 294 16 156 rrcurveto
          113 10 73 52 52 vvcurveto
          42 -34 36 -67 -80 -30 -46 -73 -11 vhcurveto
          -3 -23 rlineto
          -4 155 callsubr
        </CharString>
        <CharString name="dvDDH_YA">
          677 622 588 rmoveto
          5 4 0 4 13 13 0 14 hhcurveto
          437 hlineto
          181 callgsubr
          -40 -78 -140 -50 -38 -126 vhcurveto
          118 16 25 2 41 vhcurveto
          -70 -362 -40 callsubr
          1 1 0 1 1 hvcurveto
          21 125 121 61 115 hhcurveto
          15 11 -5 -15 hvcurveto
          -83 -178 -85 -26 138 callsubr
          -97 callsubr
          57 hlineto
          47 21 7 15 21 -31 5 -60 hvcurveto
          endchar
        </CharString>
        <CharString name="dvDDHxA">
          60 169 39 -83 callsubr
          286 187 -40 callsubr
          10 8 14 11 1 hvcurveto
          1 4 0 4 5 vvcurveto
          122 16 26 2 41 vhcurveto
          148 -107 callsubr
          endchar
        </CharString>
        <CharString name="dvDD_DDA">
          -60 44 -63 callgsubr
          351 hlineto
          -8 -26 -4 -31 62 callgsubr
          12 11 1 1 11 hvcurveto
          -7 -25 -3 -29 -20 103 callgsubr
          -127 -48 -49 -15 8 -20 15 -12 hvcurveto
          58 -44 155 0 -65 vvcurveto
          -30 -43 -30 -73 -80 -39 39 42 -19 vhcurveto
          14 -6 -6 8 -17 hhcurveto
          -10 -7 -7 -14 -61 81 -69 105 96 66 46 63 hvcurveto
          113 -226 -3 39 vvcurveto
          31 102 21 39 vhcurveto
          33 24 -17 17 hhcurveto
          18 9 11 25 80 11 28 4 23 hvcurveto
          46 18 28 34 41 204 callgsubr
          75 9 27 6 21 hvcurveto
          170 -107 callgsubr
        </CharString>
        <CharString name="dvDD_DDHA">
          -86 125 -209 rmoveto
          29 31 15 41 47 21 -25 -18 -32 -48 -19 -64 -7 vhcurveto
          -19 21 -9 18 18 vvcurveto
          -101 845 -104 callsubr
          357 hlineto
          -9 -25 -4 -32 62 callgsubr
          12 11 1 1 11 hvcurveto
          -10 -32 -4 -41 -24 vvcurveto
          -7 0 -7 1 -6 vhcurveto
          10 -22 -26 8 -22 hhcurveto
          -86 -191 -141 -95 -34 20 -26 31 -18 hvcurveto
          -23 39 57 -10 52 hhcurveto
          114 95 46 58 55 -58 30 -58 -64 -50 -28 -53 -22 8 -21 16 -21 hvcurveto
          -1 hlineto
          -77 -71 22 46 71 156 115 72 42 19 -25 -3 24 hvcurveto
          2 318 callsubr
          3 hlineto
          14 2 5 11 23 vvcurveto
          88 15 36 5 29 vhcurveto
          47 18 29 34 42 204 callgsubr
          81 11 21 5 21 hvcurveto
          188 -107 callgsubr
        </CharString>
        <CharString name="dvDD_R">
          -25 -18 -135 -52 callsubr
          102 771 28 callsubr
        </CharString>
        <CharString name="dvDD_RA">
          -25 84 636 28 callsubr
        </CharString>
        <CharString name="dvDD_VA">
          -15 248 -76 rmoveto
          -25 -29 -41 -19 -52 hhcurveto
          -47 -35 11 28 41 61 30 43 44 34 -35 -31 22 hvcurveto
          -194 712 -104 callsubr
          356 hlineto
          -8 -26 -4 -31 62 callgsubr
          14 13 1 2 13 hvcurveto
          -14 -40 -14 -58 -12 -57 rrcurveto
          31 -28 -38 23 -42 hhcurveto
          -73 -82 -60 -60 -44 52 -36 75 44 38 13 18 33 hvcurveto
          -6 -37 -4 -28 -9 vvcurveto
          -20 5 -7 7 18 21 90 94 18 vhcurveto
          12 65 25 87 8 46 rrcurveto
          49 18 30 35 42 204 callgsubr
          75 9 27 6 21 hvcurveto
          140 -107 callgsubr
        </CharString>
        <CharString name="dvDD_YA">
          558 993 158 callsubr
          -40 vhcurveto
          -66 -52 -31 -78 hhcurveto
          -15 -22 0 3 -21 hvcurveto
          1 74 9 28 5 22 rrcurveto
          -358 -26 callgsubr
          308 16 callgsubr
          -17 7 -19 15 -12 hvcurveto
          56 -45 184 -7 -61 vvcurveto
          -43 -47 -36 -77 -86 -38 38 41 107 callsubr
          -14 -6 -11 -17 -59 75 -64 112 105 68 60 70 hvcurveto
          125 -255 -10 39 vvcurveto
          33 118 41 39 32 23 -16 -1 17 vhcurveto
          0 vlineto
          -6 20 34 -1 29 72 66 29 62 hhcurveto
          15 11 -5 -15 hvcurveto
          -83 -178 -85 -26 138 callsubr
          -65 callsubr
        </CharString>
        <CharString name="dvDDxA">
          -25 152 39 -83 callsubr
          -68 597 -104 callsubr
          308 16 callgsubr
          -17 7 -19 15 -12 hvcurveto
          -72 callsubr
        </CharString>
        <CharString name="dvDH">
          -126 248 callsubr
          -18 -232 rmoveto
          56 callsubr
          174 187 152 55 12 -4 5 -9 vhcurveto
          -21 -146 -176 -178 hhcurveto
          -13 -5 4 9 45 75 78 57 39 hvcurveto
          21 14 24 18 13 108 callsubr
          endchar
        </CharString>
        <CharString name="dvDHA">
          86 248 callsubr
          188 -6 151 callgsubr
          -14 -74 -17 -79 -18 -84 rrcurveto
          -96 -72 -144 -82 -111 -51 callsubr
          -98 -158 -174 -123 195 callgsubr
          15 hvcurveto
          -48 -47 -42 -57 -37 vvcurveto
          -38 25 -22 43 100 127 53 76 82 vhcurveto
          -23 -106 -24 -94 -17 -73 callsubr
        </CharString>
        <CharString name="dvDH_MA">
          529 690 -79 callgsubr
          -234 491 -7 callsubr
          183 -6 -31 callgsubr
          -54 -3 -70 -8 -66 -69 -11 -64 -14 -39 -24 rrcurveto
          -24 -40 -115 -118 -148 hhcurveto
          -13 -5 4 9 45 75 78 57 39 hvcurveto
          21 14 24 18 13 vvcurveto
          11 -6 6 -13 vhcurveto
          -1 hlineto
          56 callsubr
          93 112 55 52 67 vhcurveto
          -57 14 55 -68 54 hhcurveto
          74 37 103 116 19 hvcurveto
          -90 callgsubr
        </CharString>
        <CharString name="dvDH_NA">
          86 199 -37 -13 callgsubr
          120 679 rmoveto
          17 9 -8 -17 -62 -86 -65 -79 -11 -11 2 2 -10 hvcurveto
          73 44 84 75 43 hhcurveto
          188 -6 7 callgsubr
          242 callsubr
          10 hvcurveto
          -46 -41 -40 -53 -38 267 callgsubr
          -18 -85 -20 -82 -10 -48 -43 callgsubr
          118 -107 callsubr
          endchar
        </CharString>
        <CharString name="dvDH_N_YA">
          432 867 -102 callgsubr
          -317 -162 rmoveto
          -2 hlineto
          -2 -4 -1 -2 -4 hvcurveto
          -5 -1 -6 -3 -6 -3 rrcurveto
          -14 -30 -47 -23 -52 hhcurveto
          -25 -8 15 22 10 2 12 4 12 hvcurveto
          -4 14 16 -2 15 87 callgsubr
          -114 -95 -71 -59 -44 hvcurveto
          -37 -56 -102 -69 -123 hhcurveto
          -21 -7 11 12 45 85 94 57 39 hvcurveto
          21 14 24 18 13 108 callsubr
          7 216 rmoveto
          17 9 -8 -17 -62 -86 -65 -79 -11 -11 2 2 -10 hvcurveto
          73 44 84 75 43 hhcurveto
          -80 -689 rmoveto
          -33 -38 -18 -39 -29 -25 4 30 22 21 28 32 31 vhcurveto
          55 -19 23 -21 -24 vvcurveto
          157 683 269 callgsubr
          242 callsubr
          11 hvcurveto
          -47 -46 -40 -71 -38 vvcurveto
          -38 35 -32 43 13 15 2 2 16 vhcurveto
          -86 -60 -70 -66 -52 vvcurveto
          -57 48 -27 60 67 52 35 59 44 -34 36 -54 16 vhcurveto
          60 50 81 52 66 40 16 8 rcurveline
          -12 11 17 -10 14 hhcurveto
          115 151 72 104 91 hvcurveto
          -7 -32 -65 callsubr
        </CharString>
        <CharString name="dvDH_R">
          -129 248 callsubr
          -18 -232 rmoveto
          56 callsubr
          59 53 11 26 51 vhcurveto
          -72 -77 -113 -114 -24 237 callsubr
          24 97 106 79 75 vhcurveto
          43 46 97 93 26 vvcurveto
          8 -3 5 -8 -10 -16 -11 -11 -14 vhcurveto
          -42 -54 -99 -60 -121 hhcurveto
          -13 -5 4 9 45 75 78 57 39 hvcurveto
          21 14 24 18 13 108 callsubr
          endchar
        </CharString>
        <CharString name="dvDH_RA">
          86 319 642 rmoveto
          17 9 -8 -17 -62 -86 -65 -79 -11 -11 2 2 -10 hvcurveto
          73 44 84 75 43 hhcurveto
          188 -6 7 callgsubr
          242 callsubr
          10 hvcurveto
          -46 -41 -40 -53 -38 267 callgsubr
          -17 -81 -19 -79 -11 -48 rrcurveto
          28 -21 -38 28 -42 hhcurveto
          -49 -53 -34 -37 -34 hvcurveto
          -54 -58 -69 -79 -19 vvcurveto
          -8 6 -6 11 21 66 82 55 52 vhcurveto
          35 33 39 21 33 hhcurveto
          38 31 -29 202 callgsubr
        </CharString>
        <CharString name="dvDH_VA">
          381 533 -52 callgsubr
          -214 520 -7 callsubr
          169 -6 16 callsubr
          -83 -68 -81 -91 -35 hvcurveto
          -51 -59 -114 -95 -131 hhcurveto
          -13 -5 4 9 45 75 78 57 39 hvcurveto
          21 14 24 18 13 vvcurveto
          11 -6 6 -13 vhcurveto
          -1 hlineto
          56 callsubr
          105 109 55 56 71 vhcurveto
          -3 -16 -1 -16 -15 vvcurveto
          -98 callsubr
        </CharString>
        <CharString name="dvDH_YA">
          432 867 -20 callsubr
          17 232 -7 callsubr
          77 -6 269 callgsubr
          66 callgsubr
          -35 32 -35 46 66 109 39 42 76 vhcurveto
          -12 11 17 -9 13 hhcurveto
          115 151 72 104 91 hvcurveto
          -7 -32 -65 callsubr
        </CharString>
        <CharString name="dvD_BA">
          90 487 126 callsubr
          -291 -311 rmoveto
          -48 -22 22 40 28 14 22 21 16 hvcurveto
          313 callgsubr
          115 167 101 callsubr
          -56 40 -50 78 45 41 23 33 28 vhcurveto
          -48 3 9 -28 18 99 callsubr
        </CharString>
        <CharString name="dvD_BHA">
          145 542 199 228 callgsubr
          -430 -408 rmoveto
          -20 -35 31 24 25 31 29 71 14 hvcurveto
          -52 -1 -15 -71 -31 hhcurveto
          -47 218 rmoveto
          -18 -7 12 15 31 30 54 31 22 15 -39 -48 9 hvcurveto
          -14 -26 -28 -11 -28 hhcurveto
          3 627 -104 callsubr
          497 166 callgsubr
          3 hlineto
          -7 -30 -7 -32 -6 -32 -2 -9 rcurveline
          7 -41 -66 1 -34 hhcurveto
          -11 -11 0 -1 -11 hvcurveto
          75 -4 -24 140 -69 hhcurveto
          -65 -47 -87 -54 -44 32 -24 36 33 31 11 16 28 hvcurveto
          2 -14 1 -13 1 -13 rrcurveto
          -79 -16 -65 -39 -50 vvcurveto
          -42 65 -54 38 62 22 100 70 3 vhcurveto
          1 16 17 1 19 hhcurveto
          29 56 -3 -1 30 hvcurveto
          -11 -55 -14 -64 -19 vvcurveto
          -10 5 -8 12 22 13 75 114 26 174 callsubr
          -64 -38 -60 -80 -25 vhcurveto
          -17 hlineto
          -97 callgsubr
          143 -107 callgsubr
        </CharString>
        <CharString name="dvD_B_RA">
          53 427 126 callsubr
          -361 -249 rmoveto
          28 14 22 21 16 vhcurveto
          313 callgsubr
          -48 -22 22 40 hvcurveto
          185 105 101 callsubr
          -53 36 -47 69 -6 vhcurveto
          -54 -46 -40 -41 -16 237 callsubr
          19 69 78 65 88 vhcurveto
          6 5 9 6 8 6 8 5 rlinecurve
          -44 4 9 -25 17 99 callsubr
        </CharString>
        <CharString name="dvD_DA">
          -52 38 -63 callgsubr
          298 hlineto
          -1 -6 -1 -7 -9 vvcurveto
          -51 -7 -39 -1 -27 vhcurveto
          1 -4 -5 0 -4 hhcurveto
          -94 -118 -54 -82 -45 58 -22 49 -8 hvcurveto
          -85 -32 -92 -69 -59 vvcurveto
          -24 15 -17 24 -11 vhcurveto
          -10 23 31 -5 36 hhcurveto
          34 37 6 9 33 hvcurveto
          -71 4 48 -64 50 hhcurveto
          17 8 4 10 hvcurveto
          26 -81 -23 122 4 0 5 4 vvcurveto
          32 15 22 19 19 vvcurveto
          18 -15 15 -22 -19 -28 -19 -38 -11 vhcurveto
          -9 -28 -31 -6 -38 hhcurveto
          -58 -36 7 16 22 40 34 56 34 hvcurveto
          75 46 71 8 22 vvcurveto
          0 vlineto
          30 -171 -2 45 vvcurveto
          44 96 38 73 vhcurveto
          17 0 -5 7 hhcurveto
          6 6 4 6 3 hvcurveto
          18 22 9 70 43 vvcurveto
          17 -1 16 -4 13 vhcurveto
          166 -107 callgsubr
        </CharString>
        <CharString name="dvD_DHA">
          112 375 54 rmoveto
          -77 -37 -135 -111 -99 hhcurveto
          -10 -5 4 8 hvcurveto
          50 114 78 22 vvcurveto
          10 -6 3 -11 vhcurveto
          -1 hlineto
          -1 hlineto
          -13 -49 -29 -61 hhcurveto
          -27 -13 8 23 7 1 7 2 8 hvcurveto
          8 hlineto
          68 58 24 31 33 hvcurveto
          -44 28 70 -22 83 hhcurveto
          146 145 228 callgsubr
          -478 -90 rmoveto
          50 25 46 46 37 hhcurveto
          23 6 -14 -17 -29 -57 -36 -79 hvcurveto
          -24 527 -104 callsubr
          524 -47 callgsubr
          -84 -112 -125 -96 -42 hvcurveto
          7 -11 -13 4 -17 hhcurveto
          -94 -78 -121 -88 -40 31 -22 42 12 16 1 3 17 hvcurveto
          -31 -32 -27 -38 -30 vvcurveto
          -34 22 -20 38 87 101 64 66 65 vhcurveto
          -11 -58 -9 -56 -12 -45 rrcurveto
          -1 -4 -1 -5 -5 vvcurveto
          -9 3 -9 10 29 13 76 111 25 174 callsubr
          -64 -38 -60 -80 -26 vhcurveto
          -16 hlineto
          -97 callgsubr
          147 -107 callgsubr
        </CharString>
        <CharString name="dvD_GA">
          -20 377 199 228 callgsubr
          -376 -360 265 callsubr
          2 797 -104 callsubr
          397 -47 callgsubr
          -105 -150 -196 -91 -37 20 -28 33 -20 hvcurveto
          -6 vlineto
          277 callgsubr
          85 42 159 109 3 hvcurveto
          -9 29 33 -4 37 hhcurveto
          4 hlineto
          -4 -18 -5 -19 -4 -18 rrcurveto
          -22 -96 -14 -82 -32 vvcurveto
          -11 4 -14 10 17 17 76 111 25 174 callsubr
          -66 -35 -61 -79 -25 vhcurveto
          -18 hlineto
          -97 callgsubr
          156 -107 callgsubr
        </CharString>
        <CharString name="dvD_GHA">
          104 354 54 rmoveto
          -99 -60 -139 -101 -93 hhcurveto
          -10 -5 4 8 17 17 27 49 49 hvcurveto
          31 31 40 18 16 108 callsubr
          254 callsubr
          -62 -53 0 16 27 68 72 42 24 hvcurveto
          -1 274 callgsubr
          205 callgsubr
          vhcurveto
          146 145 228 callgsubr
          -446 69 callsubr
          469 -47 callgsubr
          -85 -114 -128 -97 -41 hvcurveto
          -62 -10 -113 -115 -50 vvcurveto
          -34 47 -19 50 -1 vhcurveto
          -15 -11 -14 -12 -11 -11 rrcurveto
          -40 -40 -19 -38 -25 vvcurveto
          -31 22 -28 48 87 110 72 73 71 vhcurveto
          -10 -56 -9 -55 -12 -44 rrcurveto
          -1 -4 -1 -5 -5 vvcurveto
          -9 3 -9 10 29 13 76 111 25 174 callsubr
          -64 -38 -60 -80 -26 -58 callgsubr
        </CharString>
        <CharString name="dvD_G_RA">
          83 481 206 rmoveto
          21 12 -12 -18 -36 -48 -21 -61 -9 hvcurveto
          53 17 23 43 36 hhcurveto
          -420 -367 265 callsubr
          -13 797 -104 callsubr
          432 -47 callgsubr
          -105 -150 -196 -91 -28 12 -22 21 -17 hvcurveto
          -8 0 -8 -8 vvcurveto
          277 callgsubr
          88 41 169 109 1 hvcurveto
          -16 39 49 -7 51 hhcurveto
          10 hlineto
          -6 -29 -6 -29 -6 -30 -9 -45 rcurveline
          -90 -54 -145 -122 -31 237 callsubr
          20 105 106 57 85 vhcurveto
          -8 -39 -6 -34 -6 vvcurveto
          -11 1 -10 12 29 13 76 111 25 vhcurveto
          6 28 7 40 9 39 rrcurveto
          88 12 78 39 64 vvcurveto
          44 -22 35 -55 -65 -36 -63 -84 -25 vhcurveto
          -7 -7 0 -8 hhcurveto
          -92 -68 19 48 74 122 152 76 49 20 -30 -2 25 hvcurveto
          1 0 1 hlineto
          104 callsubr
          14 17 vvcurveto
          120 29 42 12 27 vhcurveto
          161 -107 callgsubr
        </CharString>
        <CharString name="dvD_MA">
          273 655 315 rmoveto
          -48 -18 -83 -24 -67 -23 -41 -14 -45 -13 -43 -14 rrcurveto
          -62 46 -78 29 49 vvcurveto
          61 52 26 52 vhcurveto
          81 20 -35 21 hhcurveto
          1 hlineto
          2 hlineto
          20 30 83 83 14 -1 13 -2 10 hvcurveto
          248 304 callgsubr
          rrcurveto
          -299 -232 rmoveto
          -37 -42 -18 -56 -55 -31 18 23 28 65 29 79 27 vhcurveto
          24 -19 16 -22 -29 vvcurveto
          -289 549 -104 callsubr
          354 hlineto
          -2 -15 -1 -17 -2 -17 -5 -52 -5 -30 -4 -19 rrcurveto
          17 -26 -43 13 -44 hhcurveto
          -80 -74 -47 -82 -76 72 -37 62 -37 hvcurveto
          -80 -30 -64 -35 -52 vvcurveto
          -39 39 -46 96 82 60 43 54 36 -14 29 -22 24 vhcurveto
          36 12 37 11 34 11 54 18 67 19 48 14 rrcurveto
          -24 -108 -24 -95 144 callgsubr
          142 -107 callgsubr
        </CharString>
        <CharString name="dvD_NA">
          -20 377 280 callsubr
          -297 -414 rmoveto
          -33 -10 -28 -31 -33 -43 12 28 34 43 41 48 25 vhcurveto
          17 -21 9 -29 -29 vvcurveto
          -73 851 -104 callsubr
          392 209 callsubr
          -105 -150 -196 -91 -77 85 -38 109 hvcurveto
          -5 -31 -3 -31 -25 vvcurveto
          -19 1 -19 2 -17 vhcurveto
          16 -23 -26 10 -39 hhcurveto
          -104 -121 -103 -66 -54 66 -36 64 54 29 45 59 36 -11 37 -21 25 hvcurveto
          6 16 16 3 14 hhcurveto
          39 24 -9 -33 42 hvcurveto
          0 vlineto
          -3 3 3 -1 3 hhcurveto
          10 2 16 24 hvcurveto
          20 -3 11 44 vvcurveto
          30 4 34 7 33 vhcurveto
          92 11 82 45 61 vvcurveto
          43 -22 29 -49 -69 -42 -66 -74 -22 vhcurveto
          -11 218 callgsubr
          48 20 -28 -4 23 hvcurveto
          3 318 callsubr
          1 1 0 1 2 hvcurveto
          8 2 4 6 2 9 rrcurveto
          1 3 0 3 2 vvcurveto
          2 vlineto
          5 vlineto
          120 29 42 12 27 147 callsubr
        </CharString>
        <CharString name="dvD_R">
          -20 -19 -253 -52 callsubr
          396 452 185 callgsubr
          -369 69 callsubr
          391 209 callsubr
          -105 -150 -196 -91 -77 85 -38 109 hvcurveto
          -59 callgsubr
        </CharString>
        <CharString name="dvD_RA">
          -68 377 280 callsubr
          -369 69 callsubr
          391 209 callsubr
          -105 -150 -196 -91 -77 85 -38 109 hvcurveto
          -59 callgsubr
        </CharString>
        <CharString name="dvD_VA">
          -77 377 157 callsubr
          16 708 -104 callsubr
          402 -47 callgsubr
          -105 -150 -196 -91 -40 23 -30 38 -19 hvcurveto
          68 callgsubr
        </CharString>
        <CharString name="dvD_YA">
          88 474 376 rmoveto
          -100 -59 -117 -125 -165 hhcurveto
          -10 -8 4 8 17 25 28 38 33 hvcurveto
          36 31 50 22 17 15 rrcurveto
          3 2 2 3 3 vvcurveto
          0 vlineto
          3 -1 2 -2 2 vhcurveto
          -20 22 -114 0 51 vvcurveto
          37 67 29 48 vhcurveto
          17 0 -5 7 hhcurveto
          3 3 1 2 3 hvcurveto
          18 9 9 44 28 vvcurveto
          17 0 16 -3 13 vhcurveto
          202 hlineto
          -12 -63 -14 -66 -15 -70 rrcurveto
          -515 247 98 callgsubr
          -1 -6 -1 -7 -9 vvcurveto
          -27 -1 -17 -1 -13 vhcurveto
          1 -6 -6 1 -6 hhcurveto
          -63 -95 -49 -71 -45 49 -31 43 -10 hvcurveto
          -62 -35 -69 -65 -43 vvcurveto
          -31 27 -28 43 131 119 74 77 71 vhcurveto
          -23 -106 -24 -94 -17 -105 callgsubr
          120 -107 callgsubr
        </CharString>
        <CharString name="dvE">
          34 48 636 74 callsubr
        </CharString>
        <CharString name="dvEcandra">
          34 443 700 rmoveto
          139 callsubr
          hvcurveto
          -29 41 -114 -179 hhcurveto
          -85 -73 43 58 hvcurveto
          7 3 1 8 vvcurveto
          10 -21 12 -18 -11 -4 -10 -15 -103 110 -52 95 vhcurveto
          -395 -64 74 callsubr
        </CharString>
        <CharString name="dvEight">
          -24 246 86 rmoveto
          100 106 51 38 11 -7 5 -10 hvcurveto
          -21 -51 -52 -117 hhcurveto
          -71 -45 22 62 hvcurveto
          169 226 156 26 vvcurveto
          13 -12 9 -16 -37 -213 -200 -172 -95 72 -43 96 vhcurveto
          endchar
        </CharString>
        <CharString name="dvEyelash">
          133 295 rmoveto
          -17 -30 -32 -9 -41 216 callgsubr
          -83 45 -55 101 48 44 17 21 31 vhcurveto
          endchar
        </CharString>
        <CharString name="dvEyelash_HA">
          81 267 -63 callgsubr
          241 6 callsubr
          -92 -67 -39 -59 -29 12 -24 21 -22 hvcurveto
          -17 -5 -16 -7 -13 -8 rrcurveto
          -17 -30 -32 -9 -41 216 callgsubr
          -83 45 -55 101 14 14 1 3 13 vhcurveto
          -16 -29 -8 -34 -38 -66 callsubr
        </CharString>
        <CharString name="dvEyelash_YA">
          161 596 -102 callgsubr
          -231 48 83 callsubr
          -38 -11 -34 -16 -29 hvcurveto
          -25 -29 -48 -9 -37 216 callgsubr
          -88 49 -50 101 18 19 3 5 18 vhcurveto
          -56 -55 -65 -32 -18 190 callsubr
          119 -107 callsubr
          endchar
        </CharString>
        <CharString name="dvFive">
          -51 257 216 rmoveto
          -89 -31 -20 -102 -51 -53 -35 44 -20 hhcurveto
          -9 -4 -7 -10 -31 65 -45 53 112 -3 123 127 58 hvcurveto
          58 17 37 36 33 vvcurveto
          23 -24 13 -20 -43 -28 -34 -46 -22 vhcurveto
          -1 -10 -10 0 -10 hhcurveto
          -64 -41 29 54 92 107 96 78 43 hvcurveto
          20 11 30 7 8 vvcurveto
          10 -21 19 -22 -53 -194 -146 -138 -81 54 -55 102 vhcurveto
          endchar
        </CharString>
        <CharString name="dvFour">
          43 298 116 rmoveto
          -43 -69 39 59 62 46 68 58 62 hvcurveto
          49 -73 36 -76 -70 vvcurveto
          -53 -30 -18 -47 vhcurveto
          235 504 rmoveto
          7 -5 2 -11 -39 -94 -61 -81 -85 vhcurveto
          85 -66 -81 64 -66 hhcurveto
          -13 -7 -5 -9 -21 77 -4 96 -121 hvcurveto
          7 -9 8 -10 7 -9 rrcurveto
          -70 -75 -56 -86 -67 vvcurveto
          -73 76 -78 86 85 44 44 70 78 -40 99 -57 85 vhcurveto
          96 91 108 72 12 vvcurveto
          endchar
        </CharString>
        <CharString name="dvG">
          -113 182 165 rmoveto
          -95 callgsubr
          309 callgsubr
        </CharString>
        <CharString name="dvGA">
          117 209 255 callsubr
          -107 267 callsubr
          213 -89 callsubr
          209 -90 callsubr
        </CharString>
        <CharString name="dvGH">
          -175 56 -63 callgsubr
          177 hlineto
          -71 -34 -80 -70 -50 vvcurveto
          -41 65 -40 59 -9 vhcurveto
          -15 -12 -15 -14 -13 -11 rrcurveto
          -48 -43 -45 -64 -38 vvcurveto
          -31 22 -28 48 158 159 118 53 15 -6 6 -15 -12 -18 -18 -24 -26 vhcurveto
          -43 -48 -75 -59 -119 hhcurveto
          -10 -5 4 8 45 71 71 51 39 hvcurveto
          20 16 25 16 13 108 callsubr
          254 callsubr
          -54 -81 28 27 42 125 87 70 callgsubr
          138 -107 callgsubr
        </CharString>
        <CharString name="dvGHA">
          75 270 380 rmoveto
          -2 hlineto
          -54 -81 28 27 42 125 87 274 callsubr
          -13 -71 -17 -76 -17 -80 rrcurveto
          -100 -59 -122 -110 -151 46 callgsubr
          113 117 63 71 73 vhcurveto
          -22 -99 -21 -84 -17 -73 callsubr
        </CharString>
        <CharString name="dvGH_MA">
          513 674 -79 callgsubr
          -267 229 rmoveto
          -2 hlineto
          -54 -81 28 27 42 125 87 70 callgsubr
          281 58 callsubr
          -88 -15 -80 -18 -29 -38 -15 -13 -17 -19 -16 -12 rrcurveto
          -40 -51 -73 -58 -114 46 callgsubr
          104 113 57 55 63 vhcurveto
          -52 19 50 -56 49 hhcurveto
          74 37 103 116 19 hvcurveto
          -90 callgsubr
        </CharString>
        <CharString name="dvGH_NA">
          117 callsubr
          -93 -445 -13 callgsubr
          -122 129 callgsubr
          168 hlineto
          -68 -29 -73 -54 -43 vvcurveto
          -41 60 -38 57 -10 vhcurveto
          -20 -14 -19 -16 -14 -12 rrcurveto
          -48 -43 -26 -41 -36 vvcurveto
          -31 26 -27 48 107 124 64 70 76 vhcurveto
          -18 -83 -19 -80 -10 -47 -43 callgsubr
          118 -107 callsubr
          endchar
        </CharString>
        <CharString name="dvGH_R">
          -192 56 -63 callgsubr
          177 hlineto
          -71 -34 -81 -68 -43 vvcurveto
          -40 64 -38 59 -9 vhcurveto
          -55 -42 -64 -68 -35 vvcurveto
          -31 17 -25 48 52 56 13 20 51 vhcurveto
          -72 -77 -138 -140 -24 237 callsubr
          24 97 106 79 75 vhcurveto
          64 68 76 75 22 vvcurveto
          8 -3 5 -8 vhcurveto
          -31 -83 -94 -176 hhcurveto
          -10 -5 4 8 27 55 51 51 39 hvcurveto
          20 16 30 15 15 vvcurveto
          9 -5 5 -13 vhcurveto
          254 callsubr
          -54 -82 25 27 38 126 82 70 callgsubr
          308 callsubr
        </CharString>
        <CharString name="dvGH_RA">
          117 callsubr
          -215 228 -104 callsubr
          168 hlineto
          -68 -29 -73 -54 -43 vvcurveto
          -41 60 -38 57 -10 vhcurveto
          -20 -14 -19 -16 -14 -12 rrcurveto
          -48 -43 -26 -41 -36 vvcurveto
          -31 26 -27 48 107 124 64 70 76 vhcurveto
          -17 -78 -18 -75 -10 -48 rrcurveto
          33 -22 -37 36 -32 hhcurveto
          -64 -45 -54 -38 -33 hvcurveto
          -51 -58 -74 -73 -19 vvcurveto
          -8 6 -6 8 24 66 79 55 51 vhcurveto
          35 33 34 45 40 hhcurveto
          34 29 -50 -32 26 122 callsubr
          118 -107 callsubr
          endchar
        </CharString>
        <CharString name="dvGH_YA">
          454 889 -102 callgsubr
          -380 -208 rmoveto
          -2 hlineto
          -54 -81 28 27 42 125 87 70 callgsubr
          139 hlineto
          -99 callsubr
          -116 -98 -72 -58 -43 hvcurveto
          -17 -11 -21 -15 -18 -11 rrcurveto
          -38 -65 -133 -41 -81 46 callgsubr
          92 130 48 44 81 vhcurveto
          -11 11 16 -9 13 8 callsubr
          119 -107 callsubr
          endchar
        </CharString>
        <CharString name="dvG_BA">
          382 688 198 -49 callgsubr
          -275 -18 rmoveto
          -95 callgsubr
          495 111 callsubr
        </CharString>
        <CharString name="dvG_BHA">
          518 515 130 219 callgsubr
          37 91 10 104 11 hvcurveto
          -90 -33 -47 -67 -42 -19 callsubr
          -422 -295 -26 callsubr
          695 471 72 callsubr
          -29 -31 -23 -32 -24 vhcurveto
          3 -8 -11 2 -17 hhcurveto
          -10 callgsubr
          11 hlineto
          -11 -25 -7 -28 130 callgsubr
          22 vhcurveto
          -5 -30 -7 -31 -8 -29 rrcurveto
          -127 -13 -131 -8 -77 -14 callsubr
        </CharString>
        <CharString name="dvG_BH_YA">
          791 1226 -38 callgsubr
          89 330 rmoveto
          67 callgsubr
          43 8 -65 -67 -11 0 -12 -1 -11 hvcurveto
          -6 -21 -21 -4 -30 hhcurveto
          -414 -295 -26 callsubr
          574 471 rmoveto
          217 callgsubr
          -29 -30 -22 -31 -24 hvcurveto
          2 -7 -9 1 -13 hhcurveto
          -10 callgsubr
          3 hlineto
          -11 -26 -7 -27 -27 vvcurveto
          225 callgsubr
          113 37 vhcurveto
          63 6 61 3 46 5 rrcurveto
          -45 -37 -41 -23 -15 190 callsubr
          119 -107 callsubr
          endchar
        </CharString>
        <CharString name="dvG_DA">
          334 738 126 callsubr
          -556 -34 rmoveto
          -95 callgsubr
          428 -47 callgsubr
          -105 -150 -196 -91 -74 79 -38 104 -3 hvcurveto
          -83 callgsubr
        </CharString>
        <CharString name="dvG_DA_mU">
          341 738 127 callgsubr
          -556 -34 rmoveto
          -95 callgsubr
          428 166 callgsubr
          -96 callgsubr
        </CharString>
        <CharString name="dvG_DA_mUU">
          341 738 199 -39 callgsubr
          -301 345 rmoveto
          -95 callgsubr
          428 166 callgsubr
          -96 callsubr
        </CharString>
        <CharString name="dvG_DHA">
          457 690 136 callsubr
          -508 -477 -26 callsubr
          696 471 151 callgsubr
          -14 -74 -17 -79 -18 -84 rrcurveto
          -96 -72 -144 -82 -111 -51 callsubr
          -42 -52 -32 -45 -47 hvcurveto
          3 vlineto
          15 -10 9 -37 vhcurveto
          -10 callgsubr
          13 10 1 2 7 hvcurveto
          -55 -60 -43 -78 -64 vvcurveto
          195 callgsubr
          15 vhcurveto
          -48 -47 -42 -57 -37 vvcurveto
          -38 25 -22 43 100 127 53 76 82 vhcurveto
          -23 -106 -24 -94 -17 -73 callsubr
        </CharString>
        <CharString name="dvG_DH_VA">
          742 894 -52 callgsubr
          -214 520 -7 callsubr
          -498 -477 -26 callsubr
          667 471 16 callsubr
          -83 -68 -81 -91 -35 hvcurveto
          -51 -59 -114 -95 -131 -51 callsubr
          -39 -48 -27 -41 -45 hvcurveto
          11 -2 -12 7 -32 hhcurveto
          -10 callgsubr
          7 6 0 1 5 hvcurveto
          -54 -60 -42 -77 -63 vvcurveto
          195 callgsubr
          16 vhcurveto
          253 callsubr
          105 109 55 56 71 vhcurveto
          -3 -16 -1 -16 -15 vvcurveto
          -98 callsubr
        </CharString>
        <CharString name="dvG_DH_YA">
          783 1218 -20 callsubr
          17 232 -7 callsubr
          -488 -477 -26 callsubr
          565 471 269 callgsubr
          -37 -45 -25 -37 -42 hvcurveto
          8 -6 -12 4 -26 hhcurveto
          -10 callgsubr
          7 hlineto
          -53 -59 -42 -77 -63 vvcurveto
          195 callgsubr
          16 vhcurveto
          235 callgsubr
          -35 32 -35 46 66 109 39 42 76 vhcurveto
          -12 11 17 -9 13 hhcurveto
          115 151 72 104 91 hvcurveto
          -7 -32 -65 callsubr
        </CharString>
        <CharString name="dvG_GA">
          471 563 255 callsubr
          -381 hmoveto
          -95 callgsubr
          336 -89 callsubr
          209 -90 callsubr
        </CharString>
        <CharString name="dvG_GHA">
          447 642 380 rmoveto
          -2 hlineto
          -54 -81 28 27 42 125 87 274 callsubr
          -13 -71 -17 -76 -17 -80 rrcurveto
          -100 -59 -122 -110 -151 hhcurveto
          -10 -5 4 8 45 71 71 51 39 hvcurveto
          20 16 25 16 13 108 callsubr
          -461 -215 rmoveto
          -95 callgsubr
          272 hlineto
          -71 -34 -80 -70 -50 vvcurveto
          -41 65 -40 59 -9 vhcurveto
          -15 -12 -15 -14 -13 -11 rrcurveto
          -48 -43 -45 -64 -38 vvcurveto
          -31 22 -28 48 113 117 63 71 73 vhcurveto
          -22 -99 -21 -84 -17 -73 callsubr
        </CharString>
        <CharString name="dvG_JA">
          577 182 165 rmoveto
          -95 callgsubr
          671 -63 callsubr
          -69 -87 -118 -119 -81 callsubr
        </CharString>
        <CharString name="dvG_LA">
          596 182 165 rmoveto
          -95 callgsubr
          707 hlineto
          -54 callgsubr
          -123 -103 -102 -148 -100 callsubr
        </CharString>
        <CharString name="dvG_MA">
          512 673 -79 callgsubr
          -354 14 rmoveto
          -95 callgsubr
          301 58 callsubr
          rrcurveto
          -112 -18 -98 -26 -62 -71 callgsubr
        </CharString>
        <CharString name="dvG_NA">
          147 240 -37 -13 callgsubr
          -40 222 -41 callgsubr
          226 304 callgsubr
          324 callsubr
          -43 callgsubr
          118 -107 callsubr
          endchar
        </CharString>
        <CharString name="dvG_NNA">
          546 737 119 callsubr
          -393 -423 rmoveto
          -95 callgsubr
          186 -18 callgsubr
          204 -99 callgsubr
          308 callsubr
        </CharString>
        <CharString name="dvG_N_YA">
          792 1227 -102 callgsubr
          -333 -352 rmoveto
          -70 -19 -45 -36 -50 -81 87 59 41 84 14 94 4 vhcurveto
          2 -19 6 -14 -57 vvcurveto
          -473 -71 rmoveto
          -95 callgsubr
          498 hlineto
          -99 callsubr
          -57 -24 -46 -31 -38 hvcurveto
          19 -36 -103 0 -72 -79 callsubr
          59 48 -2 35 hhcurveto
          18 hlineto
          -54 -52 -62 -31 -18 190 callsubr
          119 -107 callsubr
          endchar
        </CharString>
        <CharString name="dvG_R">
          -103 484 181 158 callgsubr
          -284 4 -41 callgsubr
          207 -107 callgsubr
        </CharString>
        <CharString name="dvG_RA">
          147 200 185 -41 callgsubr
          226 304 callgsubr
          254 callgsubr
          -64 callsubr
          118 -107 callsubr
          endchar
        </CharString>
        <CharString name="dvG_R_YA">
          484 919 -102 callgsubr
          -480 -403 -41 callgsubr
          170 hlineto
          -99 callsubr
          -143 -149 -76 -41 -38 hvcurveto
          -92 -64 -208 -199 -31 237 callsubr
          25 54 69 84 97 vhcurveto
          36 31 48 41 34 32 rrcurveto
          -9 11 13 -7 12 8 callsubr
          119 -107 callsubr
          endchar
        </CharString>
        <CharString name="dvG_SA">
          581 1028 10 callgsubr
          -574 -423 rmoveto
          -95 callgsubr
          233 -102 callsubr
          123 125 11 37 99 hvcurveto
          -27 -129 -33 -127 -105 callsubr
          118 -107 callsubr
          endchar
        </CharString>
        <CharString name="dvG_VA">
          364 516 -52 callgsubr
          -334 43 rmoveto
          -95 callgsubr
          492 118 callsubr
        </CharString>
        <CharString name="dvG_YA">
          445 880 -102 callgsubr
          -459 -423 rmoveto
          -95 callgsubr
          151 143 callsubr
          -166 -200 -75 -32 190 callsubr
          119 -107 callsubr
          endchar
        </CharString>
        <CharString name="dvGx">
          -163 77 -32 callgsubr
          105 119 rmoveto
          -95 callgsubr
          309 callgsubr
        </CharString>
        <CharString name="dvGxA">
          117 77 -32 callgsubr
          142 119 -26 callsubr
          -107 267 callsubr
          213 -89 callsubr
          209 -90 callsubr
        </CharString>
        <CharString name="dvGx_R">
          -103 47 97 -83 callsubr
          437 84 158 callgsubr
          -284 4 -41 callgsubr
          207 -107 callgsubr
        </CharString>
        <CharString name="dvGx_RA">
          147 47 97 -83 callsubr
          153 88 -41 callgsubr
          226 304 callgsubr
          254 callgsubr
          -64 callsubr
          118 -107 callsubr
          endchar
        </CharString>
        <CharString name="dvH">
          -29 81 -117 -52 callsubr
          46 753 -104 callsubr
          241 6 callsubr
          -92 -67 -39 -59 -29 12 -24 21 -22 hvcurveto
          -84 -24 -45 -71 -89 -66 callsubr
        </CharString>
        <CharString name="dvHA">
          -29 127 -63 callgsubr
          241 6 callsubr
          -92 -67 -39 -59 -29 12 -24 21 -22 hvcurveto
          -84 -24 -45 -71 -89 -66 callsubr
        </CharString>
        <CharString name="dvHA_mU">
          -29 208 -37 rmoveto
          298 callgsubr
          -16 -23 -35 -46 -26 -114 hvcurveto
          -116 -58 58 -30 hhcurveto
          -12 -5 -3 -10 -30 108 -60 119 121 76 48 63 41 -33 34 -62 hvcurveto
          -181 129 callgsubr
          341 55 callsubr
        </CharString>
</ttFont>
